# Blender v3.1.2 OBJ File: 'TheBedRoom.blend'
# www.blender.org
mtllib bedSecret.mtl
o bedroom#2.004_Mesh.002
v -9.957412 19.022156 1.599207
v -9.957412 18.720325 1.599207
v -9.957412 18.677206 1.685444
v -9.957412 19.022156 1.685444
v -8.814767 19.151512 1.685444
v -8.814767 19.151512 2.030388
v -8.426699 18.935919 2.030388
v -8.426699 18.935919 1.685444
v -8.426699 18.677206 1.599207
v -8.426699 18.677206 -2.108999
v -8.426699 19.539579 -2.108999
v -8.426699 19.539579 1.599207
v -9.957412 19.022156 1.685444
v -9.569344 19.065275 1.685444
v -9.569344 19.065275 1.599207
v -9.957412 19.022156 1.599207
v -8.426699 18.634089 1.599207
v -8.426699 18.634089 -2.108999
v -12.738567 18.677206 -2.108999
v -12.738567 18.634089 -2.108999
v -12.738567 18.634089 1.599207
v -12.738567 18.677206 1.599207
v -8.426699 18.634089 -2.108999
v -12.738567 18.634089 -2.108999
v -12.738567 18.677206 -2.108999
v -8.426699 18.677206 -2.108999
v -8.426699 18.935919 1.685444
v -8.426699 18.935919 1.814797
v -8.426699 18.892799 1.814797
v -8.426699 18.677206 1.685444
v -9.957412 18.375374 0.973982
v -9.569344 18.375374 0.973982
v -9.569344 18.353817 1.081781
v -9.957412 18.353817 1.081781
v -9.569344 19.065275 1.685444
v -9.569344 18.677206 1.685444
v -9.569344 18.720325 1.599207
v -9.569344 19.065275 1.599207
v -9.569344 18.677206 1.599207
v -8.426699 18.634089 1.599207
v -8.426699 18.677206 1.599207
v -9.569344 18.720325 1.599207
v -9.569344 18.677206 1.599207
v -9.569344 18.310698 1.081781
v -9.957412 18.310698 1.081781
v -9.957412 18.677206 1.599207
v -8.814767 18.677206 2.030388
v -9.957412 18.677206 2.030388
v -9.957412 18.677206 1.685444
v -8.426699 18.677206 1.685444
v -9.569344 18.310698 1.081781
v -9.569344 18.353817 1.081781
v -9.569344 18.375374 0.973982
v -9.569344 18.332256 0.973982
v -8.426699 18.677206 1.685444
v -8.814767 19.151512 1.685444
v -8.426699 18.935919 1.685444
v -9.569344 18.310698 1.081781
v -9.569344 18.332256 0.973982
v -9.957412 18.332256 0.973982
v -9.957412 18.310698 1.081781
v -8.426699 18.892799 1.814797
v -8.254225 18.892799 1.814797
v -8.254225 18.677206 1.814797
v -8.426699 18.677206 1.814797
v -8.426699 18.935919 2.030388
v -8.814767 19.151512 2.030388
v -8.814767 18.849682 2.030388
v -8.426699 18.677206 2.030388
v -9.569344 18.332256 0.973982
v -9.569344 18.375374 0.973982
v -9.957412 18.375374 0.973982
v -9.957412 18.332256 0.973982
v -8.814767 18.677206 1.685444
v -8.814767 18.849682 1.685444
v -8.814767 19.151512 1.685444
v -12.738567 19.539579 1.599207
v -12.738567 19.539579 -2.108999
v -12.738567 18.677206 1.599207
v -9.957412 18.677206 1.599207
v -9.957412 18.720325 1.599207
v -12.738567 19.539579 1.599207
v -12.824802 18.634089 -2.108999
v -12.824802 18.634089 1.599207
v -12.738567 18.634089 1.599207
v -12.738567 18.634089 -2.108999
v -9.957412 18.353817 1.081781
v -9.569344 18.353817 1.081781
v -9.569344 18.720325 1.599207
v -9.957412 18.720325 1.599207
v -8.426699 19.539579 1.599207
v -9.569344 19.539579 1.599207
v -9.569344 19.065275 1.599207
v -9.957412 19.022156 1.599207
v -9.957412 19.539579 1.599207
v -9.957412 18.310698 1.081781
v -9.957412 18.353817 1.081781
v -9.957412 18.720325 1.599207
v -9.957412 18.677206 1.599207
v -8.254225 18.935919 2.030388
v -8.426699 18.935919 2.030388
v -8.426699 18.935919 2.375340
v -8.254225 18.935919 2.375340
v -8.254225 18.677206 1.814797
v -8.254225 18.892799 1.814797
v -8.254225 18.935919 2.030388
v -8.254225 18.935919 2.375340
v -8.254225 18.677206 2.375340
v -8.426699 18.677206 2.030388
v -8.426699 18.677206 2.375340
v -8.426699 18.935919 2.375340
v -8.426699 18.935919 2.030388
v -8.426699 18.677206 1.814797
v -8.254225 18.677206 1.814797
v -8.254225 18.677206 2.375340
v -8.426699 18.677206 2.375340
v -8.426699 18.677206 1.814797
v -8.426699 18.677206 2.375340
v -8.426699 18.677206 2.030388
v -9.569344 18.677206 1.685444
v -9.569344 19.065275 1.685444
v -8.814767 18.677206 1.685444
v -8.814767 19.151512 1.685444
v -8.814767 18.849682 1.685444
v -9.569344 19.066086 1.685444
v -9.569344 19.065275 1.685444
v -9.957412 19.022156 1.685444
v -8.814767 18.677206 2.030388
v -9.957412 19.022156 2.030388
v -8.814767 19.151512 2.030388
v -8.814767 19.151512 1.685444
v -9.957412 19.022156 1.685444
v -9.957412 18.677206 2.030388
v -8.426699 18.935919 2.030388
v -8.426699 18.677206 1.814797
v -12.738567 18.634089 1.599207
v -8.426699 18.677206 1.685444
v -8.426699 18.677206 2.030388
v -9.957412 18.677206 1.685444
v -9.569344 18.677206 1.685444
v -8.814767 18.677206 1.685444
v -8.426699 19.539579 1.599207
v -12.738567 19.539579 1.599207
v -9.957412 19.539579 1.599207
v -9.569344 19.539579 1.599207
v -12.738567 19.539579 -2.108999
v -8.426699 19.539579 -2.108999
v -8.814767 19.151512 2.030388
v -9.957412 19.022156 2.030388
v -8.254225 18.935919 2.030388
v -8.254225 18.892799 1.814797
v -8.426699 18.892799 1.814797
v -8.426699 18.935919 2.030388
v -9.957412 18.720325 1.599207
v -9.569344 18.720325 1.599207
v -9.569344 18.677206 1.685444
v -9.957412 18.677206 1.685444
v -9.569344 18.720325 1.599207
v -9.569344 18.677206 1.599207
v -9.957412 18.332256 0.973982
v -9.957412 18.375374 0.973982
v -8.426699 18.634089 -2.108999
v -8.426699 18.634089 1.599207
v -8.081751 18.634089 1.599207
v -8.081751 18.634089 -2.108999
v -8.426699 19.539579 -2.108999
v -12.738567 19.539579 -2.108999
v -12.738567 19.539579 1.599207
v -8.426699 19.539579 1.599207
v -9.957412 18.677206 2.030388
v -9.957412 19.022156 2.030388
v -9.569344 19.066086 1.685444
v -8.814767 19.151512 1.685444
vt -4.500000 3.437500
vt -4.437500 3.406300
vt -4.437500 3.187500
vt -4.500000 3.187500
vt 4.750000 1.941900
vt 4.750000 1.738200
vt 4.500000 1.738200
vt 4.500000 1.941900
vt -1.750000 2.812500
vt -1.750000 3.437500
vt -4.437500 3.437500
vt -4.437500 2.812500
vt -2.609400 5.437500
vt -2.609400 5.500000
vt -2.890600 5.500000
vt -2.890600 5.437500
vt -1.750000 3.468800
vt -4.437500 3.468800
vt -4.437500 3.468800
vt -1.750000 3.468800
vt -1.750000 3.437500
vt -4.437500 3.437500
vt -4.906300 3.437500
vt -4.906300 3.468800
vt -1.781300 3.468800
vt -1.781300 3.437500
vt -4.593800 3.281300
vt -4.593800 3.250000
vt -4.500000 3.250000
vt -4.500000 3.437500
vt -2.609400 5.062500
vt -2.609400 4.984400
vt -2.890600 4.984400
vt -2.890600 5.062500
vt -4.437500 3.406300
vt -4.500000 3.437500
vt -4.500000 3.156200
vt -4.437500 3.156200
vt -1.781300 3.437500
vt -1.781300 3.468800
vt -2.609400 3.437500
vt -2.609400 3.406300
vt -2.890600 5.062500
vt -2.609400 5.062500
vt -2.609400 5.437500
vt -2.890600 5.437500
vt -2.890600 5.500000
vt -2.890600 5.750000
vt -2.062500 5.750000
vt -1.781300 5.500000
vt -3.984400 3.656300
vt -4.062500 3.671900
vt -4.062500 3.703100
vt -3.984400 3.687500
vt -1.781300 3.250000
vt -1.890600 3.078100
vt -1.781300 3.437500
vt -2.890600 4.984400
vt -2.609400 4.984400
vt -2.609400 5.062500
vt -2.890600 5.062500
vt -1.656300 3.437500
vt -1.656300 3.281300
vt -1.781300 3.281300
vt -1.781300 3.437500
vt -2.062500 3.312500
vt -1.972000 2.950300
vt -1.781300 3.250000
vt -1.781300 3.437500
vt -2.890600 3.656300
vt -2.609400 3.656300
vt -2.609400 3.687500
vt -2.890600 3.687500
vt -1.972000 2.950300
vt -2.062500 3.312500
vt -2.062500 3.437500
vt -1.750000 2.812500
vt -4.437500 2.812500
vt -2.890600 3.406300
vt -2.890600 3.437500
vt -4.906300 3.437500
vt -4.906300 2.812500
vt -2.453100 3.218800
vt -2.484400 3.218800
vt -2.484400 1.875000
vt -2.453100 1.875000
vt -2.609400 5.437500
vt -2.609400 5.062500
vt -2.890600 5.062500
vt -2.890600 5.437500
vt -2.609400 3.156200
vt -2.609400 2.812500
vt -1.781300 2.812500
vt -2.890600 3.187500
vt -2.890600 2.812500
vt -4.437500 3.406300
vt -4.062500 3.671900
vt -4.062500 3.703100
vt -4.437500 3.437500
vt -1.781300 6.000000
vt -1.781300 5.750000
vt -1.656300 5.750000
vt -4.750000 3.250000
vt -4.593800 3.281300
vt -4.593800 3.437500
vt -5.000000 3.437500
vt -5.000000 3.250000
vt -5.000000 3.250000
vt -5.000000 3.437500
vt -4.750000 3.437500
vt -4.750000 3.250000
vt -1.781300 6.000000
vt -1.656300 6.000000
vt -1.781300 5.593800
vt -1.781300 5.750000
vt -1.781300 6.000000
vt -1.781300 5.593800
vt -2.609400 3.156200
vt -2.609400 3.437500
vt -2.062500 3.312500
vt -2.062500 3.093700
vt -2.062500 3.437500
vt -1.445300 2.093700
vt -1.304700 2.078100
vt -1.304700 2.077800
vt -2.062500 3.437500
vt 2.284900 5.500000
vt 2.284900 5.750000
vt 3.118300 5.750000
vt 3.118300 5.500000
vt -2.890600 3.437500
vt -4.750000 3.250000
vt -4.593800 3.437500
vt -4.906300 3.468800
vt -1.781300 5.500000
vt -1.781300 5.750000
vt -2.609400 5.500000
vt -2.890600 5.500000
vt -2.062500 5.500000
vt -2.890600 5.437500
vt -4.906300 5.437500
vt -1.781300 5.437500
vt -2.609400 5.437500
vt -1.656300 6.000000
vt -1.656300 5.593800
vt -4.906300 2.812500
vt -1.781300 2.812500
vt -2.890600 3.187500
vt -2.062500 3.093700
vt -1.781300 5.593800
vt -1.656300 5.593800
vt -1.656300 5.750000
vt -1.781300 5.750000
vt -2.609400 5.500000
vt -2.609400 5.437500
vt -2.890600 5.437500
vt -2.890600 5.500000
vt -4.437500 3.406300
vt -4.437500 3.437500
vt -3.984400 3.656300
vt -3.984400 3.687500
vt -1.531300 5.437500
vt -1.781300 5.437500
vt -1.781300 2.750000
vt -1.531300 2.750000
vt -4.906300 5.437500
vt -4.906300 2.750000
vt -1.781300 2.750000
vt -1.781300 5.437500
vt -4.750000 3.187500
vt -4.750000 3.437500
vt -2.062500 3.093700
vt -2.609400 3.155700
vn 1.0000 0.0000 0.0000
vn -0.4856 -0.8742 0.0000
vn -1.0000 0.0000 0.0000
vn 0.1104 -0.9939 0.0000
vn 0.0000 0.0000 1.0000
vn 0.0000 0.9806 0.1961
vn 0.0000 0.0000 -1.0000
vn 0.0000 -0.8160 0.5780
vn 0.0000 1.0000 0.0000
vn 0.0000 -0.9806 -0.1961
vn 0.0000 -1.0000 0.0000
vn 0.0000 0.8160 -0.5780
vn -0.4085 0.9055 0.1152
vn -0.4168 0.9055 0.0797
vn -0.4254 0.9013 0.0813
vn 0.1125 -0.9937 0.0000
vn 0.0000 -0.9806 0.1961
vn 0.0000 0.8944 0.4472
usemtl PAPER05#2
s 1
f 3/1/1 2/2/1 1/3/1
f 3/1/1 1/3/1 4/4/1
f 7/5/2 6/6/2 5/7/2
f 7/5/2 5/7/2 8/8/2
f 11/9/3 10/10/3 9/11/3
f 11/9/3 9/11/3 12/12/3
f 15/13/4 14/14/4 13/15/4
f 15/13/4 13/15/4 16/16/4
f 10/10/3 18/17/3 17/18/3
f 10/10/3 17/18/3 9/11/3
f 21/19/1 20/20/1 19/21/1
f 21/19/1 19/21/1 22/22/1
f 25/23/5 24/24/5 23/25/5
f 25/23/5 23/25/5 26/26/5
f 29/27/3 28/28/3 27/29/3
f 29/27/3 27/29/3 30/30/3
f 33/31/6 32/32/6 31/33/6
f 33/31/6 31/33/6 34/34/6
f 37/35/3 36/36/3 35/37/3
f 37/35/3 35/37/3 38/38/3
f 41/39/7 40/40/7 39/41/7
f 41/39/7 39/41/7 42/42/7
f 45/43/8 44/44/8 43/45/8
f 45/43/8 43/45/8 46/46/8
f 49/47/9 48/48/9 47/49/9
f 49/47/9 47/49/9 50/50/9
f 53/51/1 52/52/1 51/53/1
f 53/51/1 51/53/1 54/54/1
f 57/55/5 56/56/5 55/57/5
f 60/58/10 59/59/10 58/60/10
f 60/58/10 58/60/10 61/61/10
f 64/62/5 63/63/5 62/64/5
f 64/62/5 62/64/5 65/65/5
f 68/66/7 67/67/7 66/68/7
f 68/66/7 66/68/7 69/69/7
f 72/70/7 71/71/7 70/72/7
f 72/70/7 70/72/7 73/73/7
f 76/74/5 75/75/1 74/76/5
f 76/74/5 74/76/5 55/57/5
f 19/21/1 78/77/1 77/78/1
f 19/21/1 77/78/1 22/22/1
f 81/79/7 80/80/7 79/81/7
f 81/79/7 79/81/7 82/82/7
f 85/83/11 84/84/11 83/85/11
f 85/83/11 83/85/11 86/86/11
f 89/87/12 88/88/12 87/89/12
f 89/87/12 87/89/12 90/90/12
f 93/91/7 92/92/7 91/93/7
f 93/91/7 91/93/7 41/39/7
f 92/92/7 93/91/7 94/94/7
f 92/92/7 94/94/7 95/95/7
f 98/96/3 97/97/3 96/98/3
f 98/96/3 96/98/3 99/99/3
f 102/100/11 101/101/11 100/102/11
f 106/103/3 105/104/3 104/105/3
f 108/106/3 107/107/3 104/105/3
f 111/108/1 110/109/1 109/110/1
f 112/111/1 111/108/1 109/110/1
f 116/112/9 115/113/9 113/114/9
f 119/115/5 118/116/13 117/117/9
f 121/118/5 120/119/5 74/76/5
f 124/120/5 123/121/14 122/122/15
f 127/123/5 126/124/5 125/125/5
f 128/126/7 68/66/7 69/69/7
f 131/127/16 130/128/16 129/129/16
f 131/127/16 129/129/16 132/130/16
f 68/66/7 128/126/7 133/131/7
f 29/27/3 134/132/3 28/28/3
f 135/133/3 29/27/3 30/30/3
f 42/42/7 93/91/7 41/39/7
f 80/80/7 39/41/7 40/40/7
f 79/81/7 80/80/7 40/40/7
f 136/134/7 79/81/7 40/40/7
f 94/94/7 81/79/7 82/82/7
f 95/95/7 94/94/7 82/82/7
f 119/115/5 117/117/9 137/135/5
f 47/49/9 138/136/9 50/50/9
f 140/137/5 139/138/5 137/135/5
f 141/139/5 140/137/5 137/135/5
f 144/140/5 143/141/5 142/142/5
f 145/143/5 144/140/5 142/142/5
f 103/144/11 102/100/11 100/102/11
f 107/107/3 106/103/3 104/105/3
f 115/113/9 114/145/9 113/114/9
f 146/146/5 25/23/5 26/26/5
f 146/146/5 26/26/5 147/147/5
f 149/148/7 148/149/7 68/66/7
f 149/148/7 68/66/7 133/131/7
f 152/150/17 151/151/17 150/152/17
f 152/150/17 150/152/17 153/153/17
f 156/154/18 155/155/18 154/156/18
f 156/154/18 154/156/18 157/157/18
f 51/53/1 52/52/1 158/158/1
f 51/53/1 158/158/1 159/159/1
f 97/97/3 161/160/3 160/161/3
f 97/97/3 160/161/3 96/98/3
f 164/162/11 163/163/11 162/164/11
f 164/162/11 162/164/11 165/165/11
f 168/166/11 167/167/11 166/168/11
f 168/166/11 166/168/11 169/169/11
f 4/4/1 171/170/1 170/171/1
f 4/4/1 170/171/1 3/1/1
f 173/172/5 172/173/5 121/118/5
f 173/172/5 121/118/5 74/76/5
