# Blender v3.1.2 OBJ File: 'TheBedRoom.blend'
# www.blender.org
mtllib BuildingCarpet.mtl
o bedroom#2.025_Mesh.023
v -12.824802 16.651400 4.401916
v -12.824802 16.651400 4.574395
v -13.320669 16.651400 4.574395
v -13.320669 16.651400 4.401916
v -14.026738 16.651400 5.048702
v -14.026738 27.517307 5.048702
v -14.026738 27.517307 4.617510
v -14.026738 16.651400 4.617510
v -13.126635 16.651400 -7.757548
v -13.859653 16.651400 -7.757548
v -13.859653 16.651400 -11.896941
v -7.779919 16.651400 -11.896941
v -1.010286 16.651400 -11.896941
v -1.010286 16.651400 -7.326361
v -7.779919 16.651400 -7.326361
v -1.010286 16.651400 -6.162157
v -1.010286 16.651400 4.574395
v -1.139641 16.651400 4.574395
v -1.139641 16.651400 -6.162157
v -13.859653 16.651400 2.461576
v -13.126635 16.651400 2.461576
v -13.126635 16.651400 2.892762
v -13.859653 16.651400 2.892762
v -13.924330 27.517307 4.617510
v -14.026738 27.517307 4.617510
v -14.026738 27.517307 5.048702
v -13.902771 27.517307 5.048702
v -13.924330 27.517307 4.617510
v -13.924330 16.651400 4.617510
v -14.026738 16.651400 4.617510
v -14.026738 27.517307 4.617510
v -13.902771 27.517307 5.048702
v -13.902771 16.651400 5.048702
v -13.902771 16.651400 4.617510
v -13.902771 27.517307 4.617510
v -13.126635 16.651400 -7.326361
v -13.859653 16.651400 -7.326361
v -5.968935 16.651400 -6.162157
v -13.859653 16.651400 -6.162157
v -13.859653 16.651400 4.401916
v -12.997278 16.651400 2.892762
v -13.902771 16.651400 5.048702
v -14.026738 16.651400 5.048702
v -14.026738 16.651400 4.617510
v -13.902771 16.651400 4.617510
v -1.570828 16.651400 4.574395
v -1.570828 16.651400 4.703751
v -5.537747 16.651400 4.703751
v -5.537747 16.651400 -6.162157
v -13.320669 16.651400 -16.898710
v -1.549272 16.651400 -16.898710
v -1.549272 16.651400 -16.726233
v -13.320669 16.651400 -16.726233
v -5.537747 16.651400 4.574395
v -5.968935 16.651400 4.531269
v -13.902771 16.651400 4.617510
v -13.902771 27.517307 4.617510
v -12.997278 16.651400 2.892762
v -13.859653 16.651400 2.892762
v -13.126635 16.651400 2.892762
v -7.779919 16.651400 -7.757548
v -7.887716 16.651400 -7.757548
v -13.018839 16.651400 -7.757548
v -1.139641 16.651400 -6.162157
v -1.139641 16.651400 4.574395
v -1.139641 16.651400 4.531269
v -5.968935 16.651400 2.892762
v -5.968935 16.651400 4.531269
v -5.968935 16.651400 4.574395
v -5.968935 16.651400 2.892762
v -7.887716 16.651400 2.892762
v -7.779919 16.651400 2.892762
v -5.968935 16.651400 -6.162157
v -5.968935 16.651400 2.461576
v -5.968935 16.651400 2.461576
v -7.779919 16.651400 2.784970
v -7.779919 16.651400 2.569372
v -7.779919 16.651400 2.461576
v -1.570828 16.651400 -6.162157
v -5.537747 16.651400 -6.162157
v -5.537747 16.651400 4.703751
v -5.537747 16.651400 4.574395
v -7.779919 16.651400 -11.896941
v -7.779919 16.651400 -7.326361
v -7.779919 16.651400 -7.434156
v -7.779919 16.651400 -7.649751
v -7.779919 16.651400 -7.757548
v -7.887716 16.651400 2.461576
v -13.018839 16.651400 2.461576
v -13.859653 16.651400 -16.726233
v -13.730297 16.651400 -16.726233
v -13.859653 16.651400 -11.896941
v -1.010286 16.651400 -11.896941
v -1.010286 16.651400 -7.326361
v -13.859653 16.651400 -7.326361
v -13.126635 16.651400 -7.326361
v -13.018839 16.651400 -7.326361
v -7.887716 16.651400 -7.326361
v -13.902771 27.517307 4.617510
v -13.902771 16.651400 4.617510
v -14.026738 16.651400 4.617510
v -13.924330 16.651400 4.617510
v -1.010286 16.651400 -16.726233
v -1.139641 16.651400 4.531269
v -14.026738 27.517307 5.048702
v -14.026738 16.651400 5.048702
v -13.902771 16.651400 5.048702
v -13.902771 27.517307 5.048702
v -5.968935 16.651400 4.574395
v -7.779919 16.651400 2.892762
v -7.779919 16.651400 -7.649751
v -7.887716 16.651400 -7.757548
v -7.779919 16.651400 -7.757548
v -7.887716 16.651400 -7.326361
v -7.779919 16.651400 -7.434156
v -7.779919 16.651400 -7.326361
v -7.779919 16.651400 2.569372
v -7.887716 16.651400 2.461576
v -7.779919 16.651400 2.461576
v -13.018839 16.651400 -7.757548
v -13.018839 16.651400 -7.326361
v -13.126635 16.651400 -7.326361
v -13.126635 16.651400 -7.757548
v -13.018839 16.651400 2.461576
v -12.997278 16.651400 2.892762
v -13.126635 16.651400 2.892762
v -13.126635 16.651400 2.461576
v -7.887716 16.651400 2.892762
v -7.779919 16.651400 2.784970
v -7.779919 16.651400 2.892762
vt -3.045000 17.319099
vt -2.422500 16.959799
vt -2.547500 16.743299
vt -3.170000 17.102600
vt -3.312500 -0.984400
vt -3.468800 -0.984400
vt -3.468800 2.953100
vt -3.312500 2.953100
vt -15.659100 -2.966600
vt -12.659100 2.229600
vt -11.738899 1.698300
vt -8.027200 -7.372800
vt -4.714700 -1.635400
vt 3.783100 -6.541700
vt 0.470600 -12.279099
vt 12.245800 8.491000
vt 12.408100 8.397300
vt 4.626900 -5.080200
vt 4.464500 -4.986500
vt -4.020200 15.067599
vt -4.332700 14.526299
vt -5.252800 15.057600
vt -4.940300 15.598800
vt -2.919900 4.468800
vt -2.919900 4.312500
vt -2.882800 4.312500
vt -2.875000 4.468800
vt -0.348200 0.984400
vt -0.344500 0.984400
vt -0.344500 0.590600
vt -0.348200 0.590600
vt -3.312500 2.953100
vt -3.468800 2.953100
vt -3.468800 -0.984400
vt -3.312500 -0.984400
vt -11.426400 2.239600
vt -12.346600 2.770800
vt -11.502800 4.232300
vt -1.597700 -1.486500
vt -3.846600 17.493299
vt -3.641300 14.848800
vt -3.900100 17.885000
vt -3.587600 18.426300
vt -3.431900 18.336399
vt -3.744400 17.795099
vt 6.818600 11.840899
vt 11.798300 8.965899
vt 11.704499 8.803500
vt -1.056400 -1.799000
vt -3.705900 -17.950600
vt -3.830900 -18.167099
vt -18.607500 -9.635900
vt -18.482500 -9.419400
vt 6.152300 11.936900
vt 6.724900 11.678500
vt -0.343800 0.984400
vt -0.343800 0.590600
vt -4.020200 15.067599
vt -4.940300 15.598800
vt -3.641300 14.848800
vt -5.162500 -2.098600
vt -5.027200 -2.176700
vt -11.603600 1.620200
vt 12.214499 8.436900
vt 12.245800 8.491000
vt 4.464500 -4.986500
vt 6.183600 11.990999
vt 6.152300 11.936900
vt 4.964800 9.880099
vt 4.964800 9.880099
vt 2.556200 11.270700
vt 2.691500 11.192599
vt -1.597700 -1.486500
vt 4.652300 9.338799
vt 2.457200 10.786600
vt 2.613400 11.057300
vt 4.652300 9.338799
vt 2.379000 10.651299
vt 3.923300 -4.674000
vt 6.724900 11.678500
vt 6.818600 11.840899
vt -1.056400 -1.799000
vt -4.792800 -1.770700
vt -4.714700 -1.635400
vt -8.027200 -7.372800
vt -4.949100 -2.041400
vt -5.027200 -2.176700
vt 2.243700 10.729400
vt -4.197300 14.448199
vt -18.996700 -9.122499
vt -19.159100 -9.028800
vt 0.470600 -12.279099
vt -15.659100 -2.966600
vt -11.426400 2.239600
vt -12.346600 2.770800
vt 3.783100 -6.541700
vt -11.291100 2.161500
vt -4.850000 -1.557300
vt -2.875000 4.312500
vt -3.771500 17.810799
vt -3.900100 17.885000
vt -3.744400 17.795099
vt -3.029400 -18.341299
vt 12.214499 8.436900
vt -2.875000 2.953100
vt -2.919900 2.953100
vt -2.919900 -0.984400
vt -2.875000 -0.984400
vt 6.183600 11.990999
vt 2.691500 11.192599
vt 0.339306 0.501344
vt 0.427193 0.589231
vt 0.251420 0.589231
vt 0.515283 0.501344
vt 0.603169 0.589231
vt 0.427396 0.589231
vt 0.339306 0.589435
vt 0.427191 0.677321
vt 0.251420 0.677321
vt 0.251420 0.501141
vt 0.251420 0.376850
vt 0.748580 0.376851
vt 0.748580 0.501141
vt 0.251420 0.376647
vt 0.251420 0.227499
vt 0.748580 0.252355
vt 0.748580 0.376646
vt 0.515282 0.589435
vt 0.603168 0.677321
vt 0.427396 0.677321
vn 0.0000 1.0000 0.0000
vn 1.0000 0.0000 0.0000
vn 0.0000 -1.0000 0.0000
vn 0.0000 0.0000 1.0000
vn -1.0000 0.0000 0.0000
vn -0.6341 0.7618 0.1323
vn -0.6096 0.7810 0.1357
vn -0.0659 0.9622 0.2643
vn -0.0641 0.9359 -0.3464
vn -0.3187 0.8890 -0.3290
vn -0.0493 0.8127 -0.5806
vn -0.5607 0.6737 -0.4813
vn 0.0000 0.0000 -1.0000
vn -0.6060 0.7281 -0.3203
vn -0.0554 0.9139 -0.4021
usemtl CARPET1
s 1
f 3/1/1 2/2/1 1/3/1
f 3/1/1 1/3/1 4/4/1
f 7/5/2 6/6/2 5/7/2
f 7/5/2 5/7/2 8/8/2
f 11/9/1 10/10/1 9/11/1
f 11/9/1 9/11/1 12/12/1
f 15/13/1 14/14/1 13/15/1
f 15/13/1 13/15/1 12/12/1
f 18/16/1 17/17/1 16/18/1
f 18/16/1 16/18/1 19/19/1
f 22/20/1 21/21/1 20/22/1
f 22/20/1 20/22/1 23/23/1
f 26/24/3 25/25/3 24/26/3
f 26/24/3 24/26/3 27/27/3
f 30/28/4 29/29/4 28/30/4
f 30/28/4 28/30/4 31/31/4
f 34/32/5 33/33/5 32/34/5
f 34/32/5 32/34/5 35/35/5
f 36/36/1 9/11/1 10/10/1
f 36/36/1 10/10/1 37/37/1
f 37/37/1 39/38/1 38/39/1
f 37/37/1 38/39/1 14/14/1
f 23/23/1 40/40/1 4/4/1
f 23/23/1 4/4/1 41/41/1
f 44/42/1 43/43/1 42/44/1
f 44/42/1 42/44/1 45/45/1
f 48/46/1 47/47/1 46/48/1
f 48/46/1 46/48/1 49/49/1
f 52/50/1 51/51/1 50/52/1
f 52/50/1 50/52/1 53/53/1
f 55/54/1 54/55/1 49/49/1
f 55/54/1 49/49/1 38/39/1
f 39/38/1 20/22/1 21/21/1
f 39/38/1 21/21/1 38/39/1
f 28/30/4 29/29/4 56/56/4
f 28/30/4 56/56/4 57/57/4
f 4/4/1 1/3/1 41/41/1
f 60/58/4 59/59/6 58/60/7
f 62/61/1 61/62/1 12/12/1
f 63/63/1 62/61/1 12/12/1
f 9/11/1 63/63/1 12/12/1
f 66/64/1 65/65/8 64/66/9
f 69/67/1 68/68/1 67/69/3
f 41/41/1 1/3/1 70/70/1
f 71/71/4 58/60/7 67/69/3
f 72/72/4 71/71/4 67/69/3
f 67/69/3 68/68/1 73/73/10
f 74/74/1 67/69/3 73/73/10
f 77/75/1 76/76/1 75/77/1
f 78/78/1 77/75/1 75/77/1
f 46/48/1 79/79/1 49/49/1
f 82/80/3 81/81/3 80/82/3
f 85/83/4 84/84/4 83/85/4
f 86/86/4 85/83/4 83/85/4
f 87/87/4 86/86/4 83/85/4
f 78/78/1 75/77/1 38/39/1
f 88/88/1 78/78/1 38/39/1
f 89/89/1 88/88/1 38/39/1
f 21/21/1 89/89/1 38/39/1
f 91/90/1 90/91/1 11/9/1
f 53/53/1 91/90/1 11/9/1
f 52/50/1 53/53/1 11/9/1
f 83/85/4 93/92/11 92/93/12
f 19/19/1 16/18/1 14/14/1
f 79/79/1 19/19/1 14/14/1
f 49/49/1 79/79/1 14/14/1
f 38/39/1 49/49/1 14/14/1
f 96/94/13 95/95/14 94/96/15
f 97/97/4 96/94/13 94/96/15
f 98/98/4 97/97/4 94/96/15
f 84/84/4 98/98/4 94/96/15
f 24/26/3 99/99/3 27/27/3
f 102/100/4 101/101/4 100/102/4
f 13/15/1 103/103/1 52/50/1
f 13/15/1 52/50/1 11/9/1
f 79/79/1 46/48/1 104/104/1
f 79/79/1 104/104/1 19/19/1
f 107/105/13 106/106/13 105/107/13
f 107/105/13 105/107/13 108/108/13
f 1/3/1 2/2/1 109/109/1
f 1/3/1 109/109/1 70/70/1
f 76/76/1 110/110/1 70/70/1
f 76/76/1 70/70/1 75/77/1
f 113/111/1 112/112/1 111/113/1
f 116/114/1 115/115/1 114/116/1
f 119/117/1 118/118/1 117/119/1
f 122/120/1 121/121/1 120/122/1
f 122/120/1 120/122/1 123/123/1
f 126/124/1 125/125/1 124/126/1
f 126/124/1 124/126/1 127/127/1
f 130/128/1 129/129/1 128/130/1
