# Blender v3.1.2 OBJ File: 'TheBedRoom.blend'
# www.blender.org
mtllib BuildingUnknown1.mtl
o bedroom#2.020_Mesh.018
v -13.902771 20.833912 -11.896941
v -13.902771 20.963266 -11.896941
v -13.924330 20.963266 -11.896941
v -13.924330 20.833912 -11.896941
v -14.075245 20.833912 -12.047856
v -14.204603 20.963266 -12.047856
v -13.924330 20.963266 -12.047856
v -13.924330 20.833912 -12.047856
v -13.902771 20.963266 -12.047856
v -13.902771 20.833912 -12.047856
v -13.838093 20.963266 -12.047856
v -13.838093 20.833912 -12.047856
v -14.075245 20.833912 -11.896941
v -14.204603 20.963266 -11.896941
v -13.838093 20.833912 -11.896941
v -13.838093 20.963266 -11.896941
v -14.204603 20.963266 -11.896941
v -13.924330 20.963266 -11.896941
v -14.075245 20.963266 -11.896941
vt -10.080600 2.260100
vt -10.055400 2.260100
vt -10.055400 2.411300
vt -10.080600 2.411300
vt -10.080600 2.260100
vt -10.408299 2.260100
vt -10.257100 2.411300
vt -10.080600 2.411300
vt -10.055400 2.260100
vt -10.055400 2.411300
vt -9.979800 2.260100
vt -9.979800 2.411300
vt -10.257100 2.411300
vt -10.408299 2.260100
vt -9.979800 2.260100
vt -9.979800 2.411300
vt -10.257100 2.260100
vt -10.080600 2.260100
vt -10.408299 2.260100
vn 0.0000 0.0000 -1.0000
vn 0.0000 0.0000 1.0000
vn -0.5002 0.7531 -0.4274
vn -0.5077 0.7493 -0.4252
usemtl PARTICLEBOARD
s 1
f 3/1/1 2/2/1 1/3/1
f 3/1/1 1/3/1 4/4/1
f 7/5/2 6/6/2 5/7/2
f 7/5/2 5/7/2 8/8/2
f 9/9/2 7/5/2 8/8/2
f 9/9/2 8/8/2 10/10/2
f 11/11/2 9/9/2 10/10/2
f 11/11/2 10/10/2 12/12/2
f 3/1/1 4/4/1 13/13/1
f 3/1/1 13/13/1 14/14/1
f 2/2/1 16/15/1 15/16/1
f 2/2/1 15/16/1 1/3/1
f 19/17/2 18/18/3 17/19/4
