# Blender v3.1.2 OBJ File: 'TheBedRoom.blend'
# www.blender.org
mtllib BuildingRoof.mtl
o bedroom#2.017_Mesh.015
v 14.383080 37.046532 5.479883
v 12.097786 37.046532 5.479883
v 12.097786 35.763748 -7.283244
v 14.383080 35.763748 -7.283244
v -15.455045 30.449377 3.755136
v -15.455045 30.093649 5.048702
v -15.605959 30.093649 5.048702
v -15.605959 30.449377 3.755136
v 0.757580 17.089769 -19.528944
v 0.757580 17.988079 -17.804195
v -12.264260 17.988079 -17.804195
v -12.264260 16.640619 -20.391319
v -15.605959 30.045137 5.221172
v -15.282569 30.045137 5.221172
v -15.282569 29.975071 5.479883
v -15.605959 29.975071 5.479883
v -15.282569 30.093649 5.048702
v -15.282569 30.449377 3.755136
v -13.902771 30.449377 3.755136
v -12.479855 30.212225 4.617510
v -18.214642 16.640619 -20.391319
v -15.627521 17.988079 -17.804195
v 3.819003 35.763748 -7.283244
v 3.819003 37.046532 5.479883
v 0.757580 37.046532 5.479883
v 0.757580 35.763748 -7.283244
v -15.282569 27.382561 -16.941822
v 0.757580 27.382561 -16.941822
v 0.757580 30.449377 3.755136
v -15.282569 30.449377 3.755136
v -16.144943 30.449377 3.755136
v -16.144943 30.093649 5.048702
v -15.455045 30.093649 5.048702
v -15.282569 30.093649 5.048702
v -15.282569 30.045137 5.221172
v -15.455045 30.045137 5.221172
v -12.479855 28.924053 10.136703
v -4.201070 28.924053 10.136703
v -4.201070 27.522699 16.345789
v -12.479855 27.522699 16.345789
v -18.214642 16.640619 -7.455716
v -15.627521 17.988079 -7.455716
v -15.627521 17.988079 5.479883
v -18.214642 16.640619 5.479883
v -16.144943 30.093649 5.048702
v -15.605959 30.093649 5.048702
v -15.605959 30.045137 5.221172
v -16.144943 30.045137 5.221172
v 12.097786 37.046532 -0.901678
v 12.097786 37.046532 5.479883
v 3.819003 37.046532 5.479883
v 3.819003 37.046532 -0.901678
v 0.757580 27.522699 16.345789
v -4.201070 29.975071 5.479883
v 0.757580 29.975071 5.479883
v -4.201070 30.212225 4.617510
v -4.201070 30.449377 3.755136
v -0.967166 30.449377 3.755136
v 0.757580 30.093649 5.048702
v -4.201070 30.449377 5.048702
v -4.201070 30.449377 10.136703
v -12.479855 30.449377 10.136703
v -12.479855 30.449377 3.755136
v -16.144943 28.130102 -11.896941
v -15.605959 28.130102 -11.896941
v -15.605959 30.449377 3.755136
v -16.144943 30.449377 3.755136
v -12.479855 30.093649 5.048702
v -12.479855 30.045137 5.221172
v -12.479855 30.045137 5.221172
v -12.479855 29.975071 5.479883
v -4.201070 30.449377 3.755136
v -12.479855 30.449377 3.755136
v -12.479855 30.449377 10.136703
v -12.479855 30.449377 5.048702
v -15.627521 17.988079 -7.455716
v -15.627521 17.988079 -17.804195
v -15.627521 17.988079 -11.896941
v -4.201070 30.093649 5.048702
v 0.757580 30.449377 3.755136
v -12.479855 30.449377 3.755136
v 0.757580 16.640619 -20.391319
v -12.264260 16.640619 -20.391319
v -12.264260 17.988079 -17.804195
v -12.264260 17.089769 -19.528944
v 0.757580 30.045137 5.221172
v -4.201070 30.045137 5.221172
v -4.201070 30.093649 5.048702
v 0.757580 30.093649 5.048702
v -15.282569 28.130102 -11.896941
v -16.144943 27.382561 -16.941822
v -15.282569 30.093649 5.048702
v -12.479855 30.212225 4.617510
v -12.479855 30.093649 5.048702
v -15.282569 30.045137 5.221172
v 1.016292 14.969770 -22.719728
v 14.124369 14.969770 -22.719728
v 14.124369 16.182484 -20.391319
v 1.016292 16.182484 -20.391319
v -4.201070 29.975071 5.479883
v -4.201070 30.045137 5.221172
v 0.757580 30.045137 5.221172
v 0.757580 29.975071 5.479883
v -18.214642 27.522699 16.345789
v -18.214642 29.975071 5.479883
v -12.479855 29.975071 5.479883
v -18.214642 16.640619 -7.455716
v -18.214642 16.640619 -20.391319
v -15.627521 17.988079 -17.804195
v -15.627521 17.988079 -7.455716
v 12.097786 36.405144 -0.901678
v 3.819003 36.405144 -0.901678
v 0.757580 34.448631 -20.391319
v 14.383080 34.448631 -20.391319
v -16.144943 26.999886 -19.528944
v 0.757580 26.999886 -19.528944
v 14.383080 37.046532 5.479883
v 14.383080 34.286942 16.345789
v 0.757580 34.286942 16.345789
v 0.757580 37.046532 5.479883
v -16.144943 30.045137 5.221172
v -16.144943 29.975071 5.479883
vt 7.383000 1.408200
vt 6.500500 5.948200
vt 7.313400 6.106200
vt 8.195900 1.566200
vt -3.324300 3.879300
vt -3.270600 3.889700
vt -3.181100 3.429600
vt -3.234800 3.419200
vt -0.557400 -4.008800
vt 4.074700 -3.108400
vt 4.209100 -3.800200
vt -0.355700 -5.046400
vt -3.239100 4.055000
vt -3.221200 3.963000
vt -3.336200 3.940700
vt -3.354100 4.032700
vt -2.629000 3.536900
vt -3.119800 3.441500
vt -3.209200 3.901700
vt -2.182500 3.942100
vt -2.472300 -5.457900
vt -1.753700 -4.241400
vt 2.466700 5.164100
vt 3.555700 5.375800
vt 4.438100 0.835800
vt 3.349100 0.624100
vt 3.596900 3.772200
vt 2.553100 -3.654800
vt -3.202800 -2.845900
vt -2.159000 4.581100
vt -3.426600 3.381900
vt -3.516000 3.842000
vt -3.221200 3.963000
vt -3.209200 3.901700
vt -3.270600 3.889700
vt -3.282500 3.951100
vt -0.048500 8.686399
vt 0.380800 6.477800
vt -2.564100 5.905300
vt -2.993400 8.113999
vt -4.485600 2.943500
vt -3.591200 -1.657900
vt -4.628800 -1.859600
vt -5.523200 2.741800
vt -3.336200 3.940700
vt -3.324300 3.879300
vt -3.516000 3.842000
vt -3.527900 3.903400
vt -4.359400 -3.000000
vt -7.359400 -3.000000
vt -7.359400 -0.687500
vt -4.359400 -0.687500
vt 0.702800 4.821300
vt 1.715400 9.029300
vt 2.466700 5.164100
vt 1.972400 4.431400
vt 0.822100 4.207700
vt 0.762400 4.514500
vt 2.496500 5.010700
vt -2.359400 6.312500
vt 0.640600 6.312500
vt 0.640600 4.468800
vt -2.359400 4.000000
vt -2.275100 4.597400
vt -3.064400 -1.019200
vt -3.257800 -0.992000
vt -2.468500 4.624600
vt -2.224200 4.156800
vt -2.212300 4.095500
vt -2.242100 4.248800
vt -2.224200 4.156800
vt 0.640600 4.000000
vt -2.359400 4.468800
vt -2.359400 6.312500
vt -2.359400 4.000000
vt -3.296000 -3.176400
vt -2.887600 -5.277700
vt -3.603100 -1.596600
vt 0.732600 4.667900
vt 2.585900 4.550600
vt -2.122800 3.635300
vt 4.276400 -4.146000
vt -0.422900 -4.700600
vt -0.557400 -4.008800
vt -0.355700 -5.046400
vt 0.732600 4.667900
vt 0.720700 4.729200
vt 2.484500 5.072100
vt 2.496500 5.010700
vt -3.512300 -2.802400
vt -2.948400 -1.035500
vt -2.212300 4.095500
vt -2.182500 3.942100
vt -3.209200 3.901700
vt -3.221200 3.963000
vt 8.008900 -3.617700
vt 8.190400 -4.551500
vt 3.527700 -5.457900
vt 3.346200 -4.524000
vt 2.484500 5.072100
vt 0.720700 4.729200
vt 0.702800 4.821300
vt 2.466700 5.164100
vt -4.282000 3.852300
vt -5.033300 7.717500
vt -2.242100 4.248800
vt -2.887600 -5.277700
vt -3.746300 -6.399600
vt -4.640700 -1.798300
vt -3.603100 -1.596600
vt 3.996900 3.105800
vt 6.941800 3.678200
vt 9.102300 -3.096500
vt 4.255500 -4.038600
vt 2.422700 -4.583200
vt -3.642700 -3.730800
vt 6.657800 6.471200
vt 10.933800 4.002400
vt 8.965099 0.592500
vt 4.689100 3.061200
vt -3.527900 3.903400
vt -3.545800 3.995400
vn 0.0000 0.9950 -0.1000
vn 0.0000 0.9950 -0.0999
vn 0.0000 0.9642 0.2652
vn 0.0000 0.8869 -0.4619
vn 0.0000 0.9652 0.2614
vn 0.0000 0.9892 -0.1466
vn 0.0000 0.9892 -0.1465
vn 0.0000 0.9626 0.2708
vn 0.0000 0.9755 0.2202
vn -0.4619 0.8869 0.0000
vn 0.0000 1.0000 0.0000
vn 0.0000 0.0000 1.0000
vn -0.3624 0.8843 0.2944
vn -0.3768 0.9193 0.1134
vn -0.5254 0.6047 -0.5986
vn -0.6259 0.7205 -0.2986
vn -1.0000 0.0000 0.0000
vn -0.4224 0.5731 -0.7023
vn 0.0000 0.9641 0.2654
vn 0.0000 0.9628 0.2703
vn 0.0000 0.9950 -0.0998
vn 0.0000 0.9892 -0.1463
vn 0.0000 0.9692 0.2462
usemtl TTASPHALT01
s 1
f 3/1/1 2/2/1 1/3/1
f 3/1/1 1/3/1 4/4/2
f 7/5/3 6/6/3 5/7/3
f 7/5/3 5/7/3 8/8/3
f 11/9/4 10/10/4 9/11/4
f 11/9/4 9/11/4 12/12/4
f 15/13/5 14/14/5 13/15/5
f 15/13/5 13/15/5 16/16/5
f 19/17/3 18/18/3 17/19/3
f 19/17/3 17/19/3 20/20/3
f 11/9/4 12/12/4 21/21/4
f 11/9/4 21/21/4 22/22/4
f 25/23/1 24/24/1 23/25/1
f 25/23/1 23/25/1 26/26/2
f 29/27/6 28/28/7 27/29/6
f 29/27/6 27/29/6 30/30/6
f 7/5/3 8/8/3 31/31/3
f 7/5/3 31/31/3 32/32/3
f 35/33/8 34/34/8 33/35/8
f 35/33/8 33/35/8 36/36/8
f 39/37/9 38/38/9 37/39/9
f 39/37/9 37/39/9 40/40/9
f 43/41/10 42/42/10 41/43/10
f 43/41/10 41/43/10 44/44/10
f 47/45/8 46/46/8 45/47/8
f 47/45/8 45/47/8 48/48/8
f 51/49/11 50/50/11 49/51/11
f 51/49/11 49/51/11 52/52/11
f 54/53/9 39/37/9 53/54/9
f 54/53/9 53/54/9 55/55/9
f 58/56/3 57/57/3 56/58/3
f 58/56/3 56/58/3 59/59/3
f 62/60/11 61/61/11 60/62/11
f 62/60/11 60/62/11 63/63/11
f 66/64/6 65/65/6 64/66/6
f 66/64/6 64/66/6 67/67/6
f 69/68/8 68/69/8 35/33/8
f 71/70/5 70/71/5 14/14/5
f 71/70/5 14/14/5 15/13/5
f 60/62/11 72/72/11 63/63/11
f 75/73/12 74/74/13 73/75/14
f 78/76/12 77/77/15 76/78/16
f 56/58/3 79/79/3 59/59/3
f 80/80/3 58/56/3 59/59/3
f 81/81/3 19/17/3 20/20/3
f 9/11/4 82/82/4 12/12/4
f 85/83/17 84/84/17 83/85/18
f 88/86/8 87/87/8 86/88/8
f 88/86/8 86/88/8 89/89/8
f 91/90/7 64/66/6 90/91/6
f 91/90/7 90/91/6 27/29/6
f 94/92/19 93/93/3 92/94/20
f 94/92/19 92/94/20 95/95/8
f 66/64/6 30/30/6 90/91/6
f 66/64/6 90/91/6 65/65/6
f 98/96/4 97/97/4 96/98/4
f 98/96/4 96/98/4 99/99/4
f 102/100/5 101/101/5 100/102/5
f 102/100/5 100/102/5 103/103/5
f 17/19/3 18/18/3 5/7/3
f 17/19/3 5/7/3 6/6/3
f 105/104/9 104/105/9 40/40/9
f 105/104/9 40/40/9 106/106/9
f 109/107/10 108/108/10 107/109/10
f 109/107/10 107/109/10 110/110/10
f 23/25/1 112/111/1 111/112/1
f 23/25/1 111/112/1 3/1/1
f 4/4/2 114/113/21 113/114/21
f 4/4/2 113/114/21 26/26/2
f 28/28/7 116/115/22 115/116/22
f 28/28/7 115/116/22 91/90/7
f 119/117/23 118/118/23 117/119/23
f 119/117/23 117/119/23 120/120/23
f 16/16/5 13/15/5 121/121/5
f 16/16/5 121/121/5 122/122/5
