# Blender v3.1.2 OBJ File: 'TheBedRoom.blend'
# www.blender.org
mtllib BuildingCeiling.mtl
o bedroom#2.019_Mesh.017
v -6.529478 25.188896 -16.726233
v -1.549272 25.188896 -16.726233
v -1.549272 25.188896 -16.941822
v -6.529478 25.188896 -16.941822
v -4.093273 27.819136 4.401916
v -1.182762 27.819136 4.401916
v -1.182762 27.819136 4.617510
v -4.093273 27.819136 4.617510
v -4.093273 27.819136 -2.355732
v -1.182762 27.819136 -2.355732
v -1.182762 27.237034 -6.284164
v -4.093273 27.237034 -6.284164
v -10.776668 27.819136 4.617510
v -13.687177 27.819136 4.617510
v -13.687177 27.819136 4.401916
v -10.776668 27.819136 4.401916
v -10.561073 27.237034 4.401916
v -10.561073 27.237034 -6.284164
v -10.776668 27.237034 -6.284164
v -10.776668 27.237034 4.617510
v -7.327173 27.819136 -2.355732
v -4.308866 27.819136 -2.355732
v -4.308866 27.237034 -6.284164
v -7.327173 27.237034 -6.284164
v -4.093273 27.237034 4.401916
v -4.093273 27.237034 -6.284164
v -4.308866 27.237034 -6.284164
v -4.308866 27.237034 4.617510
v -13.320669 20.661434 4.574395
v -13.320669 17.082586 4.574395
v -13.320669 17.168821 4.617510
v -13.320669 20.661434 4.617510
v -1.549272 22.364624 -16.726233
v -1.549272 17.255060 -16.726233
v -1.549272 17.255060 -16.898710
v -1.549272 22.364624 -16.941822
v -10.776668 27.237034 4.617510
v -10.776668 27.237034 4.401916
v -13.320669 27.237034 4.401916
v -13.320669 27.237034 4.617510
v -1.549272 17.082586 -16.898710
v -1.549272 17.168821 -16.941822
v -1.549272 17.255060 -16.941822
v -13.320669 27.237034 4.617510
v -13.320669 27.237034 4.401916
v -13.320669 20.661434 4.401916
v -7.542767 27.819136 -2.355732
v -7.327173 27.819136 -2.355732
v -7.327173 27.819136 4.401916
v -7.542767 27.819136 4.401916
v -1.549272 16.651400 -16.726233
v -1.549272 16.651400 -16.898710
v -7.542767 27.237034 4.401916
v -10.561073 27.237034 4.401916
v -10.561073 27.237034 4.617510
v -7.434969 27.237034 4.617510
v -7.542767 27.237034 -6.284164
v -10.561073 27.237034 -6.284164
v -10.561073 27.819136 -2.355732
v -7.542767 27.819136 -2.355732
v -1.182762 25.188896 -16.726233
v -1.182762 27.237034 -2.825850
v -0.967166 27.237034 -2.825850
v -0.967166 25.188896 -16.726233
v -1.182762 27.819136 4.401916
v -1.182762 27.819136 -2.355732
v -0.967166 27.819136 -2.355732
v -0.967166 27.819136 4.617510
v -0.967166 28.724630 3.755136
v -13.902771 28.724630 3.755136
v -13.902771 28.347340 4.617510
v -0.967166 28.347340 4.617510
v -12.264260 25.188896 -16.726233
v -10.884464 25.188896 -16.726233
v -10.884464 25.188896 -16.941822
v -12.264260 25.188896 -16.941822
v -13.320669 19.799065 -16.726233
v -13.320669 19.799065 -16.898710
v -13.320669 17.082586 -16.898710
v -13.320669 16.651400 -16.726233
v -10.776668 27.819136 4.401916
v -10.776668 27.819136 -2.355732
v -10.561073 27.819136 -2.355732
v -10.561073 27.819136 4.617510
v -7.327173 27.819136 4.401916
v -4.308866 27.819136 4.401916
v -4.308866 27.819136 4.617510
v -7.434969 27.819136 4.617510
v -4.093273 27.237034 4.617510
v -1.182762 27.237034 4.617510
v -1.182762 27.237034 4.401916
v -4.093273 27.237034 4.401916
v -13.687177 27.237034 -2.825850
v -13.687177 25.188896 -16.726233
v -13.902771 25.188896 -16.726233
v -13.902771 27.237034 -2.825850
v -0.967166 28.724630 3.755136
v -0.967166 27.819136 -2.355732
v -13.902771 27.819136 -2.355732
v -13.902771 28.724630 3.755136
v -1.549272 22.493980 -16.936440
v -1.549272 22.364624 -16.936440
v -1.549272 22.493980 -16.941822
v -13.320669 25.188896 -16.941822
v -13.320669 25.188896 -16.726233
v -10.776668 27.237034 -6.284164
v -13.687177 27.237034 -6.284164
v -13.687177 27.819136 -2.355732
v -10.776668 27.819136 -2.355732
v -1.549272 22.364624 -16.941822
v -1.549272 22.364624 -16.936440
v -1.549272 22.364624 -16.726233
v -1.549272 25.188896 -16.941822
v -13.320669 20.661434 4.617510
v -13.320669 20.661434 4.401916
v -13.320669 20.661434 4.574395
v -13.320669 19.799065 -16.941822
v -13.320669 19.799065 -16.898710
v -13.320669 19.799065 -16.726233
v -13.320669 19.799065 -16.941822
v -13.320669 21.998116 -16.726233
v -13.320669 23.534218 -16.726233
v -13.320669 25.188896 -16.726233
v -13.320669 25.188896 -16.941822
v -13.320669 16.651400 4.401916
v -13.320669 16.651400 4.574395
v -13.320669 16.651400 -16.898710
v -7.434969 27.237034 4.401916
v -7.542767 27.237034 4.401916
v -7.434969 27.237034 4.401916
v -7.327173 27.237034 4.401916
v -10.561073 27.237034 4.617510
v -10.776668 27.237034 4.617510
v -10.776668 27.237034 -6.284164
v -10.776668 27.237034 4.401916
v -13.902771 27.237034 -2.825850
v -13.902771 27.237034 -2.281479
v -13.902771 27.237034 4.401916
v -4.093273 27.237034 4.617510
v -4.308866 27.237034 4.617510
v -4.308866 27.237034 -6.284164
v -4.308866 27.237034 4.401916
v -4.308866 27.237034 4.617510
v -4.308866 27.237034 4.401916
v -7.327173 27.237034 4.401916
v -4.308866 27.237034 4.617510
v -7.434969 27.237034 4.617510
v -5.968935 27.237034 4.617510
v -0.967166 27.237034 -2.825850
v -1.182762 27.237034 -2.825850
v -1.182762 27.237034 4.401916
v -1.182762 27.237034 4.617510
v -0.967166 27.237034 4.617510
v -0.967166 27.237034 -2.825850
v -0.967166 27.237034 4.617510
v -0.967166 27.237034 -2.281479
v -4.201070 27.819136 3.755136
v -4.201070 27.819136 4.617510
v -4.308866 27.819136 4.617510
v -4.308866 27.819136 4.401916
v -4.308866 27.819136 3.755136
v -7.542767 27.819136 4.401916
v -7.327173 27.819136 4.401916
v -7.434969 27.819136 4.401916
v -10.561073 27.819136 4.617510
v -10.561073 27.819136 4.401916
v -7.542767 27.819136 4.401916
v -7.434969 27.819136 4.401916
v -10.776668 27.819136 4.617510
v -10.561073 27.819136 4.617510
v -10.561073 27.819136 -2.355732
v -10.561073 27.819136 4.401916
v -1.182762 27.819136 4.617510
v -0.967166 27.819136 4.617510
v -0.967166 27.819136 -2.355732
v -0.967166 27.819136 -2.281479
v -7.434969 27.819136 4.617510
v -4.308866 27.819136 4.617510
v -5.968935 27.819136 4.617510
v -4.093273 27.819136 3.755136
v -4.093273 27.819136 4.401916
v -4.093273 27.819136 4.617510
v -13.687177 27.819136 4.617510
v -13.902771 27.819136 4.617510
v -13.902771 27.819136 -2.281479
v -13.902771 27.819136 -2.355732
v -13.687177 27.819136 -2.355732
v -13.687177 27.819136 4.617510
v -13.687177 27.819136 -2.355732
v -13.687177 27.819136 4.401916
v -7.434969 25.188896 -16.812469
v -7.434969 25.188896 -16.726233
v -6.529478 25.188896 -16.812469
v -12.264260 25.188896 -16.941822
v -10.884464 25.188896 -16.941822
v -12.016329 25.188896 -16.941822
v -13.902771 27.237034 4.401916
v -13.687177 27.237034 4.401916
v -13.687177 27.237034 -2.825850
v -13.902771 27.237034 -2.825850
v -1.549272 25.188896 -16.726233
v -1.549272 22.493980 -16.726233
v -7.327173 27.237034 4.401916
v -7.327173 27.237034 -6.284164
v -7.542767 27.237034 -6.284164
v -7.542767 27.237034 4.401916
v -1.182762 25.689754 -16.726233
v -13.687177 25.689754 -16.726233
v -4.308866 27.819136 -2.355732
v -4.093273 27.819136 -2.355732
v -13.320669 17.168821 -16.941822
v -10.884464 25.188896 -16.812469
vt 4.933900 -7.328100
vt 4.933900 -7.171900
vt 0.306500 -7.171900
vt 0.306500 -7.328100
vt -4.344200 -5.328100
vt -4.344200 -5.171900
vt -1.639800 -5.171900
vt -1.639800 -5.328100
vt 1.291000 1.233800
vt 1.291000 1.945500
vt 0.763700 1.945500
vt 0.763700 1.233800
vt 7.274400 -5.171900
vt 7.274400 -5.328100
vt 4.570100 -5.328100
vt 4.570100 -5.171900
vt -1.654600 4.828100
vt -1.654600 4.671900
vt 8.274400 4.671900
vt 8.474800 4.828100
vt 0.724600 1.233800
vt 0.724600 1.945500
vt 0.177700 1.945500
vt 0.177700 1.233800
vt -1.654600 -0.171900
vt -1.654600 -0.328100
vt 8.274400 -0.328100
vt 8.474800 -0.171900
vt -4.880200 -5.328100
vt -4.960300 -5.296900
vt -1.635000 -5.296900
vt -1.635000 -5.328100
vt -4.800100 -7.296900
vt -4.800100 -7.171900
vt -0.052500 -7.171900
vt -0.052500 -7.328100
vt 6.933900 -5.171900
vt 4.570100 -5.171900
vt 4.570100 -5.328100
vt 6.933900 -5.328100
vt -4.880200 -7.328100
vt -4.960300 -7.296900
vt -4.800100 -7.328100
vt -1.635000 -5.171900
vt 4.474800 -5.171900
vt 4.474800 -5.328100
vt 8.274400 1.671900
vt 1.995500 1.671900
vt 1.995500 1.828100
vt 8.274400 1.828100
vt -5.361000 -7.296900
vt -5.361000 -7.171900
vt 4.369800 -5.328100
vt 4.369800 -5.171900
vt 1.565300 -5.171900
vt 1.465100 -5.328100
vt -0.408200 1.945500
vt -0.408200 1.233800
vt 0.138700 1.233800
vt 0.138700 1.945500
vt 1.775000 -2.328100
vt 1.775000 -2.171900
vt -11.140599 -2.171900
vt -11.140599 -2.328100
vt 1.995500 -2.328100
vt 1.995500 -2.171900
vt 8.274400 -2.171900
vt 8.474800 -2.328100
vt -1.013700 3.209000
vt -1.013700 3.052700
vt 1.330100 3.052700
vt 1.330100 3.209000
vt -3.740000 -7.328100
vt -3.740000 -7.171900
vt -5.022000 -7.171900
vt -5.022000 -7.328100
vt -4.960300 -7.296900
vt -2.436300 -7.296900
vt -2.436300 -7.171900
vt -5.361000 -7.171900
vt 1.995500 4.671900
vt 1.995500 4.828100
vt 8.274400 4.828100
vt 8.474800 4.671900
vt -1.439500 -5.328100
vt -1.439500 -5.171900
vt 1.365000 -5.171900
vt 1.465100 -5.328100
vt -4.344200 -5.171900
vt -4.344200 -5.328100
vt -1.639800 -5.328100
vt -1.639800 -5.171900
vt -11.140599 6.828100
vt -11.140599 6.671900
vt 1.775000 6.671900
vt 1.775000 6.828100
vt -1.013700 1.945500
vt 1.330100 1.945500
vt 1.330100 3.052700
vt -1.013700 3.052700
vt -0.052500 -7.324200
vt 0.067700 -7.324200
vt 0.067700 -7.328100
vt -6.003600 -7.171900
vt -6.003600 -7.328100
vt -0.974600 1.945500
vt -0.974600 1.233800
vt -0.447300 1.233800
vt -0.447300 1.945500
vt -0.052500 -7.171900
vt -0.052500 -7.324200
vt -0.052500 -7.328100
vt 2.571700 -7.328100
vt -1.635000 -5.296900
vt -1.635000 -5.171900
vt -1.635000 -5.328100
vt -2.436300 -7.171900
vt -2.436300 -7.296900
vt -2.436300 -7.328100
vt -0.393000 -7.171900
vt -2.436300 -7.328100
vt 1.034300 -7.171900
vt 2.571700 -7.171900
vt 2.571700 -7.328100
vt -5.361000 -5.296900
vt -5.361000 -5.171900
vt -5.361000 -7.296900
vt 1.465100 -5.171900
vt 8.274400 1.671900
vt 8.274400 1.750000
vt 8.274400 1.828100
vt 8.474800 4.671900
vt 8.274400 4.828100
vt -1.654600 4.828100
vt 8.474800 4.828100
vt 8.274400 6.828100
vt 2.064500 6.828100
vt 1.558700 6.828100
vt 8.474800 -0.328100
vt 8.274400 -0.171900
vt -1.654600 -0.171900
vt 8.474800 -0.171900
vt 1.365000 -5.171900
vt -1.439500 -5.171900
vt -1.439500 -5.328100
vt 0.103000 -5.328100
vt 1.465100 -5.328100
vt -1.439500 -5.328100
vt 8.274400 -2.171900
vt 1.558700 -2.171900
vt 1.558700 -2.328100
vt 8.474800 -2.171900
vt 8.474800 -2.328100
vt 2.064500 -2.328100
vt 8.474800 -2.328100
vt 1.558700 -2.328100
vt 8.474800 -0.171900
vt 8.474800 -0.250000
vt 7.673500 -0.250000
vt 8.274400 -0.171900
vt 7.673500 -0.171900
vt 8.274400 1.750000
vt 8.274400 1.671900
vt 8.274400 1.828100
vt 1.565300 -5.171900
vt 4.369800 -5.171900
vt 4.369800 -5.328100
vt 1.465100 -5.171900
vt 8.474800 4.828100
vt 8.274400 4.671900
vt 1.995500 4.671900
vt 8.474800 4.671900
vt 8.474800 -2.171900
vt 2.064500 -2.328100
vt 1.995500 -2.328100
vt 8.474800 -2.328100
vt 0.103000 -5.328100
vt -1.439500 -5.328100
vt 1.465100 -5.328100
vt 8.274400 -0.328100
vt 7.673500 -0.328100
vt 8.474800 -0.328100
vt 2.064500 6.828100
vt 8.474800 6.828100
vt 8.474800 6.671900
vt 1.995500 6.828100
vt 1.995500 6.671900
vt 8.274400 6.671900
vt 1.995500 6.671900
vt 8.474800 6.671900
vt -0.534900 -7.171900
vt -0.534900 -7.234400
vt 0.306500 -7.234400
vt -4.791700 -7.328100
vt -3.740000 -7.328100
vt -5.022000 -7.328100
vt 1.558700 6.671900
vt 8.274400 6.671900
vt 8.274400 6.828100
vt 1.558700 6.828100
vt 0.067700 -7.171900
vt 2.571700 -7.171900
vt -1.654600 1.828100
vt -1.654600 1.671900
vt 8.274400 1.671900
vt 8.274400 1.828100
vt -0.974600 -0.658200
vt 1.291000 -0.658200
vt 1.995500 -0.328100
vt 1.995500 -0.171900
vt -4.880200 -7.328100
vt -3.740000 -7.234400
vn 0.0000 -1.0000 0.0000
vn 0.0000 1.0000 0.0000
vn 0.0000 -0.9892 0.1466
vn 1.0000 0.0000 0.0000
vn -1.0000 0.0000 0.0000
vn 0.0000 -0.9893 0.1458
vn 0.0000 -0.9162 -0.4008
vn -0.0554 0.7996 -0.5980
vn -0.0551 0.7959 -0.6029
vn -0.5334 0.8273 0.1763
vn -0.5325 0.8260 0.1846
vn -0.4571 0.6794 -0.5740
vn -0.4552 0.6765 -0.5789
vn -0.2567 0.9541 0.1542
vn 0.0000 0.0000 -1.0000
vn -0.2637 0.9522 0.1539
vn 0.0000 0.0000 1.0000
vn -0.3597 0.9092 -0.2098
vn -0.3634 0.9185 0.1557
vn -0.4500 0.8816 0.1425
vn -0.1523 0.9630 -0.2222
vn -0.1541 0.9742 0.1651
vn -0.0350 0.9853 0.1670
vn -0.2518 0.9559 0.1513
vn -0.2587 0.9541 0.1510
vn -0.1510 0.9752 0.1619
vn -0.3375 0.7811 -0.5253
vn -0.3746 0.7694 -0.5175
usemtl GXWOOD02WHITE
s 1
f 3/1/1 2/2/1 1/3/1
f 3/1/1 1/3/1 4/4/1
f 7/5/2 6/6/2 5/7/2
f 7/5/2 5/7/2 8/8/2
f 11/9/3 10/10/3 9/11/3
f 11/9/3 9/11/3 12/12/3
f 15/13/2 14/14/2 13/15/2
f 15/13/2 13/15/2 16/16/2
f 19/17/1 18/18/1 17/19/1
f 19/17/1 17/19/1 20/20/1
f 23/21/3 22/22/3 21/23/3
f 23/21/3 21/23/3 24/24/3
f 27/25/1 26/26/1 25/27/1
f 27/25/1 25/27/1 28/28/1
f 31/29/4 30/30/4 29/31/4
f 31/29/4 29/31/4 32/32/4
f 35/33/5 34/34/5 33/35/5
f 35/33/5 33/35/5 36/36/5
f 39/37/1 38/38/1 37/39/1
f 39/37/1 37/39/1 40/40/1
f 42/41/5 41/42/5 35/33/5
f 42/41/5 35/33/5 43/43/5
f 46/44/4 45/45/4 44/46/4
f 46/44/4 44/46/4 32/32/4
f 49/47/2 48/48/2 47/49/2
f 49/47/2 47/49/2 50/50/2
f 41/42/5 52/51/5 51/52/5
f 41/42/5 51/52/5 34/34/5
f 55/53/1 54/54/1 53/55/1
f 55/53/1 53/55/1 56/56/1
f 59/57/3 58/58/3 57/59/3
f 59/57/3 57/59/3 60/60/3
f 63/61/6 62/62/6 61/63/6
f 63/61/6 61/63/6 64/64/6
f 67/65/2 66/66/2 65/67/2
f 67/65/2 65/67/2 68/68/2
f 71/69/7 70/70/7 69/71/7
f 71/69/7 69/71/7 72/72/7
f 75/73/1 74/74/1 73/75/1
f 75/73/1 73/75/1 76/76/1
f 79/77/4 78/78/4 77/79/4
f 79/77/4 77/79/4 80/80/4
f 83/81/2 82/82/2 81/83/2
f 83/81/2 81/83/2 84/84/2
f 87/85/2 86/86/2 85/87/2
f 87/85/2 85/87/2 88/88/2
f 91/89/1 90/90/1 89/91/1
f 91/89/1 89/91/1 92/92/1
f 95/93/6 94/94/6 93/95/6
f 95/93/6 93/95/6 96/96/6
f 99/97/3 98/98/3 97/99/3
f 99/97/3 97/99/3 100/100/3
f 36/36/5 102/101/5 101/102/5
f 36/36/5 101/102/5 103/103/5
f 73/75/1 105/104/1 104/105/1
f 73/75/1 104/105/1 76/76/1
f 108/106/3 107/107/3 106/108/3
f 108/106/3 106/108/3 109/109/3
f 35/33/5 41/42/5 34/34/5
f 112/110/8 111/111/2 110/112/9
f 43/43/5 35/33/5 36/36/5
f 103/103/5 101/102/5 113/113/5
f 116/114/2 115/115/10 114/116/11
f 119/117/12 118/118/1 117/119/13
f 121/120/4 77/79/4 120/121/4
f 122/122/4 121/120/4 120/121/4
f 123/123/4 122/122/4 120/121/4
f 124/124/4 123/123/4 120/121/4
f 126/125/4 125/126/4 46/44/4
f 30/30/4 126/125/4 46/44/4
f 29/31/4 30/30/4 46/44/4
f 127/127/4 79/77/4 80/80/4
f 53/55/1 128/128/1 56/56/1
f 131/129/14 130/130/15 129/131/16
f 17/19/1 132/132/1 20/20/1
f 135/133/17 134/134/18 133/135/19
f 138/136/20 137/137/2 136/138/2
f 25/27/1 139/139/1 28/28/1
f 142/140/17 141/141/21 140/142/22
f 145/143/1 144/144/1 143/145/1
f 128/128/1 145/143/1 143/145/1
f 56/56/1 128/128/1 143/145/1
f 148/146/17 147/147/17 146/148/22
f 151/149/1 150/150/1 149/151/1
f 152/152/1 151/149/1 149/151/1
f 153/153/1 152/152/1 149/151/1
f 156/154/1 155/155/23 154/156/1
f 159/157/2 158/158/2 157/159/2
f 160/160/2 159/157/2 157/159/2
f 161/161/2 160/160/2 157/159/2
f 164/162/15 163/163/24 162/164/25
f 167/165/2 166/166/2 165/167/2
f 168/168/2 167/165/2 165/167/2
f 88/88/2 168/168/2 165/167/2
f 81/83/2 169/169/2 84/84/2
f 172/170/17 171/171/17 170/172/17
f 65/67/2 173/173/2 68/68/2
f 176/174/17 175/175/17 174/176/17
f 85/87/2 168/168/2 88/88/2
f 179/177/17 178/178/26 177/179/17
f 181/180/2 180/181/2 157/159/2
f 182/182/2 181/180/2 157/159/2
f 158/158/2 182/182/2 157/159/2
f 185/183/2 184/184/2 183/185/2
f 186/186/2 185/183/2 183/185/2
f 187/187/2 186/186/2 183/185/2
f 190/188/17 189/189/17 188/190/17
f 1/3/1 192/191/1 191/192/1
f 1/3/1 191/192/1 193/193/1
f 196/194/17 195/195/27 194/196/28
f 199/197/1 198/198/1 197/199/1
f 199/197/1 197/199/1 200/200/1
f 101/102/5 202/201/5 201/202/5
f 101/102/5 201/202/5 113/113/5
f 205/203/1 204/204/1 203/205/1
f 205/203/1 203/205/1 206/206/1
f 107/107/3 208/207/3 207/208/3
f 107/107/3 207/208/3 11/9/3
f 210/209/2 209/210/2 161/161/2
f 210/209/2 161/161/2 180/181/2
f 78/78/4 79/77/4 211/211/4
f 78/78/4 211/211/4 120/121/4
f 191/192/1 192/191/1 74/74/1
f 191/192/1 74/74/1 212/212/1
