# Blender v3.1.2 OBJ File: 'TheBedRoom.blend'
# www.blender.org
mtllib dresserDisplay.mtl
o bedroom#2.012_Mesh.010
v -12.619991 23.006107 -12.770094
v -12.619991 22.984547 -12.770094
v -12.619991 22.984547 -12.748533
v -12.619991 23.006107 -12.748533
v -12.619991 23.006107 -12.748533
v -12.619991 22.984547 -12.748533
v -12.695448 22.984547 -12.748533
v -12.695448 23.006107 -12.748533
v -13.557821 22.558748 -11.783755
v -12.442127 22.558748 -12.080196
v -12.415176 22.062895 -11.972399
v -13.530874 22.062895 -11.675958
v -12.695448 22.984547 -12.770094
v -12.619991 22.984547 -12.770094
v -12.619991 23.006107 -12.770094
v -12.695448 23.006107 -12.770094
v -12.695448 22.984547 -12.748533
v -12.619991 22.984547 -12.748533
v -12.619991 22.984547 -12.770094
v -12.695448 22.984547 -12.770094
v -12.619991 23.006107 -12.770094
v -12.619991 23.006107 -12.748533
v -12.695448 23.006107 -12.748533
v -12.695448 23.006107 -12.770094
vt 11.812500 -0.544900
vt 11.843800 -0.544900
vt 11.843800 -0.576200
vt 11.812500 -0.576200
vt -9.750000 -0.693400
vt -9.640600 -0.693400
vt -9.640600 -0.724600
vt -9.750000 -0.724600
vt -3.896700 0.984400
vt -3.895300 0.625000
vt -4.732000 0.625000
vt -4.733300 0.984400
vt -9.828100 -0.576200
vt -9.828100 -0.544900
vt -9.937500 -0.544900
vt -9.937500 -0.576200
vt -9.671900 -10.880899
vt -9.671900 -10.849600
vt -9.781300 -10.849600
vt -9.781300 -10.880899
vt -9.750000 -10.865200
vt -9.640600 -10.865200
vt -9.640600 -10.896500
vt -9.750000 -10.896500
vn 1.0000 0.0000 0.0000
vn 0.0000 0.0000 1.0000
vn 0.2506 0.2186 0.9431
vn 0.0000 0.0000 -1.0000
vn 0.0000 -1.0000 0.0000
vn 0.0000 1.0000 0.0000
usemtl STOVETOP#2
s 1
f 3/1/1 2/2/1 1/3/1
f 3/1/1 1/3/1 4/4/1
f 7/5/2 6/6/2 5/7/2
f 7/5/2 5/7/2 8/8/2
f 11/9/3 10/10/3 9/11/3
f 11/9/3 9/11/3 12/12/3
f 15/13/4 14/14/4 13/15/4
f 15/13/4 13/15/4 16/16/4
f 19/17/5 18/18/5 17/19/5
f 19/17/5 17/19/5 20/20/5
f 23/21/6 22/22/6 21/23/6
f 23/21/6 21/23/6 24/24/6
