# Blender v3.1.2 OBJ File: 'TheBedRoom.blend'
# www.blender.org
mtllib dresserLampMetal.mtl
o bedroom#2.007_Mesh.005
v -13.200360 22.003597 -12.823994
v -13.192012 22.003597 -12.867110
v -13.859653 22.003597 -12.867110
v -13.859653 22.003597 -12.823994
v -12.846363 22.876751 -12.823994
v -12.846363 22.211239 -12.823994
v -12.781687 22.208412 -12.845554
v -12.781687 22.876751 -12.845554
v -12.867924 22.208412 -12.759315
v -12.857359 22.209797 -12.791018
v -12.857359 22.731224 -12.791018
v -12.867924 22.731224 -12.759315
v -12.717008 22.876751 -12.694638
v -12.717008 22.731224 -12.694638
v -12.781687 22.731224 -12.673078
v -12.781687 22.876751 -12.673078
v -13.200360 21.998207 -12.823994
v -13.200360 22.100613 -12.823994
v -13.212872 22.100613 -12.759315
v -13.212872 21.998207 -12.759315
v -12.717008 22.876751 -12.823994
v -12.717008 22.731224 -12.823994
v -12.695448 22.731224 -12.759315
v -12.695448 22.876751 -12.759315
v -12.614601 22.100613 -12.360467
v -12.474466 22.100613 -12.452093
v -12.474466 22.062883 -12.452093
v -12.526578 22.062883 -12.418024
v -13.191313 22.003597 -12.870707
v -13.200360 22.003597 -12.823994
v -13.191313 21.998207 -12.870707
v -13.212872 22.100613 -12.759315
v -13.180534 22.100613 -12.592230
v -13.180534 21.998207 -12.592230
v -13.212872 21.998207 -12.759315
v -12.706020 22.731224 -12.727614
v -12.706020 22.209797 -12.727614
v -12.717008 22.206997 -12.694638
v -12.717008 22.731224 -12.694638
v -13.859653 22.003597 -12.867110
v -13.192012 22.003597 -12.867110
v -13.192012 22.025158 -12.867110
v -13.881212 22.025158 -12.867110
v -13.881212 22.025158 -12.823994
v -13.881212 22.025158 -12.867110
v -13.192012 22.025158 -12.867110
v -13.200360 22.025158 -12.823994
v -12.781687 22.100613 -12.328128
v -12.614601 22.100613 -12.360467
v -12.614601 21.998207 -12.360467
v -12.781687 21.998207 -12.328128
v -12.867924 22.876751 -12.759315
v -12.846363 22.876751 -12.823994
v -12.781687 22.876751 -12.845554
v -12.781687 22.876751 -12.673078
v -12.474466 22.100613 -13.066535
v -12.614601 22.100613 -13.158165
v -12.614601 21.998207 -13.158165
v -12.474466 21.998207 -13.066535
v -12.382837 22.100613 -12.926400
v -12.474466 22.100613 -13.066535
v -12.474466 21.998207 -13.066535
v -12.382837 21.998207 -12.926400
v -12.382837 21.998207 -12.592230
v -12.382837 22.100613 -12.592230
v -12.350499 22.100613 -12.759315
v -12.350499 21.998207 -12.759315
v -13.088904 21.998207 -13.066535
v -13.088904 22.100613 -13.066535
v -13.180534 22.100613 -12.926400
v -13.180534 21.998207 -12.926400
v -13.881212 21.313698 -12.867110
v -13.859653 21.313698 -12.867110
v -13.180534 21.998207 -12.592230
v -13.180534 22.100613 -12.592230
v -13.088904 22.100613 -12.452093
v -13.088904 21.998207 -12.452093
v -13.191313 22.025158 -12.870707
v -13.191313 22.100613 -12.870707
v -13.200360 22.025158 -12.823994
v -12.350499 22.100613 -12.759315
v -12.382837 22.100613 -12.926400
v -12.382837 21.998207 -12.926400
v -12.350499 21.998207 -12.759315
v -12.948770 21.998207 -12.360467
v -12.948770 22.100613 -12.360467
v -12.781687 22.100613 -12.328128
v -12.781687 21.998207 -12.328128
v -12.614601 21.998207 -13.158165
v -12.614601 22.100613 -13.158165
v -12.781687 22.100613 -13.190502
v -12.781687 21.998207 -13.190502
v -12.846363 22.206987 -12.823994
v -12.813387 22.209797 -12.834988
v -12.695448 22.876751 -12.759315
v -12.695448 22.731224 -12.759315
v -12.717008 22.876751 -12.694638
v -12.846363 22.876751 -12.694638
v -12.695448 22.876751 -12.759315
v -12.717008 22.876751 -12.694638
v -13.881212 22.025158 -12.823994
v -13.881212 21.313698 -12.823994
v -13.881212 21.313698 -12.867110
v -13.881212 22.025158 -12.867110
v -12.813387 22.209797 -12.683642
v -12.846363 22.206987 -12.694638
v -12.846363 22.731224 -12.694638
v -12.813387 22.731224 -12.683642
v -12.857359 22.731224 -12.727614
v -12.857359 22.209797 -12.727614
v -12.867924 22.208412 -12.759315
v -12.867924 22.731224 -12.759315
v -12.614601 22.062883 -12.360467
v -12.781687 22.208412 -12.673078
v -12.781687 22.731224 -12.673078
v -12.706013 22.731224 -12.791018
v -12.706013 22.209797 -12.791018
v -12.695448 22.208412 -12.759315
v -12.695448 22.208412 -12.759315
v -12.781687 22.208412 -12.845554
v -12.749985 22.209797 -12.834988
v -12.749985 22.731224 -12.834988
v -12.781687 22.731224 -12.845554
v -12.717008 22.206997 -12.823994
v -12.867924 22.876751 -12.759315
v -12.846363 22.731224 -12.823994
v -12.846363 22.876751 -12.823994
v -12.474466 21.998207 -12.452093
v -12.614601 21.998207 -12.360467
v -12.846363 22.206987 -12.694638
v -12.846363 22.731224 -12.694638
v -12.717008 22.206997 -12.694638
v -12.749985 22.209797 -12.683642
v -12.749985 22.731224 -12.683642
v -13.192012 22.025158 -12.867110
v -13.192012 22.003597 -12.867110
v -12.781687 22.100613 -13.190502
v -12.948770 22.100613 -13.158165
v -12.948770 21.998207 -13.158165
v -12.781687 21.998207 -13.190502
v -13.859653 21.313698 -12.823994
v -13.881212 21.313698 -12.823994
v -13.881212 22.025158 -12.823994
v -13.859653 22.003597 -12.823994
v -12.781687 22.876751 -12.673078
v -12.846363 22.876751 -12.694638
v -13.881212 21.313698 -12.867110
v -13.881212 21.313698 -12.823994
v -13.859653 21.313698 -12.823994
v -13.859653 21.313698 -12.867110
v -13.088904 21.998207 -12.452093
v -13.088904 22.100613 -12.452093
v -12.948770 22.100613 -12.360467
v -12.948770 21.998207 -12.360467
v -12.867924 22.876751 -12.759315
v -12.846363 22.876751 -12.694638
v -12.781687 22.876751 -12.845554
v -12.717008 22.731224 -12.823994
v -12.717008 22.876751 -12.823994
v -13.200360 22.025158 -12.823994
v -13.200360 22.003597 -12.823994
v -12.717008 22.876751 -12.823994
v -13.859653 21.313698 -12.867110
v -13.859653 21.313698 -12.823994
v -13.859653 22.003597 -12.823994
v -13.859653 22.003597 -12.867110
v -12.781687 22.208412 -12.673078
v -12.474466 22.100613 -12.452093
v -12.382837 22.100613 -12.592230
v -12.382837 21.998207 -12.592230
v -12.474466 21.998207 -12.452093
v -12.717008 22.206997 -12.823994
v -12.846363 22.206987 -12.823994
v -13.180534 22.100613 -12.926400
v -13.180534 21.998207 -12.926400
v -12.948770 21.998207 -13.158165
v -12.948770 22.100613 -13.158165
v -13.088904 22.100613 -13.066535
v -13.088904 21.998207 -13.066535
vt -10.968800 -10.593800
vt -10.000999 -10.593800
vt -10.013100 -10.531300
vt -10.968800 -10.531300
vt 6.438200 0.921900
vt 6.561800 0.916800
vt 6.561800 -0.289100
vt 6.438200 -0.289100
vt -9.498799 -0.025400
vt -9.498799 0.919400
vt -9.438200 0.921900
vt -9.438200 -0.025400
vt -6.561800 -0.025400
vt -6.438200 -0.025400
vt -6.438200 -0.289100
vt -6.561800 -0.289100
vt -39.000000 0.206500
vt -39.387100 0.206500
vt -39.387100 0.471500
vt -39.000000 0.471500
vt 17.438200 -0.025400
vt 17.561800 -0.025400
vt 17.561800 -0.289100
vt 17.438200 -0.289100
vt -6.000000 0.304100
vt -6.000000 0.206500
vt -7.000000 0.206500
vt -6.371900 0.304100
vt -39.387100 0.457600
vt -39.666698 0.457600
vt -39.666698 0.471500
vt -54.000000 0.471500
vt -54.000000 0.206500
vt -55.000000 0.206500
vt -55.000000 0.471500
vt 9.438200 0.924400
vt 9.501200 0.919400
vt 9.501200 -0.025400
vt 9.438200 -0.025400
vt -10.000999 1.523400
vt -10.000999 1.554700
vt -10.968800 1.554700
vt -11.000000 1.523400
vt -10.000999 -10.531300
vt -11.000000 -10.531300
vt -11.000000 -10.468800
vt -10.013100 -10.468800
vt -29.000000 0.471500
vt -29.000000 0.206500
vt -30.000000 0.206500
vt -30.000000 0.471500
vt -11.500000 -13.312500
vt -11.617200 -13.273399
vt -11.656300 -13.156199
vt -11.500000 -13.000000
vt 61.000000 0.471500
vt 61.000000 0.206500
vt 60.000000 0.206500
vt 60.000000 0.471500
vt 63.000000 0.471500
vt 63.000000 0.206500
vt 62.000000 0.206500
vt 62.000000 0.471500
vt 40.000000 0.206500
vt 39.000000 0.206500
vt 39.000000 0.471500
vt 40.000000 0.471500
vt -18.000000 0.206500
vt -19.000000 0.206500
vt -19.000000 0.471500
vt -18.000000 0.471500
vt -10.968800 2.554700
vt -11.000000 2.554700
vt -62.000000 0.206500
vt -63.000000 0.206500
vt -63.000000 0.471500
vt -62.000000 0.471500
vt -39.666698 0.206500
vt -39.666698 0.401800
vt -39.387100 0.401800
vt 55.000000 0.471500
vt 55.000000 0.206500
vt 54.000000 0.206500
vt 54.000000 0.471500
vt -48.000000 0.206500
vt -49.000000 0.206500
vt -49.000000 0.471500
vt -48.000000 0.471500
vt 48.000000 0.206500
vt 47.000000 0.206500
vt 47.000000 0.471500
vt 48.000000 0.471500
vt 6.498800 0.919400
vt 6.561800 0.924400
vt 9.561800 -0.025400
vt 9.561800 -0.289100
vt 9.438200 -0.289100
vt -11.617200 -13.039100
vt -11.382800 -13.039100
vt -11.343800 -13.156300
vt -1.015600 -10.531300
vt -1.015600 -10.468800
vt 0.015600 -10.468800
vt 0.015600 -10.531300
vt -15.561800 -0.025400
vt -15.561800 0.924400
vt -15.498799 0.919400
vt -15.498799 -0.025400
vt -17.561800 0.921900
vt -17.501200 0.919400
vt -17.501200 -0.025400
vt -17.561800 -0.025400
vt -7.000000 0.304100
vt -15.438200 0.921900
vt -15.438200 -0.025400
vt 17.438200 0.921900
vt 17.498800 0.919400
vt 17.498800 -0.025400
vt 9.561800 0.921900
vt 15.501200 -0.025400
vt 15.501200 0.919400
vt 15.561800 0.921900
vt 15.561800 -0.025400
vt 17.561800 0.924400
vt -9.561800 -0.025400
vt -9.438200 -0.289100
vt -9.561800 -0.289100
vt -6.000000 0.471500
vt -7.000000 0.471500
vt -17.438200 0.924400
vt -17.438200 -0.025400
vt -6.501200 0.919400
vt -6.438200 0.924400
vt -6.501200 -0.025400
vt -39.645199 0.457600
vt -39.645199 0.401800
vt 30.000000 0.471500
vt 30.000000 0.206500
vt 29.000000 0.206500
vt 29.000000 0.471500
vt -11.000000 1.523400
vt -11.000000 2.554700
vt -10.968800 2.554700
vt -10.968800 1.554700
vt -15.438200 -0.289100
vt -15.561800 -0.289100
vt 12.500000 12.937500
vt 12.500000 12.968800
vt 12.562500 12.968800
vt 12.562500 12.937500
vt -60.000000 0.206500
vt -61.000000 0.206500
vt -61.000000 0.471500
vt -60.000000 0.471500
vt -17.561800 -0.289100
vt -17.438200 -0.289100
vt 15.438200 -0.025400
vt 15.561800 -0.289100
vt 15.438200 -0.289100
vt -10.013100 1.554700
vt -10.013100 1.523400
vt -11.382800 -13.273399
vt 0.523400 -10.531300
vt 1.523400 -10.531300
vt 1.523400 -10.593800
vt 0.523400 -10.593800
vt -6.561800 0.921900
vt 19.000000 0.471500
vt 19.000000 0.206500
vt 18.000000 0.206500
vt 18.000000 0.471500
vt 15.438200 0.924400
vt -9.561800 0.924400
vt -40.000000 0.206500
vt -40.000000 0.471500
vt 7.000000 0.206500
vt 6.000000 0.206500
vt 6.000000 0.471500
vt 7.000000 0.471500
vn 0.0000 -1.0000 0.0000
vn -0.3163 0.0000 -0.9487
vn -0.9487 0.0000 -0.3162
vn -0.9487 0.0000 -0.3161
vn 0.3162 0.0000 0.9487
vn 0.3163 0.0000 0.9487
vn -0.9818 0.0000 -0.1899
vn -0.9818 0.0000 -0.1900
vn 0.9487 0.0000 -0.3162
vn 0.9487 0.0000 -0.3163
vn 0.5472 -0.0000 0.8370
vn 0.5473 -0.0000 0.8370
vn 0.5472 -0.0002 0.8370
vn -0.9818 0.0000 -0.1901
vn -0.9817 0.0000 -0.1905
vn -0.9818 0.0000 0.1900
vn 0.9487 0.0000 0.3161
vn 0.9487 0.0000 0.3162
vn 0.0000 0.0000 -1.0000
vn 0.0000 1.0000 0.0000
vn 0.1900 0.0000 0.9818
vn 0.5473 0.0000 -0.8370
vn 0.8370 0.0000 -0.5473
vn 0.9818 0.0000 0.1900
vn -0.8370 0.0000 -0.5473
vn -0.8370 0.0000 0.5473
vn -0.8370 0.0000 0.5472
vn -0.9818 0.0000 -0.1902
vn 0.9818 0.0000 -0.1900
vn -0.1900 0.0000 0.9818
vn 0.1900 0.0000 -0.9818
vn 0.9487 0.0000 0.3163
vn -1.0000 0.0000 0.0000
vn -0.3163 0.0000 0.9487
vn -0.3163 0.0000 0.9486
vn -0.3162 0.0000 0.9487
vn -0.9487 0.0000 0.3162
vn -0.9487 0.0000 0.3163
vn 0.9487 0.0000 -0.3161
vn 0.9486 0.0000 0.3164
vn 0.3162 0.0000 -0.9487
vn 0.3163 0.0000 -0.9487
vn -0.9487 0.0000 -0.3163
vn -0.9816 0.0000 -0.1908
vn -0.1900 0.0000 -0.9818
vn 0.0000 0.0000 1.0000
vn -0.5472 0.0000 0.8370
vn 1.0000 0.0000 0.0000
vn 0.3161 0.0000 0.9487
vn 0.8370 0.0000 0.5473
vn 0.8370 0.0000 0.5472
vn -0.5473 0.0000 -0.8370
usemtl GOLD#2
s 1
f 3/1/1 2/2/1 1/3/1
f 3/1/1 1/3/1 4/4/1
f 7/5/2 6/6/2 5/7/2
f 7/5/2 5/7/2 8/8/2
f 11/9/3 10/10/3 9/11/4
f 11/9/3 9/11/4 12/12/3
f 15/13/5 14/14/6 13/15/5
f 15/13/5 13/15/5 16/16/5
f 19/17/7 18/18/8 17/19/8
f 19/17/7 17/19/8 20/20/7
f 23/21/9 22/22/10 21/23/9
f 23/21/9 21/23/9 24/24/9
f 27/25/11 26/26/11 25/27/12
f 27/25/11 25/27/12 28/28/13
f 17/19/8 30/29/14 29/30/15
f 17/19/8 29/30/15 31/31/14
f 34/32/16 33/33/16 32/34/16
f 34/32/16 32/34/16 35/35/16
f 38/36/17 37/37/18 36/38/18
f 38/36/17 36/38/18 39/39/18
f 42/40/19 41/41/19 40/42/19
f 42/40/19 40/42/19 43/43/19
f 46/44/20 45/45/20 44/46/20
f 46/44/20 44/46/20 47/47/20
f 50/48/21 49/49/21 48/50/21
f 50/48/21 48/50/21 51/51/21
f 54/52/20 53/53/20 52/54/20
f 54/52/20 52/54/20 55/55/20
f 58/56/22 57/57/22 56/58/22
f 58/56/22 56/58/22 59/59/22
f 62/60/23 61/61/23 60/62/23
f 62/60/23 60/62/23 63/63/23
f 66/64/24 65/65/24 64/66/24
f 66/64/24 64/66/24 67/67/24
f 70/68/25 69/69/25 68/70/25
f 70/68/25 68/70/25 71/71/25
f 73/72/19 72/73/19 43/43/19
f 73/72/19 43/43/19 40/42/19
f 76/74/26 75/75/26 74/76/26
f 76/74/26 74/76/26 77/77/27
f 18/18/8 79/78/14 78/79/15
f 18/18/8 78/79/15 80/80/28
f 83/81/29 82/82/29 81/83/29
f 83/81/29 81/83/29 84/84/29
f 87/85/30 86/86/30 85/87/30
f 87/85/30 85/87/30 88/88/30
f 91/89/31 90/90/31 89/91/31
f 91/89/31 89/91/31 92/92/31
f 94/93/2 93/94/2 6/6/2
f 39/39/18 96/95/32 95/96/18
f 39/39/18 95/96/18 97/97/18
f 52/54/20 98/98/20 55/55/20
f 100/99/20 99/100/20 55/55/20
f 103/101/33 102/102/33 101/103/33
f 103/101/33 101/103/33 104/104/33
f 107/105/34 106/106/35 105/107/36
f 107/105/34 105/107/36 108/108/34
f 111/109/37 110/110/38 109/111/37
f 111/109/37 109/111/37 112/112/37
f 25/27/12 113/113/12 28/28/13
f 108/108/34 105/107/36 114/114/36
f 108/108/34 114/114/36 115/115/36
f 118/116/39 117/117/9 116/118/9
f 118/116/39 116/118/9 23/21/9
f 36/38/18 37/37/18 119/119/40
f 36/38/18 119/119/40 96/95/32
f 122/120/41 121/121/42 120/122/41
f 122/120/41 120/122/41 123/123/41
f 117/117/9 124/124/10 22/22/10
f 117/117/9 22/22/10 116/118/9
f 126/125/43 12/12/3 125/126/3
f 126/125/43 125/126/3 127/127/3
f 128/128/11 27/25/11 113/113/12
f 128/128/11 113/113/12 129/129/12
f 109/111/37 110/110/38 130/130/38
f 109/111/37 130/130/38 131/131/38
f 133/132/5 132/133/6 14/14/6
f 133/132/5 14/14/6 134/134/5
f 29/30/15 136/135/44 135/136/44
f 29/30/15 135/136/44 78/79/15
f 139/137/45 138/138/45 137/139/45
f 139/137/45 137/139/45 140/140/45
f 143/141/46 142/142/46 141/143/46
f 143/141/46 141/143/46 144/144/46
f 107/105/34 115/115/36 145/145/36
f 107/105/34 145/145/36 146/146/36
f 149/147/1 148/148/1 147/149/1
f 149/147/1 147/149/1 150/150/1
f 153/151/47 152/152/47 151/153/47
f 153/151/47 151/153/47 154/154/47
f 155/155/38 112/112/37 131/131/38
f 155/155/38 131/131/38 156/156/37
f 158/157/42 123/123/41 157/158/41
f 158/157/42 157/158/41 159/159/41
f 144/144/46 161/160/46 160/161/46
f 144/144/46 160/161/46 143/141/46
f 99/100/20 162/162/20 54/52/20
f 99/100/20 54/52/20 55/55/20
f 165/163/48 164/164/48 163/165/48
f 165/163/48 163/165/48 166/166/48
f 167/167/49 133/132/5 134/134/5
f 167/167/49 134/134/5 15/13/5
f 170/168/50 169/169/50 168/170/51
f 170/168/50 168/170/51 171/171/51
f 172/172/42 121/121/42 122/120/41
f 172/172/42 122/120/41 158/157/42
f 126/125/43 173/173/43 10/10/3
f 126/125/43 10/10/3 11/9/3
f 31/31/14 79/78/14 174/174/8
f 31/31/14 174/174/8 175/175/8
f 178/176/52 177/177/52 176/178/52
f 178/176/52 176/178/52 179/179/52
