# Blender v3.1.2 OBJ File: ''
# www.blender.org
mtllib LAMPSHADE.mtl
o bedroom#2.006_Mesh.005
v -3.800730 4.562857 6.066882
v -3.719883 4.562857 5.813557
v -3.719883 5.295872 5.813557
v -3.800730 5.295872 6.066882
v -2.938356 4.562857 6.066882
v -3.019204 4.562857 6.320204
v -3.019204 5.295872 6.320204
v -2.938356 5.295872 6.066882
v -3.240187 4.562857 5.657255
v -3.019204 4.562857 5.813557
v -3.019204 5.295872 5.813557
v -3.240187 5.295872 5.657255
v -3.504291 4.562857 6.476508
v -3.719883 4.562857 6.320204
v -3.719883 5.295872 6.320204
v -3.504291 5.295872 6.476508
v -3.019204 5.295872 5.813557
v -3.019204 4.562857 5.813557
v -2.938356 4.562857 6.066882
v -2.938356 5.295872 6.066882
v -3.234797 4.562857 6.476508
v -3.504291 4.562857 6.476508
v -3.504291 5.295872 6.476508
v -3.234797 5.295872 6.476508
v -3.719883 5.295872 6.320204
v -3.719883 4.562857 6.320204
v -3.800730 4.562857 6.066882
v -3.800730 5.295872 6.066882
v -3.719883 5.295872 5.813557
v -3.719883 4.562857 5.813557
v -3.498898 4.562857 5.657255
v -3.498898 5.295872 5.657255
v -3.498898 4.562857 5.657255
v -3.240187 4.562857 5.657255
v -3.240187 5.295872 5.657255
v -3.498898 5.295872 5.657255
v -3.019204 4.562857 6.320204
v -3.234797 4.562857 6.476508
v -3.234797 5.295872 6.476508
v -3.019204 5.295872 6.320204
vt 34.964699 -3.975700
vt 34.964699 -1.024300
vt 36.035297 -1.024300
vt 36.035297 -3.975700
vt -36.035297 -3.975700
vt -36.035297 -1.024300
vt -34.964699 -1.024300
vt -34.964699 -3.975700
vt 9.963900 -3.975700
vt 9.963900 -1.024300
vt 11.053599 -1.024300
vt 11.053599 -3.975700
vt -11.036099 -3.975700
vt -11.036099 -1.024300
vt -9.963900 -1.024300
vt -9.963900 -3.975700
vt -16.035299 -1.024300
vt -14.964700 -1.024300
vt -14.964700 -3.975700
vt -16.035299 -3.975700
vt -33.031700 -3.975700
vt -33.031700 -1.024300
vt -31.946600 -1.024300
vt -31.946600 -3.975700
vt 14.964700 -1.024300
vt 16.035299 -1.024300
vt 16.035299 -3.975700
vt 14.964700 -3.975700
vt 41.955097 -1.024300
vt 43.044899 -1.024300
vt 43.044899 -3.975700
vt 41.955097 -3.975700
vt 31.990000 -3.975700
vt 31.990000 -1.024300
vt 33.031700 -1.024300
vt 33.031700 -3.975700
vt -43.027199 -3.975700
vt -43.027199 -1.024300
vt -41.955097 -1.024300
vt -41.955097 -3.975700
vn -0.9527 0.0000 -0.3040
vn 0.9527 0.0000 0.3040
vn 0.5775 0.0000 -0.8164
vn -0.5870 0.0000 0.8096
vn 0.9527 0.0000 -0.3040
vn 0.0000 0.0000 1.0000
vn -0.9527 0.0000 0.3040
vn -0.5775 0.0000 -0.8164
vn 0.0000 0.0000 -1.0000
vn 0.5870 0.0000 0.8096
usemtl LAMPSHADE
s 1
f 3/1/1 2/2/1 1/3/1
f 3/1/1 1/3/1 4/4/1
f 7/5/2 6/6/2 5/7/2
f 7/5/2 5/7/2 8/8/2
f 11/9/3 10/10/3 9/11/3
f 11/9/3 9/11/3 12/12/3
f 15/13/4 14/14/4 13/15/4
f 15/13/4 13/15/4 16/16/4
f 19/17/5 18/18/5 17/19/5
f 19/17/5 17/19/5 20/20/5
f 23/21/6 22/22/6 21/23/6
f 23/21/6 21/23/6 24/24/6
f 27/25/7 26/26/7 25/27/7
f 27/25/7 25/27/7 28/28/7
f 31/29/8 30/30/8 29/31/8
f 31/29/8 29/31/8 32/32/8
f 35/33/9 34/34/9 33/35/9
f 35/33/9 33/35/9 36/36/9
f 39/37/10 38/38/10 37/39/10
f 39/37/10 37/39/10 40/40/10
