# Blender v3.1.2 OBJ File: ''
# www.blender.org
mtllib TTCEMENTBLUE01.mtl
o bedroom#2.002_Mesh.199
v -2.690424 4.347260 5.727322
v -2.393983 4.347260 6.843016
v -2.431711 4.347260 6.853796
v -2.728150 4.347260 5.738101
v -3.380322 5.171908 6.153119
v -3.358761 5.171908 6.153119
v -3.358761 4.843127 6.153119
v -3.380322 4.843127 6.153119
v -3.380322 5.161128 5.991423
v -3.380322 4.843127 5.991423
v -3.380322 4.843127 5.980643
v -3.380322 5.171908 5.980643
v -3.358761 4.843127 6.142337
v -3.358761 5.161128 6.142337
v -3.380322 5.161128 6.142337
v -3.380322 4.843127 6.142337
v -2.329306 3.851395 6.826847
v -2.286186 3.851407 6.816069
v -2.286186 3.786719 6.816069
v -2.329306 3.786719 6.826847
v -3.380322 4.843127 6.142337
v -3.380322 5.161128 6.142337
v -3.380322 5.171908 6.153119
v -3.380322 4.843127 6.153119
v -2.959913 5.312041 6.077658
v -3.358761 5.312041 6.077658
v -3.358761 5.322823 6.077658
v -2.959913 5.322823 6.077658
v -2.835949 3.851395 5.770441
v -2.625745 3.851395 5.711152
v -2.507169 3.851395 6.157429
v -2.507169 3.851395 6.878331
v -3.380322 5.312041 6.077658
v -3.380322 5.312041 6.056102
v -3.779169 5.312041 6.056102
v -3.779169 5.312041 6.077658
v -3.380322 4.843127 5.980643
v -3.358761 4.843127 5.980643
v -3.358761 5.171908 5.980643
v -3.380322 5.171908 5.980643
v -3.380322 5.322823 5.678811
v -3.380322 5.322823 6.056102
v -3.380322 5.312041 6.056102
v -3.380322 5.312041 5.678811
v -2.534118 3.851395 6.886137
v -2.329306 3.851395 6.826847
v -2.329306 3.786719 6.826847
v -2.534118 3.786719 6.886137
v -2.625745 3.851395 5.711152
v -2.835949 3.851395 5.770441
v -2.835949 3.786719 5.770441
v -2.625745 3.786719 5.711152
v -3.380322 5.322823 6.454950
v -3.358761 5.322823 6.454950
v -3.358761 5.312041 6.454950
v -3.380322 5.312041 6.454950
v -3.358761 5.161128 6.142337
v -3.358761 5.161128 5.991423
v -3.380322 5.161128 5.991423
v -3.380322 5.161128 6.142337
v -3.358761 5.322823 6.077658
v -3.358761 5.322823 6.056102
v -2.959913 5.322823 6.056102
v -2.959913 5.322823 6.077658
v -3.779169 5.312041 6.056102
v -3.380322 5.312041 6.056102
v -3.380322 5.322823 6.056102
v -3.779169 5.322823 6.056102
v -2.625745 3.786719 5.711152
v -2.582627 3.786719 5.700371
v -2.582627 3.851407 5.700371
v -2.625745 3.851395 5.711152
v -3.380322 4.843127 5.991423
v -3.380322 5.161128 5.991423
v -3.358761 5.161128 5.991423
v -3.358761 4.843127 5.991423
v -3.380322 5.312041 6.454950
v -3.380322 5.312041 6.077658
v -3.380322 5.322823 6.077658
v -3.380322 5.322823 6.454950
v -2.959913 5.312041 6.056102
v -3.358761 5.312041 6.056102
v -3.358761 5.312041 6.077658
v -2.959913 5.312041 6.077658
v -3.380322 5.171908 6.061491
v -3.380322 5.171908 5.980643
v -3.358761 5.171908 5.980643
v -3.358761 5.171908 6.061491
v -3.358761 5.171908 6.061491
v -3.358761 5.312041 6.061491
v -3.380322 5.312041 6.061491
v -3.380322 5.171908 6.061491
v -2.534118 3.851395 6.886137
v -2.507169 3.851395 6.878331
v -2.507169 3.851407 6.871311
v -2.507169 3.851395 6.157429
v -2.329306 3.851395 6.826847
v -3.358761 5.171908 6.066882
v -3.358761 5.312041 6.061491
v -3.358761 5.171908 6.061491
v -3.358761 5.171908 6.153119
v -3.358761 5.171908 6.066882
v -3.358761 5.171908 5.980643
v -3.358761 5.171908 6.153119
v -3.358761 5.171908 5.980643
v -3.358761 5.161128 5.991423
v -3.358761 5.161128 6.142337
v -3.380322 5.171908 6.066882
v -3.380322 5.312041 6.072272
v -3.380322 5.171908 6.072272
v -3.380322 5.171908 6.153119
v -3.380322 5.171908 5.980643
v -3.380322 5.171908 6.066882
v -3.380322 5.312041 6.454950
v -3.358761 5.312041 6.454950
v -3.358761 5.312041 5.678811
v -3.380322 5.312041 5.678811
v -3.380322 5.312041 6.454950
v -3.380322 5.312041 5.678811
v -3.380322 5.312041 6.056102
v -3.380322 5.312041 6.077658
v -3.380322 5.322823 6.454950
v -3.380322 5.322823 6.077658
v -3.380322 5.322823 6.056102
v -3.380322 5.322823 5.678811
v -3.380322 5.322823 6.454950
v -3.380322 5.322823 5.678811
v -3.358761 5.322823 5.678811
v -3.358761 5.322823 6.454950
v -3.779169 5.312041 6.077658
v -3.779169 5.312041 6.056102
v -3.779169 5.322823 6.056102
v -3.779169 5.322823 6.077658
v -3.369542 4.023871 6.066882
v -3.202458 3.889124 6.465729
v -3.369542 3.889124 6.498066
v -3.369542 4.023871 6.066882
v -3.676763 3.889124 6.374099
v -3.768393 3.889124 6.233964
v -3.369542 3.889124 6.498066
v -3.434222 3.889124 6.485555
v -3.536628 3.889124 6.465729
v -3.369542 3.889124 6.498066
v -3.536628 3.889124 6.465729
v -3.369542 4.023871 6.066882
v -3.369542 4.023871 6.066882
v -3.536628 3.889124 6.465729
v -3.676763 3.889124 6.374099
v -3.369542 4.023871 6.066882
v -2.970695 3.889124 5.899796
v -2.938356 3.889124 6.066882
v -3.369542 4.023871 6.066882
v -2.938356 3.889124 6.066882
v -2.970695 3.889124 6.233964
v -3.369542 4.023871 6.066882
v -3.062321 3.889124 6.374099
v -3.202458 3.889124 6.465729
v -3.369542 4.023871 6.066882
v -2.970695 3.889124 6.233964
v -3.062321 3.889124 6.374099
v -2.970695 3.889124 5.899796
v -3.369542 4.023871 6.066882
v -3.062321 3.889124 5.759661
v -3.369542 4.023871 6.066882
v -3.800730 3.889124 6.066882
v -3.768393 3.889124 5.899796
v -3.369542 4.023871 6.066882
v -3.768393 3.889124 6.233964
v -3.800730 3.889124 6.066882
v -3.369542 4.023871 6.066882
v -3.676763 3.889124 5.759661
v -3.536628 3.889124 5.668032
v -3.369542 4.023871 6.066882
v -3.768393 3.889124 5.899796
v -3.676763 3.889124 5.759661
v -3.369542 3.889124 5.635694
v -3.202458 3.889124 5.668032
v -3.369542 4.023871 6.066882
v -3.369542 4.023871 6.066882
v -3.536628 3.889124 5.668032
v -3.369542 3.889124 5.635694
v -3.369542 4.023871 6.066882
v -3.202458 3.889124 5.668032
v -3.062321 3.889124 5.759661
v -3.358761 5.322823 6.454950
v -3.358761 5.322823 6.077658
v -3.358761 5.312041 6.077658
v -3.358761 5.312041 6.454950
v -3.380322 5.171908 6.061491
v -3.380322 5.312041 6.061491
v -3.358761 5.312041 6.072272
v -3.358761 5.171908 6.072272
v -3.380322 5.171908 6.072272
v -3.380322 5.312041 6.072272
v -3.358761 5.312041 5.678811
v -3.358761 5.312041 6.056102
v -3.358761 5.322823 6.056102
v -3.358761 5.322823 5.678811
v -3.358761 4.843127 5.991423
v -3.358761 4.843127 5.980643
v -2.835949 3.851395 5.770441
v -2.534118 3.851395 6.886137
v -2.534118 3.786719 6.886137
v -2.835949 3.786719 5.770441
v -2.625745 3.851395 5.711152
v -2.582627 3.851407 5.700371
v -2.690424 4.347260 5.727322
v -2.728150 4.347260 5.738101
v -3.358761 5.171908 6.072272
v -3.358761 5.312041 6.072272
v -3.779169 5.322823 6.077658
v -3.380322 5.322823 6.077658
v -3.380322 5.312041 6.077658
v -3.779169 5.312041 6.077658
v -3.779169 5.322823 6.056102
v -3.380322 5.322823 6.056102
v -3.380322 5.322823 6.077658
v -3.779169 5.322823 6.077658
v -3.358761 4.843127 6.142337
v -3.358761 4.843127 6.153119
v -2.431711 4.347260 6.853796
v -2.393983 4.347260 6.843016
v -2.286186 3.851407 6.816069
v -2.329306 3.851395 6.826847
v -3.380322 5.312041 5.678811
v -3.358761 5.312041 5.678811
v -3.358761 5.322823 5.678811
v -3.380322 5.322823 5.678811
v -2.329306 3.851395 6.826847
v -2.625745 3.851395 5.711152
v -2.728150 4.347260 5.738101
v -2.431711 4.347260 6.853796
v -2.959913 5.322823 6.077658
v -2.959913 5.322823 6.056102
v -2.959913 5.312041 6.056102
v -2.959913 5.312041 6.077658
v -2.286186 3.851407 6.816069
v -2.582627 3.851407 5.700371
v -2.582627 3.786719 5.700371
v -2.286186 3.786719 6.816069
v -2.959913 5.322823 6.056102
v -3.358761 5.322823 6.056102
v -3.358761 5.312041 6.056102
v -2.959913 5.312041 6.056102
v -3.358761 5.171908 6.072272
v -3.358761 5.171908 6.153119
v -3.380322 5.171908 6.153119
v -3.380322 5.171908 6.072272
vt -7.154200 -9.539300
vt -7.153400 -9.493500
vt -5.804000 -9.490600
vt -5.804700 -9.536500
vt 11.859400 -0.794900
vt 11.859400 -1.271500
vt 11.890599 -1.271500
vt 11.890599 -0.794900
vt -9.750000 -0.794900
vt -9.765600 -0.794900
vt -9.765600 -1.255900
vt -9.750000 -1.271500
vt 11.890599 -1.255900
vt 11.859400 -1.255900
vt 11.859400 -0.794900
vt 11.890599 -0.794900
vt 9.582300 1.050400
vt 9.582300 0.974800
vt 9.634300 0.974800
vt 9.634300 1.050400
vt -10.000000 -1.271500
vt -9.984400 -1.255900
vt -9.984400 -0.794900
vt -10.000000 -0.794900
vt 11.859400 -1.490200
vt 11.859400 -1.474600
vt 11.281300 -1.474600
vt 11.281300 -1.490200
vt -6.345100 -9.413799
vt -5.805300 -9.412700
vt -5.808600 -9.668000
vt -7.159000 -9.631900
vt 9.484400 -11.093800
vt 9.484400 -10.515600
vt 9.515600 -10.515600
vt 9.515600 -11.093800
vt 11.859400 -1.271500
vt 11.859400 -0.794900
vt 11.890599 -0.794900
vt 11.890599 -1.271500
vt -9.859400 -1.474600
vt -9.859400 -1.490200
vt -9.312500 -1.490200
vt -9.312500 -1.474600
vt 9.634300 1.050400
vt 9.634300 0.974800
vt 9.883500 0.974800
vt 9.883500 1.050400
vt 9.886700 1.050400
vt 9.886700 0.974800
vt 9.631499 0.974800
vt 9.631499 1.050400
vt 2.964800 0.550800
vt 2.964800 0.546900
vt 2.972700 0.546900
vt 2.972700 0.550800
vt -9.765600 -10.896500
vt -9.765600 -10.865200
vt -9.984400 -10.865200
vt -9.984400 -10.896500
vt -9.484400 -9.906300
vt -9.484400 -10.484400
vt -9.515600 -10.484400
vt -9.515600 -9.906300
vt 11.890599 -1.490200
vt 11.890599 -1.474600
vt 12.468800 -1.474600
vt 12.468800 -1.490200
vt 9.579500 0.974800
vt 9.579500 1.050400
vt 9.631499 1.050400
vt 9.631499 0.974800
vt 11.859400 -1.255900
vt 11.890599 -1.255900
vt 11.890599 -0.794900
vt 11.859400 -0.794900
vt -9.890600 -1.490200
vt -9.890600 -1.474600
vt -10.437500 -1.474600
vt -10.437500 -1.490200
vt 9.515600 -10.484400
vt 9.484400 -10.484400
vt 9.484400 -9.906300
vt 9.515600 -9.906300
vt -9.750000 -10.865200
vt -9.750000 -10.896500
vt -9.867200 -10.896500
vt -9.867200 -10.865200
vt 11.890599 -1.474600
vt 11.859400 -1.474600
vt 11.859400 -1.271500
vt 11.890599 -1.271500
vt -7.159700 -9.664700
vt -6.345100 -9.413799
vt -7.151100 -9.629800
vt -7.159000 -9.631900
vt -7.154700 -9.415500
vt 9.867200 -1.271500
vt 9.867200 -1.474600
vt 9.875000 -1.271500
vt -9.750000 -1.271500
vt -9.875000 -1.271500
vt -10.000000 -1.271500
vt -9.765600 -1.255900
vt -9.750000 -1.271500
vt -10.000000 -1.271500
vt -9.984400 -1.255900
vt 9.882800 -1.271500
vt 9.882800 -1.474600
vt 9.875000 -1.271500
vt -9.875000 -1.271500
vt -9.750000 -1.271500
vt -10.000000 -1.271500
vt 10.062500 -10.484400
vt 10.062500 -10.515600
vt 8.937500 -10.484400
vt 8.937500 -10.515600
vt 9.484400 -10.515600
vt 8.937500 -10.515600
vt 10.062500 -10.515600
vt 9.515600 -10.515600
vt -9.484400 -10.515600
vt -9.515600 -10.515600
vt -10.062500 -10.515600
vt -8.937500 -10.515600
vt -8.937500 -10.484400
vt -8.937500 -10.515600
vt -10.062500 -10.515600
vt -10.062500 -10.484400
vt 2.496100 0.453100
vt 2.496100 0.457000
vt 2.503900 0.457000
vt 2.503900 0.453100
vt -8.067400 -8.576200
vt -8.029500 -8.380899
vt -7.563300 -8.576200
vt -7.758600 -9.042500
vt -7.922400 -8.935400
vt -7.563300 -8.576200
vt -8.029500 -8.771500
vt -8.052700 -8.651800
vt -8.067400 -8.576200
vt -7.563300 -8.576200
vt -8.029500 -8.771500
vt -8.067400 -8.576200
vt -7.922400 -8.935400
vt -8.029500 -8.771500
vt -7.563300 -8.576200
vt -7.563300 -8.072200
vt -7.368000 -8.110000
vt -7.563300 -8.576200
vt -7.758600 -8.110000
vt -7.563300 -8.072200
vt -7.563300 -8.576200
vt -8.029500 -8.380899
vt -7.922400 -8.217100
vt -7.563300 -8.576200
vt -7.922400 -8.217100
vt -7.758600 -8.110000
vt -7.563300 -8.576200
vt -7.204200 -8.217100
vt -7.563300 -8.576200
vt -7.368000 -8.110000
vt -7.368000 -9.042500
vt -7.563300 -9.080299
vt -7.563300 -8.576200
vt -7.563300 -9.080299
vt -7.758600 -9.042500
vt -7.563300 -8.576200
vt -7.097100 -8.771500
vt -7.204200 -8.935400
vt -7.563300 -8.576200
vt -7.204200 -8.935400
vt -7.368000 -9.042500
vt -7.563300 -8.576200
vt -7.563300 -8.576200
vt -7.097100 -8.380899
vt -7.059300 -8.576200
vt -7.059300 -8.576200
vt -7.097100 -8.771500
vt -7.563300 -8.576200
vt -7.204200 -8.217100
vt -7.097100 -8.380899
vt -7.563300 -8.576200
vt -9.890600 -1.474600
vt -9.890600 -1.490200
vt -10.437500 -1.490200
vt -10.437500 -1.474600
vt 9.867200 -1.474600
vt 9.867200 -1.271500
vt 11.890599 -1.271500
vt 11.859400 -1.271500
vt 11.859400 -1.474600
vt 11.890599 -1.474600
vt -9.859400 -1.490200
vt -9.859400 -1.474600
vt -9.312500 -1.474600
vt -9.312500 -1.490200
vt -9.765600 -0.794900
vt -9.750000 -0.794900
vt -7.159700 1.050400
vt -7.159700 0.974800
vt -5.808600 0.974800
vt -5.808600 1.050400
vt 9.709400 0.395200
vt 9.579500 0.974800
vt 9.631499 0.974800
vt 9.755199 0.395200
vt 9.882800 -1.474600
vt 9.882800 -1.271500
vt 11.890599 -1.474600
vt 11.890599 -1.490200
vt 12.468800 -1.490200
vt 12.468800 -1.474600
vt -9.515600 -10.515600
vt -9.484400 -10.515600
vt -9.484400 -11.093800
vt -9.515600 -11.093800
vt -9.984400 -0.794900
vt -10.000000 -0.794900
vt 9.582300 0.974800
vt 9.712200 0.395200
vt 9.758100 0.395200
vt 9.634300 0.974800
vt 2.964800 0.453100
vt 2.964800 0.457000
vt 2.972700 0.457000
vt 2.972700 0.453100
vt -5.804700 0.395200
vt -5.805300 0.974800
vt -7.154700 0.974800
vt -7.154200 0.395200
vt 2.496100 0.457000
vt 2.496100 0.453100
vt 2.503900 0.453100
vt 2.503900 0.457000
vt -5.806200 1.050400
vt -5.806200 0.974800
vt -7.155600 0.974800
vt -7.155600 1.050400
vt 11.859400 -1.474600
vt 11.859400 -1.490200
vt 11.281300 -1.490200
vt 11.281300 -1.474600
vt -10.000000 -10.896500
vt -10.000000 -10.865200
vt -9.882800 -10.865200
vt -9.882800 -10.896500
vn 0.0000 1.0000 -0.0000
vn 0.0000 0.0000 1.0000
vn -1.0000 0.0000 0.0000
vn 0.0000 0.0000 -1.0000
vn 0.2425 0.0000 0.9702
vn 0.0000 -1.0000 0.0000
vn 0.2781 0.0000 0.9606
vn -0.2715 0.0000 -0.9624
vn -0.2425 0.0000 -0.9701
vn -0.2426 0.0000 -0.9701
vn -0.3263 0.5013 0.8014
vn 0.9997 -0.0239 0.0000
vn 1.0000 0.0000 0.0000
vn -0.3910 0.6020 0.6962
vn -0.3856 0.5937 0.7063
vn -0.3931 0.6015 0.6955
vn -0.3877 0.5931 0.7056
vn -0.3987 0.6265 0.6698
vn -0.3749 0.5891 0.7158
vn -0.3746 0.5899 0.7153
vn -0.3984 0.6273 0.6692
vn 0.0576 0.9529 0.2978
vn -0.2528 0.9533 0.1653
vn -0.4065 0.4692 0.7840
vn -0.0576 0.9529 0.2978
vn -0.1653 0.9533 0.2528
vn 0.2978 0.9529 -0.0576
vn 0.2978 0.9529 0.0576
vn 0.1653 0.9533 0.2528
vn 0.2528 0.9533 0.1653
vn 0.2528 0.9533 -0.1653
vn -0.2978 0.9529 -0.0576
vn -0.2978 0.9529 0.0576
vn -0.1653 0.9533 -0.2528
vn -0.2528 0.9533 -0.1653
vn 0.0576 0.9529 -0.2978
vn -0.0576 0.9529 -0.2978
vn 0.1653 0.9533 -0.2528
vn -0.9653 0.0000 0.2611
vn -0.2731 -0.0043 -0.9620
vn -0.2439 -0.0002 -0.9698
vn -0.2747 -0.0045 -0.9615
vn 0.2443 -0.0021 0.9697
vn 0.2747 0.0075 0.9615
vn 0.2727 0.0068 0.9621
vn 0.2425 -0.0027 0.9702
vn -0.9452 -0.2088 0.2511
vn 0.9665 0.0000 -0.2568
usemtl TTCEMENTBLUE01#2
s 1
f 3/1/1 2/2/1 1/3/1
f 3/1/1 1/3/1 4/4/1
f 7/5/2 6/6/2 5/7/2
f 7/5/2 5/7/2 8/8/2
f 11/9/3 10/10/3 9/11/3
f 11/9/3 9/11/3 12/12/3
f 15/13/4 14/14/4 13/15/4
f 15/13/4 13/15/4 16/16/4
f 19/17/5 18/18/5 17/19/5
f 19/17/5 17/19/5 20/20/5
f 23/21/3 22/22/3 21/23/3
f 23/21/3 21/23/3 24/24/3
f 27/25/2 26/26/2 25/27/2
f 27/25/2 25/27/2 28/28/2
f 31/29/1 30/30/1 29/31/1
f 31/29/1 29/31/1 32/32/1
f 35/33/6 34/34/6 33/35/6
f 35/33/6 33/35/6 36/36/6
f 39/37/4 38/38/4 37/39/4
f 39/37/4 37/39/4 40/40/4
f 43/41/3 42/42/3 41/43/3
f 43/41/3 41/43/3 44/44/3
f 47/45/7 46/46/7 45/47/7
f 47/45/7 45/47/7 48/48/7
f 51/49/8 50/50/8 49/51/8
f 51/49/8 49/51/8 52/52/8
f 55/53/2 54/54/2 53/55/2
f 55/53/2 53/55/2 56/56/2
f 59/57/6 58/58/6 57/59/6
f 59/57/6 57/59/6 60/60/6
f 63/61/1 62/62/1 61/63/1
f 63/61/1 61/63/1 64/64/1
f 67/65/4 66/66/4 65/67/4
f 67/65/4 65/67/4 68/68/4
f 71/69/9 70/70/10 69/71/10
f 71/69/9 69/71/10 72/72/9
f 75/73/2 74/74/2 73/75/2
f 75/73/2 73/75/2 76/76/2
f 79/77/3 78/78/3 77/79/3
f 79/77/3 77/79/3 80/80/3
f 83/81/6 82/82/6 81/83/6
f 83/81/6 81/83/6 84/84/6
f 87/85/1 86/86/1 85/87/1
f 87/85/1 85/87/1 88/88/1
f 91/89/4 90/90/4 89/91/4
f 91/89/4 89/91/4 92/92/4
f 29/31/1 93/93/1 32/32/1
f 96/94/11 95/95/12 94/96/12
f 97/97/1 31/29/1 32/32/1
f 100/98/13 99/99/13 98/100/13
f 103/101/14 102/102/2 101/103/15
f 106/104/13 105/105/13 104/106/13
f 107/107/13 106/104/13 104/106/13
f 110/108/3 109/109/3 108/110/3
f 9/11/3 22/22/3 23/21/3
f 12/12/3 9/11/3 23/21/3
f 113/111/6 112/112/16 111/113/17
f 83/81/6 115/114/6 114/115/6
f 82/82/6 83/81/6 114/115/6
f 116/116/6 82/82/6 114/115/6
f 117/117/6 116/116/6 114/115/6
f 120/118/2 119/119/18 118/120/19
f 121/121/2 120/118/2 118/120/19
f 124/122/6 123/123/2 122/124/20
f 125/125/21 124/122/6 122/124/20
f 128/126/1 127/127/1 126/128/1
f 62/62/1 128/126/1 126/128/1
f 61/63/1 62/62/1 126/128/1
f 129/129/1 61/63/1 126/128/1
f 132/130/3 131/131/3 130/132/3
f 132/130/3 130/132/3 133/133/3
f 136/134/22 135/135/22 134/136/22
f 139/137/23 138/138/23 137/139/23
f 142/140/1 141/141/1 140/142/24
f 145/143/25 144/144/25 143/145/25
f 148/146/26 147/147/26 146/148/26
f 151/149/27 150/150/27 149/151/27
f 154/152/28 153/153/28 152/154/28
f 157/155/29 156/156/29 155/157/29
f 160/158/30 159/159/30 158/160/30
f 163/161/31 162/162/31 161/163/31
f 166/164/32 165/165/32 164/166/32
f 169/167/33 168/168/33 167/169/33
f 172/170/34 171/171/34 170/172/34
f 175/173/35 174/174/35 173/175/35
f 178/176/36 177/177/36 176/178/36
f 181/179/37 180/180/37 179/181/37
f 184/182/38 183/183/38 182/184/38
f 187/185/13 186/186/13 185/187/13
f 187/185/13 185/187/13 188/188/13
f 109/109/3 190/189/3 189/190/3
f 109/109/3 189/190/3 108/110/3
f 193/191/2 192/192/2 191/193/2
f 193/191/2 191/193/2 194/194/2
f 197/195/13 196/196/13 195/197/13
f 197/195/13 195/197/13 198/198/13
f 105/105/13 106/104/13 199/199/13
f 105/105/13 199/199/13 200/200/13
f 203/201/39 202/202/39 201/203/39
f 203/201/39 201/203/39 204/204/39
f 207/205/40 206/206/10 205/207/41
f 207/205/40 205/207/41 208/208/42
f 99/99/13 210/209/13 209/210/13
f 99/99/13 209/210/13 98/100/13
f 213/211/2 212/212/2 211/213/2
f 213/211/2 211/213/2 214/214/2
f 217/215/1 216/216/1 215/217/1
f 217/215/1 215/217/1 218/218/1
f 219/219/13 107/107/13 104/106/13
f 219/219/13 104/106/13 220/220/13
f 223/221/43 222/222/44 221/223/45
f 223/221/43 221/223/45 224/224/46
f 227/225/4 226/226/4 225/227/4
f 227/225/4 225/227/4 228/228/4
f 231/229/47 230/230/47 229/231/47
f 231/229/47 229/231/47 232/232/47
f 235/233/13 234/234/13 233/235/13
f 235/233/13 233/235/13 236/236/13
f 239/237/48 238/238/48 237/239/48
f 239/237/48 237/239/48 240/240/48
f 243/241/4 242/242/4 241/243/4
f 243/241/4 241/243/4 244/244/4
f 247/245/1 246/246/1 245/247/1
f 247/245/1 245/247/1 248/248/1
