# Blender 4.0.2
# www.blender.org
mtllib cube.mtl
o Cube
v 1.00000 1.00000 -1.00000
v 1.00000 -1.00000 -1.00000
v 1.00000 1.00000 1.00000
v 1.00000 -1.00000 1.00000
v -1.00000 1.00000 -1.00000
v -1.00000 -1.00000 -1.00000
v -1.00000 1.00000 1.00000
v -1.00000 -1.00000 1.00000
v 1.00000 1.00000 -1.00000
v 1.00000 -1.00000 -1.00000
v 1.00000 1.00000 1.00000
v 1.00000 -1.00000 1.00000
v -1.00000 1.00000 -1.00000
v -1.00000 -1.00000 -1.00000
v -1.00000 1.00000 1.00000
v -1.00000 -1.00000 1.00000
v 1.00000 1.00000 -1.00000
v 1.00000 -1.00000 -1.00000
v 1.00000 1.00000 1.00000
v 1.00000 -1.00000 1.00000
v -1.00000 1.00000 -1.00000
v -1.00000 -1.00000 -1.00000
v -1.00000 1.00000 1.00000
v -1.00000 -1.00000 1.00000
vn -0.0000 -0.0000 1.0000
vn -0.0000 -1.0000 -0.0000
vn -0.0000 1.0000 -0.0000
vn -0.0000 -0.0000 -1.0000
vn -1.0000 -0.0000 -0.0000
vn 1.0000 -0.0000 -0.0000
vt 0.625000 0.750000
vt 0.375000 1.000000
vt 0.375000 0.750000
vt 0.375000 0.500000
vt 0.125000 0.750000
vt 0.125000 0.500000
vt 0.875000 0.500000
vt 0.625000 0.500000
vt 0.625000 0.250000
vt 0.375000 0.250000
vt 0.625000 0.000000
vt 0.375000 0.000000
vt 0.625000 1.000000
vt 0.875000 0.750000
s 0
usemtl Material
f 3/1/1 8/2/1 4/3/1
f 18/4/2 24/5/2 22/6/2
f 21/7/3 19/1/3 17/8/3
f 5/9/4 2/4/4 6/10/4
f 15/11/5 14/10/5 16/12/5
f 9/8/6 12/3/6 10/4/6
f 3/1/1 7/13/1 8/2/1
f 18/4/2 20/3/2 24/5/2
f 21/7/3 23/14/3 19/1/3
f 5/9/4 1/8/4 2/4/4
f 15/11/5 13/9/5 14/10/5
f 9/8/6 11/1/6 12/3/6
