# Blender v3.1.2 OBJ File: 'map1.blend'
# www.blender.org
mtllib Wall_2.mtl
o Plane.013_Plane.002
v -7.263124 9.087516 7.263124
v 7.263124 9.087516 7.263124
v -7.263124 9.087516 -7.263124
v 7.263124 9.087516 -7.263124
v -7.263124 12.846309 1.011831
v 7.263124 12.846309 1.011831
v -7.263124 12.116991 5.836550
v 7.263124 12.116991 5.836550
v -7.263124 12.846309 1.011831
v 7.263124 12.846309 1.011831
v -7.263124 12.116991 5.836550
v 7.263124 12.116991 5.836550
vt 0.002682 -3.630011
vt 2.174632 -0.158615
vt 0.002682 -0.158614
vt 2.175918 -3.630011
vt 2.976136 -0.158617
vt 2.175917 -0.158617
vt 2.174632 -3.630011
vt 2.976136 -3.630011
vt 0.002682 1.008751
vt 3.474078 -0.157329
vt 3.474078 1.008753
vt 0.002682 -0.157329
vn 0.0000 -0.9105 0.4136
vn 0.0000 -0.4260 -0.9047
vn 0.0000 -0.9888 -0.1495
usemtl None
s 1
f 4/1/1 5/2/1 3/3/1
f 1/4/2 8/5/2 2/6/2
f 4/1/1 6/7/1 5/2/1
f 1/4/2 7/8/2 8/5/2
f 10/9/3 11/10/3 9/11/3
f 10/9/3 12/12/3 11/10/3
