# Blender v3.1.2 OBJ File: 'map3_SL.blend'
# www.blender.org
mtllib Floor.mtl
o Floor_Plane
v -8.366114 -1.745424 21.669910
v 8.366114 -1.745424 21.669910
v -8.366114 -1.745424 -8.702320
v 8.366114 -1.745424 -8.702320
v -9.137352 -1.745424 9.137352
v 9.137352 -1.745424 9.137352
v -9.137352 -1.745424 -9.137352
v 9.137352 -1.745424 -9.137352
v -9.137352 -1.745452 26.075108
v 9.137352 -1.745452 26.075108
v 20.804537 -1.745424 26.075108
v -20.804537 -1.745424 26.075108
v -6.909239 0.000000 20.337238
v 6.909239 0.000000 20.337238
v -6.909239 0.000000 -7.369647
v 6.909239 0.000000 -7.369647
v -6.909239 0.000000 -7.369647
v 6.909239 0.000000 -7.369647
v -6.909239 -0.739647 -7.369647
v 6.909239 -0.739647 -7.369647
v -6.909239 0.000000 20.337238
v -6.909239 0.000000 -7.369647
v -6.909239 -0.739647 20.337238
v -6.909239 -0.739647 -7.369647
v -6.909239 -0.739647 20.337238
v 6.909239 -0.739647 20.337238
v -6.909239 -0.739647 -7.369647
v 6.909239 -0.739647 -7.369647
v -8.366114 -0.739647 21.669910
v 8.366114 -0.739647 21.669910
v -8.366114 -0.739647 -8.702320
v 8.366114 -0.739647 -8.702320
v 6.909239 0.000000 20.337238
v 6.909239 0.000000 -7.369647
v 6.909239 -0.739647 20.337238
v 6.909239 -0.739647 -7.369647
v -8.366114 -0.739647 21.669910
v 8.366114 -0.739647 21.669910
v -8.366114 -1.745424 21.669910
v 8.366114 -1.745424 21.669910
v 8.366114 -0.739647 21.669910
v 8.366114 -0.739647 -8.702320
v 8.366114 -1.745424 21.669910
v 8.366114 -1.745424 -8.702320
v -8.366114 -0.739647 -8.702320
v 8.366114 -0.739647 -8.702320
v -8.366114 -1.745424 -8.702320
v 8.366114 -1.745424 -8.702320
v -8.366114 -0.739647 21.669910
v -8.366114 -0.739647 -8.702320
v -8.366114 -1.745424 21.669910
v -8.366114 -1.745424 -8.702320
v -6.909239 0.000000 20.337238
v 6.909239 0.000000 20.337238
v -6.909239 -0.739647 20.337238
v 6.909239 -0.739647 20.337238
vt 0.000000 0.000000
vt 0.000000 0.000000
vt 0.000000 0.000000
vt 0.000000 0.000000
vt 0.227193 0.642479
vt 0.233160 0.784933
vt 0.227477 0.987731
vt 0.100564 0.987966
vt 0.094546 0.785193
vt 0.100278 0.642714
vt 0.005888 0.592813
vt 0.094387 0.592649
vt 0.321499 0.592228
vt 0.233002 0.592392
vt 0.233332 0.992666
vt 0.094718 0.992923
vt 0.215760 0.244516
vt 0.215889 0.401598
vt 0.005601 0.244906
vt 0.005731 0.401987
vt 0.215915 0.264669
vt 0.320721 0.256067
vt 0.320728 0.264475
vt 0.215908 0.256261
vt 0.215739 0.220715
vt 0.005575 0.212697
vt 0.215732 0.212307
vt 0.005582 0.221105
vt 0.236107 0.401871
vt 0.015853 0.418840
vt 0.005731 0.402298
vt 0.226141 0.575532
vt 0.236263 0.592074
vt 0.005888 0.592501
vt 0.015983 0.575921
vt 0.226012 0.418451
vt 0.236402 0.592074
vt 0.241753 0.277108
vt 0.242013 0.592064
vt 0.236143 0.277118
vt 0.242151 0.592063
vt 0.249623 0.401849
vt 0.249780 0.592049
vt 0.241994 0.401863
vt 0.235965 0.232734
vt 0.005601 0.244594
vt 0.005592 0.233161
vt 0.235974 0.244167
vt 0.215908 0.255949
vt 0.342812 0.244281
vt 0.342822 0.255714
vt 0.215898 0.244516
vt 0.005582 0.221416
vt 0.235963 0.232423
vt 0.005591 0.232849
vt 0.235954 0.220989
vn 0.0000 0.0000 1.0000
vn 0.0000 1.0000 0.0000
vn 0.0000 -1.0000 0.0000
vn 0.0000 0.0000 -1.0000
vn -1.0000 0.0000 0.0000
vn 1.0000 0.0000 0.0000
usemtl Material.001
s off
f 54/1/1 55/2/1 56/3/1
f 54/1/1 53/4/1 55/2/1
s 1
f 2/5/2 6/6/2 4/7/2
f 3/8/2 5/9/2 1/10/2
f 12/11/2 9/12/2 5/9/2
f 11/13/2 6/6/2 10/14/2
f 4/7/2 6/6/2 8/15/2
f 3/8/2 8/15/2 7/16/2
f 2/5/2 9/12/2 10/14/2
f 1/10/2 9/12/2 2/5/2
f 2/5/2 10/14/2 6/6/2
f 7/16/2 5/9/2 3/8/2
f 5/9/2 9/12/2 1/10/2
f 3/8/2 4/7/2 8/15/2
f 15/17/3 16/18/3 13/19/3
f 13/19/3 16/18/3 14/20/3
f 19/21/4 18/22/4 20/23/4
f 19/21/4 17/24/4 18/22/4
f 24/25/5 21/26/5 22/27/5
f 24/25/5 23/28/5 21/26/5
f 29/29/2 27/30/2 31/31/2
f 26/32/2 29/29/2 30/33/2
f 32/34/2 26/32/2 30/33/2
f 31/31/2 28/35/2 32/34/2
f 29/29/2 25/36/2 27/30/2
f 26/32/2 25/36/2 29/29/2
f 32/34/2 28/35/2 26/32/2
f 31/31/2 27/30/2 28/35/2
f 34/37/6 35/38/6 36/39/6
f 34/37/6 33/40/6 35/38/6
f 38/41/1 39/42/1 40/43/1
f 38/41/1 37/44/1 39/42/1
f 44/45/6 41/46/6 43/47/6
f 44/45/6 42/48/6 41/46/6
f 47/49/4 46/50/4 48/51/4
f 47/49/4 45/52/4 46/50/4
f 52/53/5 49/54/5 50/55/5
f 52/53/5 51/56/5 49/54/5
