# Blender v3.1.2 OBJ File: 'map3_SL.blend'
# www.blender.org
mtllib Walls.mtl
o Walls_Plane.014
v -9.137352 -1.745424 -9.137352
v 9.137352 -1.745424 -9.137352
v 9.137352 10.884284 -9.137352
v -9.137352 10.884284 -9.137352
v -9.137352 -1.745452 26.075108
v 9.137352 -1.745452 26.075108
v 20.804537 -1.745424 26.075108
v -20.804537 -1.745424 26.075108
v 20.804537 10.895504 26.075108
v -20.804537 10.895504 26.075108
v 9.137352 10.884284 9.137352
v -9.137352 10.884284 9.137352
v 20.804537 10.895504 26.075108
v -20.804537 10.895504 26.075108
v 9.137352 10.884284 -9.137352
v -9.137352 10.884284 -9.137352
v 9.137352 10.884284 9.137352
v -9.137352 10.884284 9.137352
v 9.137352 -1.745424 9.137352
v 9.137352 -1.745424 -9.137352
v 9.137352 10.884284 -9.137352
v 9.137352 10.884284 9.137352
v 9.137324 1.946344 -6.795505
v 9.137326 1.946344 6.795505
v 9.137326 7.192516 6.795505
v 9.137324 7.192516 -6.795505
v -9.137352 -1.745424 9.137352
v -9.137352 -1.745424 -9.137352
v -9.137352 10.884284 -9.137352
v -9.137352 10.884284 9.137352
v -9.137352 1.946344 6.795505
v -9.137352 1.946344 -6.795505
v -9.137352 7.192516 -6.795505
v -9.137352 7.192516 6.795505
vt 0.000000 0.000000
vt 0.000000 0.000000
vt 0.000000 0.000000
vt 0.000000 0.000000
vt 0.000000 0.000000
vt 0.000000 0.000000
vt 0.000000 0.000000
vt 0.000000 0.000000
vt 0.000000 0.000000
vt 0.000000 0.000000
vt 0.000000 0.000000
vt 0.000000 0.000000
vt 0.000000 0.000000
vt 0.000000 0.000000
vt 0.000000 0.000000
vt 0.000000 0.000000
vt 0.000000 0.000000
vt 0.000000 0.000000
vt 0.000000 0.000000
vt 0.000000 0.000000
vt 0.000000 0.000000
vt 0.000000 0.000000
vt 0.000000 0.000000
vt 0.000000 0.000000
vt 0.000000 0.000000
vt 0.000000 0.000000
vt 0.000000 0.000000
vt 0.000000 0.000000
vt 0.000000 0.000000
vt 0.000000 0.000000
vt 0.000000 0.000000
vt 0.000000 0.000000
vt 0.000000 0.000000
vt 0.000000 0.000000
vn 0.0000 0.0000 1.0000
vn -0.0000 0.0000 -1.0000
vn 0.0000 -1.0000 0.0007
vn 0.0000 -1.0000 0.0000
vn -1.0000 0.0000 0.0000
vn 1.0000 0.0000 0.0000
usemtl Material.003
s 1
f 2/1/1 4/2/1 1/3/1
f 2/1/1 3/4/1 4/2/1
f 9/5/2 7/6/2 6/7/2
f 6/7/2 5/8/2 10/9/2
f 5/8/2 8/10/2 10/9/2
f 10/9/2 9/5/2 6/7/2
f 11/11/3 14/12/3 12/13/3
f 11/11/3 13/14/3 14/12/3
f 18/15/4 15/16/4 17/17/4
f 18/15/4 16/18/4 15/16/4
f 22/19/5 24/20/5 19/21/5
f 26/22/5 22/19/5 21/23/5
f 20/24/5 26/22/5 21/23/5
f 19/21/5 23/25/5 20/24/5
f 22/19/5 25/26/5 24/20/5
f 26/22/5 25/26/5 22/19/5
f 20/24/5 23/25/5 26/22/5
f 19/21/5 24/20/5 23/25/5
f 32/27/6 27/28/6 28/29/6
f 31/30/6 30/31/6 27/28/6
f 34/32/6 29/33/6 30/31/6
f 33/34/6 28/29/6 29/33/6
f 32/27/6 31/30/6 27/28/6
f 31/30/6 34/32/6 30/31/6
f 34/32/6 33/34/6 29/33/6
f 33/34/6 32/27/6 28/29/6
