# Blender v3.1.2 OBJ File: 'map3_SL.blend'
# www.blender.org
mtllib WindowFrame1.mtl
o WindowFrame1_Plane.012
v -9.137352 1.946344 6.795505
v -9.137352 1.946344 -6.795505
v -9.137352 7.192516 6.795505
v -8.937352 1.946344 6.795505
v -8.937352 1.946344 -6.795505
v -8.937352 7.192516 6.795505
v -8.937352 2.059391 6.502641
v -8.937352 7.079469 6.502641
v -9.237352 2.059391 6.502641
v -9.237352 7.079469 6.502641
v -8.937352 7.192516 -6.795505
v -9.137352 7.192516 -6.795505
v -8.937352 1.946344 6.795505
v -8.937352 1.946344 -6.795505
v -8.937352 7.192516 6.795505
v -8.937352 2.059391 6.502641
v -8.937352 2.059391 -6.502641
v -8.937352 7.079469 6.502641
v -8.937352 7.079469 -6.502641
v -8.937352 7.192516 -6.795505
v -9.137352 7.192516 6.795505
v -8.937352 7.192516 6.795505
v -8.937352 7.192516 -6.795505
v -9.137352 7.192516 -6.795505
v -8.937352 2.059391 -6.502641
v -9.237352 2.059391 -6.502641
v -9.237352 7.079469 -6.502641
v -8.937352 7.079469 -6.502641
v -8.937352 7.079469 6.502641
v -9.237352 7.079469 6.502641
v -9.237352 7.079469 -6.502641
v -8.937352 7.079469 -6.502641
v -8.937352 2.059391 6.502641
v -8.937352 2.059391 -6.502641
v -9.237352 2.059391 6.502641
v -9.237352 2.059391 -6.502641
vt 0.000000 0.000000
vt 0.000000 0.000000
vt 0.000000 0.000000
vt 0.000000 0.000000
vt 0.000000 0.000000
vt 0.000000 0.000000
vt 0.000000 0.000000
vt 0.000000 0.000000
vt 0.000000 0.000000
vt 0.000000 0.000000
vt 0.000000 0.000000
vt 0.000000 0.000000
vt 0.000000 0.000000
vt 0.000000 0.000000
vt 0.000000 0.000000
vt 0.000000 0.000000
vt 0.000000 0.000000
vt 0.000000 0.000000
vt 0.000000 0.000000
vt 0.000000 0.000000
vt 0.000000 0.000000
vt 0.000000 0.000000
vt 0.000000 0.000000
vt 0.000000 0.000000
vt 0.000000 0.000000
vt 0.000000 0.000000
vt 0.000000 0.000000
vt 0.000000 0.000000
vt 0.000000 0.000000
vt 0.000000 0.000000
vt 0.000000 0.000000
vt 0.000000 0.000000
vt 0.000000 0.000000
vt 0.000000 0.000000
vt 0.000000 0.000000
vt 0.000000 0.000000
vn 0.0000 -0.7071 -0.7071
vn 0.0000 -0.7071 0.7071
vn 0.0000 0.0000 1.0000
vn 0.0000 0.0000 -1.0000
vn 1.0000 -0.0000 0.0000
vn 0.0000 1.0000 0.0000
vn 0.0000 -1.0000 0.0000
usemtl None
s 1
f 5/1/1 1/2/2 2/3/1
f 4/4/2 3/5/3 1/2/2
f 9/6/4 8/7/4 7/8/4
f 11/9/4 2/3/1 12/10/4
f 17/11/5 13/12/5 14/13/5
f 16/14/5 15/15/5 13/12/5
f 19/16/5 14/13/5 20/17/5
f 18/18/5 20/17/5 15/15/5
f 22/19/6 24/20/6 21/21/6
f 27/22/3 25/23/3 28/24/3
f 30/25/7 32/26/7 29/27/7
f 36/28/6 33/29/6 34/30/6
f 5/1/1 4/4/2 1/2/2
f 4/4/2 6/31/3 3/5/3
f 9/6/4 10/32/4 8/7/4
f 11/9/4 5/1/1 2/3/1
f 17/11/5 16/14/5 13/12/5
f 16/14/5 18/18/5 15/15/5
f 19/16/5 17/11/5 14/13/5
f 18/18/5 19/16/5 20/17/5
f 22/19/6 23/33/6 24/20/6
f 27/22/3 26/34/3 25/23/3
f 30/25/7 31/35/7 32/26/7
f 36/28/6 35/36/6 33/29/6
