# Blender v3.4.1 OBJ File: ''
# www.blender.org
mtllib cabindetail.mtl
o Cube_Cube.002
v -2.431661 14.531827 31.177645
v -1.665787 14.531827 29.604212
v -2.497829 14.531827 31.144560
v -2.431661 13.197722 31.177645
v -1.665787 13.197722 29.604212
v -1.599618 13.197722 29.637297
v -1.599618 14.531827 29.637297
v -2.497829 13.197722 31.144560
v -1.665787 13.197722 29.604212
v -1.665787 14.531827 29.604212
v -1.599618 14.531827 29.637297
v -2.431661 13.197722 31.177645
v -2.431661 14.531827 31.177645
v -2.497829 14.531827 31.144560
v -1.599618 13.197722 29.637297
v -2.497829 13.197722 31.144560
v -2.497829 13.197722 31.144560
v -1.665787 14.531827 29.604212
v -1.665787 13.197722 29.604212
v -2.497829 14.531827 31.144560
v -2.295233 14.104612 30.713041
v -1.765819 14.277907 29.715769
v -1.944877 14.239820 29.806211
v -2.075030 14.277907 29.912001
v -2.229418 14.277907 30.149601
v -2.280876 14.239820 30.325626
v -2.281129 14.277907 30.428198
v -2.247907 14.239820 30.625528
v -2.247907 14.277907 30.625528
v -1.685885 14.360993 29.656017
v -1.715586 14.362335 29.640774
v -2.265675 14.103345 30.728539
v -2.264665 14.363364 30.726597
v -2.296186 14.359978 30.714872
v -1.716585 14.102342 29.642715
v -1.685032 14.105765 29.654390
v -1.761592 14.210040 29.725937
v -1.752061 14.239820 29.731089
v -2.247907 14.239820 30.625528
v -2.247907 14.180259 30.625528
v -1.752061 14.180259 29.731089
v -2.238378 14.210040 30.630682
v -1.761592 14.142172 29.725937
v -2.274905 14.142172 30.486368
v -2.245927 14.142172 30.205721
v -2.274905 14.180259 30.486368
v -2.247907 14.180259 30.625528
v -2.011044 14.180259 29.857763
v -1.761592 14.239820 29.725937
v -2.274905 14.239820 30.486368
v -2.245927 14.239820 30.205721
v -2.274905 14.277907 30.486368
v -2.247907 14.277907 30.625528
v -2.011044 14.277907 29.857763
v -2.485999 13.640142 31.065723
v -1.952356 13.858653 30.078617
v -2.465670 13.858653 30.839048
v -2.436691 13.858653 30.558401
v -2.288627 14.099862 30.700853
v -2.297123 14.117727 30.716570
v -2.300233 14.142132 30.722322
v -1.761592 14.142172 29.725937
v -1.761592 14.277907 29.725937
v -1.711020 14.142132 29.632389
v -1.711020 14.323573 29.632389
v -1.725369 14.369499 29.658930
v -1.876652 14.073686 30.008701
v -1.906351 14.075026 29.993456
v -2.456440 13.638876 31.081221
v -2.455431 14.076054 31.079277
v -2.486952 14.072667 31.067553
v -1.907348 13.637874 29.995394
v -1.875794 13.641300 30.007065
v -1.952356 13.828873 30.078617
v -1.942826 13.858653 30.083769
v -2.438672 13.858653 30.978209
v -2.438672 13.799091 30.978209
v -1.942826 13.799091 30.083769
v -2.429141 13.828873 30.983362
v -2.420180 13.896740 30.502275
v -2.471774 13.858653 30.755404
v -2.471894 13.896740 30.780874
v -1.956583 13.896740 30.068449
v -2.247695 13.858653 30.246750
v -2.265788 13.896740 30.264673
v -2.410321 13.858653 30.478788
v -2.438672 13.858653 30.978209
v -2.438672 13.896740 30.978209
v -1.954983 13.858653 30.072298
v -1.901785 14.036263 29.985069
v -1.952356 13.896740 30.078617
v -1.924996 14.085073 30.028006
v -1.952356 13.761004 30.078617
v -1.901785 13.677662 29.985069
v -2.479392 13.635392 31.053534
v -2.487888 13.653257 31.069250
v -2.490998 13.677662 31.075003
v -2.487888 14.060667 31.069250
v -2.479392 14.078532 31.053534
v -2.467786 14.085073 31.032066
v -2.438672 13.896740 30.978209
v -1.956583 13.799091 30.068449
v -1.954983 13.761004 30.072298
v -2.471894 13.799091 30.780874
v -2.438672 13.761004 30.978209
v -2.438672 13.799091 30.978209
v -2.420180 13.799091 30.502275
v -2.410321 13.761004 30.478788
v -2.247695 13.761004 30.246750
v -2.265788 13.799091 30.264673
v -2.471774 13.761004 30.755404
v -2.465670 13.896740 30.839048
v -2.438672 13.896740 30.978209
v -2.201809 13.896740 30.210443
v -2.465670 13.799091 30.839048
v -2.438672 13.799091 30.978209
v -2.201809 13.799091 30.210443
v -1.952356 13.761004 30.078617
v -2.465670 13.761004 30.839048
v -2.436691 13.761004 30.558401
v -2.297123 14.347978 30.716570
v -2.285883 14.369499 30.695780
v -2.247907 14.277907 30.625528
v -2.149663 14.239820 30.002069
v -1.765819 14.180259 29.715769
v -1.944877 14.142172 29.806211
v -2.281129 14.180259 30.428198
v -2.247907 14.142172 30.625528
v -2.247907 14.180259 30.625528
v -2.229418 14.180259 30.149601
v -2.280876 14.142172 30.325626
v -2.075030 14.180259 29.912001
v -2.149663 14.142172 30.002069
v -1.761592 14.239820 29.725937
v -2.011044 14.142172 29.857763
v -1.892810 14.142172 29.779566
v -2.247907 14.142172 30.625528
v -2.274237 14.142172 30.344620
v -2.191061 14.142172 30.075012
v -2.111751 14.142172 29.957520
v -1.761592 14.180259 29.725937
v -1.892810 14.180259 29.779566
v -2.111751 14.180259 29.957520
v -2.191061 14.180259 30.075012
v -2.245927 14.180259 30.205721
v -2.274237 14.180259 30.344620
v -2.011044 14.239820 29.857763
v -1.892810 14.239820 29.779566
v -2.247907 14.239820 30.625528
v -2.274237 14.239820 30.344620
v -2.191061 14.239820 30.075012
v -2.111751 14.239820 29.957520
v -1.761592 14.277907 29.725937
v -1.892810 14.277907 29.779566
v -2.111751 14.277907 29.957520
v -2.191061 14.277907 30.075012
v -2.245927 14.277907 30.205721
v -2.274237 14.277907 30.344620
v -2.201809 13.858653 30.210443
v -2.083575 13.858653 30.132246
v -2.438672 13.858653 30.978209
v -2.465002 13.858653 30.697300
v -2.381826 13.858653 30.427692
v -2.302515 13.858653 30.310200
v -1.734232 14.093323 29.675325
v -2.277022 14.093323 30.679386
v -1.714130 14.117727 29.638140
v -1.722626 14.099862 29.653856
v -1.714130 14.347978 29.638140
v -1.913391 14.078532 30.006536
v -1.904894 14.060667 29.990820
v -1.904894 13.653257 29.990820
v -1.924996 13.628853 30.028006
v -1.913391 13.635392 30.006536
v -2.438672 13.761004 30.978209
v -2.467786 13.628853 31.032066
v -2.490998 14.036263 31.075003
v -1.952356 13.896740 30.078617
v -2.083575 13.896740 30.132246
v -2.302515 13.896740 30.310200
v -2.381826 13.896740 30.427692
v -2.436691 13.896740 30.558401
v -2.465002 13.896740 30.697300
v -1.952356 13.799091 30.078617
v -2.083575 13.799091 30.132246
v -2.302515 13.799091 30.310200
v -2.381826 13.799091 30.427692
v -2.436691 13.799091 30.558401
v -2.465002 13.799091 30.697300
v -2.201809 13.761004 30.210443
v -2.083575 13.761004 30.132246
v -2.438672 13.761004 30.978209
v -2.465002 13.761004 30.697300
v -2.381826 13.761004 30.427692
v -2.302515 13.761004 30.310200
v -2.247906 14.142172 30.625528
v -2.300233 14.323573 30.722322
v -1.761592 14.142172 29.725937
v -1.752061 14.239820 29.731089
v -2.238377 14.180259 30.630682
v -2.238377 14.239820 30.630682
v -1.942826 13.858653 30.083769
v -2.429141 13.799091 30.983362
v -2.429141 13.858653 30.983362
v -1.752061 14.180259 29.731089
v -1.942826 13.799091 30.083769
v -3.712905 12.916624 31.367325
v -3.713485 14.192287 31.322443
v -3.713485 12.914377 31.276360
v -2.672213 14.192287 31.322443
v -2.671633 12.916624 31.367325
v -2.672213 12.914377 31.276360
v -2.758440 13.207179 31.314577
v -2.740908 14.125095 31.319906
v -2.740908 13.189023 31.284565
v -3.627258 13.207179 31.314577
v -3.644790 14.125095 31.319906
v -3.627258 14.106938 31.348547
v -2.758440 13.207179 31.314577
v -3.644790 13.189023 31.284565
v -3.627258 13.207179 31.314577
v -3.627258 14.106938 31.348547
v -2.740908 14.125095 31.319906
v -2.758440 14.106938 31.348547
v -3.644790 13.189023 31.284565
v -3.713485 14.192287 31.322443
v -3.644790 14.125095 31.319906
v -2.740908 13.189023 31.284565
v -3.713485 12.914377 31.276360
v -2.672213 14.192287 31.322443
v -2.740908 14.125095 31.319906
v -2.672213 12.914377 31.276360
v -2.672213 12.914377 31.276360
v -3.712905 12.916624 31.367325
v -3.713485 12.914377 31.276360
v -3.713485 14.192287 31.322443
v -2.672213 14.192287 31.412033
v -2.672213 14.192287 31.322443
v -3.713485 14.192287 31.412033
v -2.672213 14.192287 31.412033
v -2.758440 14.106938 31.348547
v -3.644790 13.189023 31.284565
v -2.740908 13.189023 31.284565
v -3.644790 14.125095 31.319906
v -2.671633 12.916624 31.367325
v -3.713485 14.192287 31.412033
v -3.192849 13.656956 31.290308
v -3.628874 14.108794 31.341825
v -3.628951 13.205745 31.307415
v -2.756684 13.205687 31.307133
v -2.756756 14.108878 31.341530
vt 0.931106 0.369669
vt 0.909769 0.874174
vt 0.909769 0.368994
vt 0.931106 0.369669
vt 0.952442 0.874174
vt 0.931106 0.874849
vt 0.931106 0.874849
vt 0.952442 0.368994
vt 0.363620 0.890149
vt 0.363620 0.505181
vt 0.384967 0.505181
vt 0.978653 0.753963
vt 0.978653 0.368995
vt 1.000000 0.368995
vt 0.384967 0.890149
vt 1.000000 0.753963
vt 0.000000 0.000000
vt 0.384968 0.505180
vt 0.000000 0.505180
vt 0.384968 0.000000
vt 0.978653 0.370562
vt 0.952816 0.737987
vt 0.952442 0.368995
vt 0.507570 0.630937
vt 0.533407 0.998360
vt 0.507196 0.999928
vt 0.899914 0.928825
vt 0.909769 0.664082
vt 0.909769 0.934387
vt 0.890060 0.669643
vt 0.899916 0.934383
vt 0.890060 0.929460
vt 0.890059 0.919846
vt 0.879938 0.664082
vt 0.890059 0.669141
vt 0.870152 0.669141
vt 0.879938 0.924905
vt 0.870152 0.919846
vt 0.404799 0.289707
vt 0.384968 0.000001
vt 0.404793 0.019404
vt 0.665615 0.289708
vt 0.384972 0.368995
vt 0.685444 0.000000
vt 0.665621 0.019403
vt 0.685444 0.368995
vt 0.904461 0.300470
vt 0.878204 0.000167
vt 0.904461 0.000000
vt 0.930313 0.300468
vt 0.904461 0.000000
vt 0.930313 0.000000
vt 0.978653 0.738892
vt 0.533407 0.630031
vt 0.899914 0.669005
vt 0.899916 0.664082
vt 0.879938 0.924905
vt 0.879938 0.664082
vt 0.878204 0.300637
vt 0.904461 0.300468
vt 0.963285 0.327213
vt 0.952295 0.269556
vt 0.963285 0.221292
vt 0.963285 0.057682
vt 0.952295 0.000000
vt 0.963285 0.000000
vt 0.007674 0.514612
vt 0.083399 0.523734
vt 0.015258 0.521408
vt 0.016852 0.867469
vt 0.092348 0.518049
vt 0.083963 0.870226
vt 0.010991 0.876449
vt 0.557471 0.634802
vt 0.560586 0.903732
vt 0.546944 0.898228
vt 0.539124 0.634254
vt 0.533407 0.902052
vt 0.548397 0.630440
vt 0.963285 0.139487
vt 0.952295 0.086918
vt 0.878205 0.000000
vt 0.852255 0.263470
vt 0.821099 0.188251
vt 0.215184 0.536800
vt 0.241134 0.505180
vt 0.195902 0.732574
vt 0.909769 0.368994
vt 0.883819 0.632463
vt 0.852663 0.557245
vt 0.276299 0.536800
vt 0.302249 0.505180
vt 0.257017 0.732574
vt 0.507196 0.630030
vt 0.481247 0.893499
vt 0.450091 0.818281
vt 0.101380 0.512222
vt 0.106535 0.507067
vt 0.113578 0.505180
vt 0.113589 0.832020
vt 0.152757 0.832020
vt 0.113577 0.862705
vt 0.165934 0.862705
vt 0.178618 0.853847
vt 0.644578 0.378230
vt 0.771389 0.389206
vt 0.652119 0.384866
vt 0.655441 0.733563
vt 0.780332 0.383553
vt 0.772021 0.737158
vt 0.649585 0.742504
vt 0.584651 0.898960
vt 0.587766 0.630030
vt 0.574123 0.635535
vt 0.566304 0.899506
vt 0.560587 0.631710
vt 0.575576 0.903322
vt 0.930315 0.187744
vt 0.941304 0.262201
vt 0.930314 0.269551
vt 0.930314 0.000019
vt 0.941304 0.098588
vt 0.930314 0.105937
vt 0.941304 0.327234
vt 0.930314 0.327234
vt 0.803006 0.357527
vt 0.762745 0.326839
vt 0.817091 0.343441
vt 0.687331 0.007044
vt 0.692486 0.001888
vt 0.699528 0.000002
vt 0.810048 0.001888
vt 0.815203 0.007042
vt 0.817091 0.014084
vt 0.762745 0.031752
vt 0.941304 0.180393
vt 0.941305 0.269551
vt 0.952295 0.327234
vt 0.941305 0.327234
vt 0.941305 0.000019
vt 0.952295 0.098588
vt 0.941305 0.105937
vt 0.941306 0.187744
vt 0.952295 0.262201
vt 0.952295 0.180393
vt 0.337415 0.536800
vt 0.363364 0.505180
vt 0.318132 0.732574
vt 0.822704 0.400614
vt 0.848654 0.368994
vt 0.803422 0.596388
vt 0.446082 0.630030
vt 0.420133 0.893499
vt 0.388977 0.818281
vt 0.152757 0.536930
vt 0.178618 0.514039
vt 0.952295 0.187746
vt 0.636967 0.687712
vt 0.625977 0.630030
vt 0.636967 0.630030
vt 0.636967 0.957243
vt 0.625977 0.899586
vt 0.636967 0.851322
vt 0.636967 0.769516
vt 0.625977 0.716948
vt 0.625977 0.817775
vt 0.952295 0.327232
vt 0.090444 0.878058
vt 0.832973 0.067694
vt 0.852256 0.031620
vt 0.878205 0.295088
vt 0.832973 0.227396
vt 0.817090 0.147543
vt 0.821099 0.106836
vt 0.241134 0.800268
vt 0.215184 0.768648
vt 0.184028 0.693432
vt 0.180018 0.652725
vt 0.184028 0.612017
vt 0.195903 0.572872
vt 0.864537 0.436687
vt 0.883820 0.400614
vt 0.909769 0.664082
vt 0.864537 0.596390
vt 0.848654 0.516537
vt 0.852663 0.475830
vt 0.302249 0.800268
vt 0.276299 0.768648
vt 0.245143 0.693432
vt 0.241134 0.652725
vt 0.245143 0.612017
vt 0.257018 0.572872
vt 0.461966 0.697723
vt 0.481247 0.661650
vt 0.507196 0.925117
vt 0.461966 0.857426
vt 0.446082 0.777575
vt 0.450091 0.736866
vt 0.113589 0.536930
vt 0.099493 0.848621
vt 0.099493 0.519264
vt 0.106535 0.860819
vt 0.101379 0.855663
vt 0.172976 0.860819
vt 0.778575 0.744905
vt 0.941304 0.000012
vt 0.815203 0.350483
vt 0.810048 0.355639
vt 0.723578 0.326839
vt 0.699528 0.357525
vt 0.692486 0.355639
vt 0.685444 0.343441
vt 0.687331 0.350483
vt 0.723577 0.031752
vt 0.685444 0.014086
vt 0.803006 0.000000
vt 0.952295 0.000012
vt 0.363364 0.800268
vt 0.337415 0.768648
vt 0.306258 0.693432
vt 0.302249 0.652725
vt 0.306258 0.612017
vt 0.318132 0.572874
vt 0.848654 0.664082
vt 0.822704 0.632462
vt 0.791548 0.557245
vt 0.787539 0.516539
vt 0.791548 0.475830
vt 0.803422 0.436687
vt 0.400851 0.697725
vt 0.420134 0.661650
vt 0.446082 0.925117
vt 0.400851 0.857426
vt 0.384968 0.777575
vt 0.388977 0.736866
vt 0.165934 0.505180
vt 0.172976 0.507067
vt 0.625977 0.957262
vt 0.604953 0.925117
vt 0.587766 0.630030
vt 0.604953 0.630030
vt 0.604953 0.630030
vt 0.622140 0.925117
vt 0.604953 0.925117
vt 0.587766 0.925117
vt 0.622140 0.630030
vt 0.510969 0.501017
vt 0.637160 0.368780
vt 0.637241 0.630305
vt 0.384751 0.368691
vt 0.384681 0.630320
vn 0.0000 1.0000 0.0000
vn 0.0000 -1.0000 0.0000
vn 0.4473 0.0000 -0.8944
vn 0.4472 0.0000 -0.8944
vn -0.4472 0.0000 0.8944
vn -0.4473 0.0000 0.8944
vn -0.8798 0.0000 -0.4753
vn -1.0000 -0.0002 0.0061
vn -1.0000 -0.0004 0.0003
vn -1.0000 -0.0002 0.0064
vn 1.0000 0.0004 -0.0003
vn 1.0000 0.0002 -0.0061
vn 1.0000 0.0002 -0.0064
vn -0.8582 0.0194 -0.5130
vn 0.8582 0.0194 -0.5130
vn 0.0000 0.8556 -0.5176
vn 0.0000 -0.8446 -0.5354
vn -0.0148 0.0337 -0.9993
vn -0.0011 0.0377 -0.9993
vn -0.0000 0.0377 -0.9993
vn 0.0148 0.0337 -0.9993
vn -0.0038 0.0308 -0.9995
vn 0.0011 0.0377 -0.9993
vn 0.0038 0.0308 -0.9995
vn 0.0000 -0.9997 0.0247
vn -1.0000 -0.0005 0.0000
vn 1.0000 0.0005 0.0000
vn 0.0000 -0.8446 -0.5355
vn -0.4113 -0.1857 -0.8924
vn -0.5033 0.3646 -0.7835
vn -0.6826 -0.2096 -0.7001
vn -0.9795 -0.1863 0.0772
vn -0.9866 -0.0360 0.1592
vn -0.9861 0.0000 0.1660
vn -0.3384 -0.7199 0.6060
vn -0.3312 0.6542 0.6799
vn -0.3559 -0.6977 0.6217
vn 0.2943 -0.7619 -0.5769
vn -0.2947 0.7614 0.5774
vn 0.3339 0.7221 -0.6059
vn 0.3304 -0.6536 -0.6809
vn 0.6915 0.3445 0.6349
vn -0.9250 0.2332 0.2999
vn -0.9173 0.2623 0.2995
vn 0.6915 -0.3445 0.6349
vn -0.9250 -0.2333 0.2999
vn 0.3606 0.0000 0.9327
vn -0.8748 -0.3296 -0.3552
vn -0.9407 0.3027 -0.1533
vn -0.8797 -0.0000 -0.4756
vn -0.3412 -0.7191 0.6054
vn -0.3287 0.6531 0.6822
vn -0.3563 -0.6965 0.6228
vn 0.2946 -0.7610 -0.5780
vn -0.2951 0.7604 0.5786
vn 0.3367 0.7213 -0.6053
vn 0.3280 -0.6524 -0.6832
vn 0.6915 0.3446 0.6349
vn -0.9250 0.2333 0.2999
vn -0.9250 -0.2332 0.3000
vn -0.9458 -0.0331 -0.3232
vn -0.9960 0.0387 -0.0811
vn -0.9987 -0.0262 0.0448
vn -0.5116 -0.0899 -0.8545
vn -0.6345 0.0517 -0.7712
vn -0.7427 -0.0254 -0.6692
vn -0.9864 -0.0121 0.1637
vn -0.8797 -0.0000 -0.4755
vn -0.8796 0.0000 -0.4757
vn -0.8798 -0.0000 -0.4754
vn -0.8796 -0.0000 -0.4756
vn -0.8797 -0.0001 -0.4755
vn -0.8931 0.0331 -0.4487
vn -0.8141 0.2116 -0.5408
vn -0.3854 -0.2777 -0.8800
vn 0.3530 0.6949 -0.6265
vn -0.8352 -0.4223 0.3523
vn -0.7889 -0.4850 0.3773
vn -0.7888 0.4852 0.3774
vn -0.9173 -0.2623 0.2996
vn 0.0000 -1.0000 -0.0001
vn 0.0000 -1.0000 0.0001
vn 0.0000 1.0000 -0.0001
vn -0.8797 0.0000 -0.4754
vn 0.3534 0.6939 -0.6274
vn -0.8353 -0.4223 0.3520
vn -0.7890 -0.4849 0.3772
vn -0.7888 0.4852 0.3772
vn -0.9173 -0.2624 0.2996
vn -0.5090 -0.1077 -0.8540
vn -0.8798 0.0001 -0.4754
vn -0.0003 0.0379 -0.9993
vn -0.0386 -0.0006 -0.9993
vn -0.0384 0.0765 -0.9963
vn 0.0380 -0.0006 -0.9993
vn 0.0378 0.0765 -0.9964
usemtl black_plasitc
s 1
f 1/1/1 2/2/1 3/3/1
f 4/4/2 5/5/2 6/6/2
f 1/1/1 7/7/1 2/2/1
f 4/4/2 8/8/2 5/5/2
f 9/9/3 10/10/4 11/11/4
f 12/12/5 13/13/6 14/14/6
f 9/9/3 11/11/4 15/15/3
f 12/12/5 14/14/6 16/16/5
f 17/17/7 18/18/7 19/19/7
f 17/17/7 20/20/7 18/18/7
f 207/21/8 208/22/9 209/23/10
f 210/24/11 211/25/12 212/26/13
f 213/27/14 214/28/14 215/29/14
f 216/30/15 217/31/15 218/32/15
f 219/33/16 220/34/16 221/35/16
f 222/36/17 223/37/17 224/38/17
f 225/39/18 226/40/19 227/41/20
f 228/42/21 229/43/22 225/39/18
f 227/41/20 230/44/23 231/45/20
f 228/42/21 230/44/23 232/46/24
f 233/47/25 234/48/25 235/49/25
f 236/50/1 237/51/1 238/52/1
f 207/21/8 239/53/26 208/22/9
f 210/24/11 240/54/27 211/25/12
f 213/27/14 241/55/14 214/28/14
f 216/30/15 242/56/15 217/31/15
f 219/33/16 243/57/16 220/34/16
f 222/36/17 244/58/28 223/37/17
f 225/39/18 229/43/22 226/40/19
f 228/42/21 232/46/24 229/43/22
f 227/41/20 226/40/19 230/44/23
f 228/42/21 231/45/20 230/44/23
f 233/47/25 245/59/25 234/48/25
f 236/50/1 246/60/1 237/51/1
usemtl panel_metalic
f 22/61/29 23/62/30 24/63/31
f 27/64/32 28/65/33 29/66/34
f 32/67/35 34/68/36 21/69/37
f 35/70/38 32/67/35 21/69/37
f 33/71/39 31/72/40 34/68/36
f 31/72/40 36/73/41 35/70/38
f 39/74/42 38/75/43 37/76/44
f 40/77/45 41/78/46 42/79/47
f 40/77/45 42/79/47 39/74/42
f 25/80/48 26/81/49 27/64/32
f 43/82/2 44/83/2 45/84/2
f 46/85/1 47/86/1 48/87/1
f 49/88/2 50/89/2 51/90/2
f 52/91/1 53/92/1 54/93/1
f 56/94/2 57/95/2 58/96/2
f 59/97/50 60/98/50 61/99/50
f 62/100/50 63/101/50 64/102/50
f 65/103/50 63/101/50 66/104/50
f 69/105/51 71/106/52 55/107/53
f 72/108/54 69/105/51 55/107/53
f 70/109/55 68/110/56 71/106/52
f 68/110/56 73/111/57 72/108/54
f 76/112/58 75/113/59 74/114/44
f 77/115/45 78/116/60 79/117/47
f 77/115/45 79/117/47 76/112/58
f 80/118/61 81/119/62 82/120/63
f 83/121/64 84/122/65 85/123/66
f 82/120/63 87/124/67 88/125/34
f 90/126/68 91/127/50 92/128/68
f 95/129/69 96/130/70 97/131/50
f 98/132/71 99/133/72 100/134/50
f 92/128/68 101/135/68 100/134/50
f 85/123/66 86/136/73 80/118/61
f 104/137/63 105/138/67 106/139/34
f 102/140/64 109/141/65 110/142/66
f 107/143/61 111/144/62 104/137/63
f 110/142/66 108/145/73 107/143/61
f 112/146/1 113/147/1 114/148/1
f 115/149/1 116/150/1 117/151/1
f 118/152/2 119/153/2 120/154/2
f 66/104/50 123/155/68 122/156/50
f 24/63/31 124/157/74 25/80/48
f 127/158/32 128/159/33 129/160/34
f 125/161/29 126/162/30 132/163/31
f 130/164/48 131/165/49 127/158/32
f 132/163/31 133/166/74 130/164/48
f 25/80/48 124/157/74 26/81/49
f 27/64/32 26/81/49 28/65/33
f 22/61/29 134/167/75 23/62/30
f 32/67/35 33/71/39 34/68/36
f 35/70/38 36/73/41 32/67/35
f 33/71/39 30/168/76 31/72/40
f 31/72/40 30/168/76 36/73/41
f 37/76/77 41/78/78 38/75/79
f 39/74/42 42/79/47 38/75/43
f 40/77/45 37/76/80 41/78/46
f 135/169/2 136/170/81 43/82/2
f 43/82/2 137/171/2 44/83/2
f 44/83/2 138/172/2 45/84/2
f 45/84/2 139/173/82 140/174/2
f 140/174/2 135/169/2 45/84/2
f 135/169/2 43/82/2 45/84/2
f 141/175/1 142/176/1 47/86/1
f 142/176/1 48/87/1 47/86/1
f 48/87/1 143/177/83 144/178/1
f 144/178/1 145/179/1 48/87/1
f 145/179/1 146/180/1 48/87/1
f 146/180/1 46/85/1 48/87/1
f 147/181/2 148/182/2 49/88/2
f 49/88/2 149/183/2 50/89/2
f 50/89/2 150/184/2 51/90/2
f 51/90/2 151/185/81 152/186/2
f 152/186/2 147/181/2 51/90/2
f 147/181/2 49/88/2 51/90/2
f 153/187/1 154/188/1 53/92/1
f 154/188/1 54/93/1 53/92/1
f 54/93/1 155/189/1 156/190/1
f 156/190/1 157/191/1 54/93/1
f 157/191/1 158/192/1 54/93/1
f 158/192/1 52/91/1 54/93/1
f 159/193/2 160/194/81 56/94/2
f 56/94/2 161/195/2 57/95/2
f 57/95/2 162/196/2 58/96/2
f 58/96/2 163/197/2 164/198/2
f 164/198/2 159/193/2 58/96/2
f 159/193/2 56/94/2 58/96/2
f 196/199/50 62/100/50 165/200/50
f 165/200/50 166/201/50 196/199/50
f 166/201/50 59/97/50 61/99/50
f 196/199/50 166/201/50 61/99/50
f 65/103/50 64/102/50 63/101/50
f 64/102/50 167/202/68 165/200/50
f 167/202/68 168/203/84 165/200/50
f 165/200/50 62/100/50 64/102/50
f 169/204/72 65/103/50 66/104/50
f 69/105/51 70/109/55 71/106/52
f 72/108/54 73/111/57 69/105/51
f 70/109/55 67/205/85 68/110/56
f 68/110/56 67/205/85 73/111/57
f 74/114/86 78/116/87 75/113/88
f 76/112/58 79/117/47 75/113/59
f 77/115/45 74/114/89 78/116/60
f 80/118/61 86/136/73 81/119/62
f 83/121/64 89/206/90 84/122/65
f 82/120/63 81/119/62 87/124/67
f 92/128/68 170/207/72 171/208/50
f 171/208/50 90/126/68 92/128/68
f 93/209/50 91/127/50 90/126/68
f 90/126/68 94/210/50 93/209/50
f 94/210/50 172/211/68 173/212/68
f 172/211/68 174/213/91 173/212/68
f 173/212/68 93/209/50 94/210/50
f 175/214/68 93/209/50 173/212/68
f 173/212/68 176/215/50 175/214/68
f 176/215/50 95/129/69 97/131/50
f 175/214/68 176/215/50 97/131/50
f 177/216/50 100/134/50 101/135/68
f 101/135/68 175/214/68 97/131/50
f 97/131/50 177/216/50 101/135/68
f 177/216/50 98/132/71 100/134/50
f 92/128/68 91/127/50 101/135/68
f 85/123/66 84/122/65 86/136/73
f 104/137/63 111/144/62 105/138/67
f 102/140/64 103/217/90 109/141/65
f 107/143/61 108/145/73 111/144/62
f 110/142/66 109/141/65 108/145/73
f 178/218/1 179/219/1 113/147/1
f 179/219/1 114/148/1 113/147/1
f 114/148/1 180/220/1 181/221/1
f 181/221/1 182/222/1 114/148/1
f 182/222/1 183/223/1 114/148/1
f 183/223/1 112/146/1 114/148/1
f 184/224/1 185/225/1 116/150/1
f 185/225/1 117/151/1 116/150/1
f 117/151/1 186/226/1 187/227/1
f 187/227/1 188/228/1 117/151/1
f 188/228/1 189/229/1 117/151/1
f 189/229/1 115/149/1 117/151/1
f 190/230/2 191/231/81 118/152/2
f 118/152/2 192/232/2 119/153/2
f 119/153/2 193/233/2 120/154/2
f 120/154/2 194/234/82 195/235/2
f 195/235/2 190/230/2 120/154/2
f 190/230/2 118/152/2 120/154/2
f 123/155/68 196/199/50 197/236/50
f 197/236/50 122/156/50 123/155/68
f 61/99/50 197/236/50 196/199/50
f 197/236/50 121/237/68 122/156/50
f 66/104/50 63/101/50 123/155/68
f 24/63/31 23/62/30 124/157/74
f 125/161/29 198/238/75 126/162/30
f 127/158/32 131/165/49 128/159/33
f 130/164/48 133/166/74 131/165/49
f 132/163/31 126/162/30 133/166/74
f 199/239/68 200/240/50 201/241/50
f 202/242/50 203/243/50 204/244/50
f 199/239/68 205/245/68 200/240/50
f 202/242/50 206/246/50 203/243/50
usemtl reflective
f 247/247/92 249/248/93 248/249/94
f 247/247/92 250/250/95 249/248/93
f 247/247/92 248/249/94 251/251/96
f 247/247/92 251/251/96 250/250/95
