# Blender v3.3.0 OBJ File: 'f-86.blend'
# www.blender.org
mtllib f-84.mtl
o Plane
v -5.559038 0.000000 -0.366898
v 1.995234 0.358930 0.000000
v -0.055034 0.023006 -0.497261
v -6.892251 -0.394309 0.000000
v 1.995234 0.000000 -0.352472
v -2.997902 -0.007911 -0.510200
v -0.797794 -0.007911 -0.537754
v -2.582253 -0.007911 -5.744654
v -1.185317 -0.007911 -5.744654
v 0.036029 -0.437707 0.000000
v -2.164079 -0.437707 0.000000
v 1.995234 -0.313192 0.000000
v 0.525926 0.551724 0.000000
v -0.029775 0.994017 0.000000
v -0.880337 1.107425 0.000000
v -1.333971 1.039380 0.000000
v -1.912353 0.687814 0.000000
v -2.200875 0.591798 0.000000
v -5.232928 0.507528 0.000000
v -7.013160 0.540405 0.000000
v -6.891972 -0.011319 -0.340390
v -6.952566 0.264543 -0.169371
v -6.190845 0.264543 -0.169371
v -7.044927 0.268919 -1.685549
v -6.283206 0.268919 -1.685549
v -5.731925 0.813731 0.000000
v -6.571147 2.003351 0.000000
v -7.081485 2.003351 0.000000
v 0.113199 0.472752 -0.352472
v -0.647013 0.445406 -0.333324
v -1.461916 0.494628 -0.229465
v 1.030227 0.189119 0.000000
v 1.030227 0.007533 -0.133334
v 1.030227 -0.150913 0.000000
v -5.964459 -0.196752 0.000000
v -6.037029 0.364263 0.000000
v -5.964292 0.033119 -0.223263
v -6.000660 0.198691 -0.120618
v -1.897848 0.099565 -0.546291
v -5.232928 0.507528 0.000000
v -7.013160 0.540405 0.000000
v -5.731925 0.813731 0.000000
v -6.571147 2.003351 0.000000
v -7.081485 2.003351 0.000000
v -5.559038 0.000000 0.366898
v -0.055034 0.023006 0.497261
v 1.995234 0.000000 0.352472
v -2.997902 -0.007911 0.510200
v -0.797794 -0.007911 0.537754
v -2.582253 -0.007911 5.744654
v -1.185317 -0.007911 5.744654
v -6.891972 -0.011319 0.340390
v -6.952566 0.264543 0.169371
v -6.190845 0.264543 0.169371
v -7.044927 0.268919 1.685549
v -6.283206 0.268919 1.685549
v 0.113199 0.472752 0.352472
v -0.647013 0.445406 0.333324
v -1.461916 0.494628 0.229465
v 1.030227 0.007533 0.133334
v -5.964292 0.033119 0.223263
v -6.000660 0.198691 0.120618
v -1.897848 0.099565 0.546291
vt 0.000000 0.000000
vt 0.000000 0.000000
vt 0.000000 0.000000
vt 0.000000 0.000000
vt 0.000000 0.000000
vt 0.000000 0.000000
vt 0.000000 0.000000
vt 0.000000 0.000000
vt 0.000000 0.000000
vt 0.000000 0.000000
vt 0.000000 0.000000
vt 0.000000 0.000000
vt 0.000000 0.000000
vt 0.000000 0.000000
vt 0.000000 0.000000
vt 0.000000 0.000000
vt 0.000000 0.000000
vt 0.000000 0.000000
vt 0.000000 0.000000
vt 0.000000 0.000000
vt 0.000000 0.000000
vt 0.000000 0.000000
vt 0.000000 0.000000
vt 0.000000 0.000000
vt 0.000000 0.000000
vt 0.000000 0.000000
vt 0.000000 0.000000
vt 0.000000 0.000000
vt 0.000000 0.000000
vt 0.000000 0.000000
vt 0.000000 0.000000
vt 0.000000 0.000000
vt 0.000000 0.000000
vt 0.000000 0.000000
vt 0.000000 0.000000
vt 0.000000 0.000000
vt 0.000000 0.000000
vt 0.000000 0.000000
vt 0.000000 0.000000
vt 0.000000 0.000000
vt 0.000000 0.000000
vt 0.000000 0.000000
vt 0.000000 0.000000
vt 0.000000 0.000000
vt 0.000000 0.000000
vt 0.000000 0.000000
vt 0.000000 0.000000
vt 0.000000 0.000000
vt 0.000000 0.000000
vt 0.000000 0.000000
vt 0.000000 0.000000
vt 0.000000 0.000000
vt 0.000000 0.000000
vt 0.000000 0.000000
vt 0.000000 0.000000
vt 0.000000 0.000000
vt 0.000000 0.000000
vt 0.000000 0.000000
vt 0.000000 0.000000
vt 0.000000 0.000000
vt 0.000000 0.000000
vt 0.000000 0.000000
vt 0.000000 0.000000
vn -0.2199 0.6609 -0.7175
vn -0.0821 0.6771 -0.7313
vn -0.0554 0.6612 -0.7482
vn 0.0460 0.3979 -0.9163
vn -0.0975 0.9952 -0.0077
vn 0.0916 0.6977 -0.7105
vn -0.0353 0.3182 -0.9474
vn 0.0707 0.2816 -0.9569
vn 0.0385 -0.7470 -0.6637
vn 0.4618 0.5803 -0.6708
vn 0.0622 0.4662 -0.8825
vn -0.0599 0.3994 -0.9148
vn -0.2589 0.4260 -0.8669
vn 0.0000 0.0000 -1.0000
vn 0.0101 0.5448 -0.8385
vn 0.0000 -1.0000 -0.0029
vn -0.0063 0.5885 -0.8085
vn 0.0000 0.5269 -0.8499
vn -0.0092 -0.6643 -0.7474
vn 0.0332 0.4017 -0.9152
vn -0.0925 0.7137 -0.6944
vn 0.0472 -0.7433 -0.6673
vn 0.0000 -0.7812 -0.6243
vn -0.0071 -0.7704 -0.6375
vn 0.1548 0.7385 0.6562
vn 0.1547 -0.6922 0.7049
vn -0.0967 -0.5361 0.8386
vn -0.0802 -0.5379 0.8392
vn -0.1230 0.6915 0.7118
vn -0.0080 -0.7712 -0.6366
vn 0.0000 -1.0000 0.0000
vn 0.0000 0.0000 1.0000
vn -0.0184 0.6619 -0.7493
vn -0.0427 0.6032 -0.7964
vn -0.0200 -0.6441 -0.7647
vn -0.0538 0.2235 -0.9732
vn -0.0469 -0.5909 -0.8054
vn 0.1218 0.9285 -0.3507
vn -0.1496 0.3680 0.9177
vn 0.1733 0.6901 -0.7027
vn -0.2199 0.6609 0.7175
vn -0.0821 0.6771 0.7313
vn -0.0554 0.6612 0.7482
vn 0.0460 0.3979 0.9163
vn 0.0000 0.9998 0.0207
vn 0.0916 0.6977 0.7105
vn -0.0353 0.3182 0.9474
vn 0.0707 0.2816 0.9569
vn 0.0385 -0.7470 0.6637
vn 0.4618 0.5803 0.6708
vn 0.0622 0.4662 0.8825
vn -0.0599 0.3994 0.9148
vn -0.2589 0.4260 0.8669
vn 0.0101 0.5448 0.8385
vn 0.0000 -1.0000 0.0029
vn -0.0063 0.5885 0.8085
vn -0.0212 0.5652 0.8247
vn -0.0092 -0.6643 0.7474
vn 0.0332 0.4017 0.9152
vn -0.0925 0.7137 0.6944
vn 0.0472 -0.7433 0.6673
vn -0.0625 -0.6962 0.7151
vn -0.0071 -0.7704 0.6375
vn 0.1548 0.7385 -0.6562
vn 0.1036 -0.5887 -0.8017
vn -0.0822 -0.5986 -0.7968
vn -0.0802 -0.5379 -0.8392
vn -0.1401 0.6578 -0.7400
vn -0.0080 -0.7712 0.6366
vn -0.0184 0.6619 0.7493
vn -0.0427 0.6032 0.7964
vn -0.0200 -0.6441 0.7647
vn -0.0538 0.2235 0.9732
vn -0.0469 -0.5909 0.8054
vn 0.1218 0.9285 0.3507
vn -0.1496 0.3680 -0.9177
vn 0.1733 0.6901 0.7027
vn 0.0973 0.9952 -0.0072
vn 0.0000 0.9998 -0.0207
vn 0.2177 0.8666 -0.4491
vn 0.0682 -0.6733 -0.7362
vn -0.0408 0.5520 -0.8329
vn -0.0894 0.4226 -0.9019
vn 0.0000 0.5232 -0.8522
vn -0.0212 0.5652 -0.8247
vn 0.0481 -0.7238 -0.6884
vn -0.0625 -0.6962 -0.7151
vn 0.1076 0.6401 0.7607
vn 0.1036 -0.5887 0.8017
vn -0.0822 -0.5986 0.7968
vn -0.1401 0.6578 0.7400
vn 0.0973 0.9952 0.0072
vn -0.0975 0.9952 0.0077
vn 0.2177 0.8666 0.4491
vn 0.0682 -0.6733 0.7362
vn -0.0408 0.5520 0.8329
vn -0.0894 0.4226 0.9019
vn 0.0000 0.5232 0.8522
vn 0.0000 0.5269 0.8499
vn 0.0481 -0.7238 0.6884
vn 0.0000 -0.7812 0.6243
vn 0.1076 0.6401 -0.7607
vn 0.1547 -0.6922 -0.7049
vn -0.0967 -0.5361 -0.8386
vn -0.1230 0.6915 -0.7118
usemtl None
s off
f 39/1/1 18/2/1 17/3/1
f 31/4/2 39/1/2 17/3/2
f 39/1/3 31/4/3 30/5/3
f 39/1/4 30/5/4 7/6/4
f 8/7/5 6/8/5 39/1/5
f 5/9/6 13/10/6 2/11/6
f 29/12/7 3/13/7 30/5/7
f 3/13/8 29/12/8 5/9/8
f 12/14/9 3/13/9 5/9/9
f 13/10/10 29/12/10 14/15/10
f 14/15/11 30/5/11 15/16/11
f 15/16/12 31/4/12 16/17/12
f 16/17/13 31/4/13 17/3/13
f 19/18/14 20/19/14 26/20/14
f 20/19/14 27/21/14 26/20/14
f 23/22/15 20/19/15 19/18/15
f 22/23/16 25/24/16 23/22/16
f 19/18/17 1/25/17 23/22/17
f 23/22/18 21/26/18 22/23/18
f 21/26/19 1/25/19 4/27/19
f 7/6/20 30/5/20 3/13/20
f 6/8/21 18/2/21 39/1/21
f 10/28/22 7/6/22 12/14/22
f 7/6/23 10/28/23 11/29/23
f 6/8/24 11/29/24 4/27/24
f 33/30/25 12/14/25 5/9/25
f 2/11/26 33/30/26 5/9/26
f 22/23/27 36/31/27 20/19/27
f 21/26/28 38/32/28 22/23/28
f 21/26/29 35/33/29 37/34/29
f 7/6/30 11/29/30 6/8/30
f 8/7/31 7/6/31 6/8/31
f 40/35/32 42/36/32 41/37/32
f 43/38/32 41/37/32 42/36/32
f 18/2/33 6/8/33 19/18/33
f 19/18/34 6/8/34 1/25/34
f 39/1/35 4/27/35 1/25/35
f 1/25/36 39/1/36 6/8/36
f 4/27/37 1/25/37 6/8/37
f 29/12/38 13/10/38 2/11/38
f 10/28/39 2/11/39 29/12/39
f 29/12/40 2/11/40 5/9/40
f 63/39/41 17/3/41 18/2/41
f 59/40/42 17/3/42 63/39/42
f 63/39/43 58/41/43 59/40/43
f 63/39/44 49/42/44 58/41/44
f 63/39/45 50/43/45 51/44/45
f 13/10/46 47/45/46 2/11/46
f 57/46/47 58/41/47 46/47/47
f 46/47/48 47/45/48 57/46/48
f 46/47/49 12/14/49 47/45/49
f 13/10/50 14/15/50 57/46/50
f 58/41/51 14/15/51 15/16/51
f 59/40/52 15/16/52 16/17/52
f 16/17/53 17/3/53 59/40/53
f 20/19/54 54/48/54 19/18/54
f 56/49/55 53/50/55 54/48/55
f 19/18/56 54/48/56 45/51/56
f 54/48/57 52/52/57 45/51/57
f 52/52/58 4/27/58 45/51/58
f 49/42/59 46/47/59 58/41/59
f 48/53/60 63/39/60 18/2/60
f 10/28/61 12/14/61 49/42/61
f 11/29/62 49/42/62 63/39/62
f 48/53/63 4/27/63 11/29/63
f 12/14/64 60/54/64 47/45/64
f 2/11/65 60/54/65 32/55/65
f 53/50/66 36/31/66 62/56/66
f 62/56/67 52/52/67 53/50/67
f 52/52/68 35/33/68 4/27/68
f 49/42/69 48/53/69 11/29/69
f 50/43/31 49/42/31 51/44/31
f 18/2/70 19/18/70 48/53/70
f 19/18/71 45/51/71 48/53/71
f 63/39/72 45/51/72 4/27/72
f 45/51/73 48/53/73 63/39/73
f 4/27/74 48/53/74 45/51/74
f 57/46/75 2/11/75 13/10/75
f 10/28/76 57/46/76 2/11/76
f 57/46/77 47/45/77 2/11/77
f 39/1/78 7/6/78 9/57/78
f 9/57/79 8/7/79 39/1/79
f 5/9/80 29/12/80 13/10/80
f 12/14/81 7/6/81 3/13/81
f 14/15/82 29/12/82 30/5/82
f 15/16/83 30/5/83 31/4/83
f 20/19/14 28/58/14 27/21/14
f 23/22/84 22/23/84 20/19/84
f 22/23/16 24/59/16 25/24/16
f 23/22/85 1/25/85 21/26/85
f 11/29/86 6/8/86 39/1/86
f 39/1/87 7/6/87 11/29/87
f 33/30/88 34/60/88 12/14/88
f 2/11/89 32/55/89 33/30/89
f 22/23/90 38/32/90 36/31/90
f 21/26/28 37/34/28 38/32/28
f 21/26/91 4/27/91 35/33/91
f 8/7/31 9/57/31 7/6/31
f 43/38/32 44/61/32 41/37/32
f 51/44/92 49/42/92 63/39/92
f 63/39/93 48/53/93 50/43/93
f 13/10/94 57/46/94 47/45/94
f 46/47/95 49/42/95 12/14/95
f 58/41/96 57/46/96 14/15/96
f 59/40/97 58/41/97 15/16/97
f 20/19/98 53/50/98 54/48/98
f 56/49/55 55/62/55 53/50/55
f 54/48/99 53/50/99 52/52/99
f 63/39/100 48/53/100 11/29/100
f 11/29/101 10/28/101 49/42/101
f 12/14/102 34/60/102 60/54/102
f 2/11/103 47/45/103 60/54/103
f 53/50/104 20/19/104 36/31/104
f 62/56/67 61/63/67 52/52/67
f 52/52/105 61/63/105 35/33/105
f 50/43/31 48/53/31 49/42/31
