# Blender v3.4.1 OBJ File: 'alco pa1 retextured.blend'
# www.blender.org
mtllib frame.mtl
o model.004_Plane.006_Plane.008
v 5.774859 1.348353 41.643703
v 4.803113 2.488819 41.643703
v 5.774859 2.488819 41.643703
v 5.943658 1.348985 40.503242
v 4.943516 1.348791 40.503242
v 5.930970 2.488820 40.503239
v 5.771571 1.348353 41.643539
v 4.948824 1.348353 40.503239
v 4.800368 1.348353 41.643589
v 5.774859 2.488819 41.643703
v 4.932955 2.488820 40.503239
v 5.930970 2.488820 40.503239
v 4.803113 1.348353 41.643703
v 4.932955 2.488820 40.503239
v 5.950049 1.348353 40.503239
v 4.803113 2.488819 41.643703
v -1.848490 5.387577 8.116484
v -1.840808 2.343111 -7.069904
v -1.848490 2.343111 8.116485
v -1.848490 4.446651 11.631993
v -1.848490 7.491117 11.631992
v -1.848489 7.491102 39.042549
v -1.840808 5.387578 -7.069904
v -1.840809 4.446653 -10.991397
v -1.840808 7.491119 -10.991397
v -1.840811 4.446671 -39.290524
v -1.848487 5.387559 42.484417
v -5.629202 5.823080 -6.845242
v -5.636885 5.387577 8.116485
v -5.636884 7.491102 39.042549
v -5.636884 7.491117 11.631993
v -5.629203 7.491137 -39.290520
v -1.840810 7.491137 -39.290524
v 1.840807 2.343111 -7.069904
v 1.848492 5.387577 8.116484
v 1.848492 2.343111 8.116485
v 1.848492 4.446651 11.631993
v 1.848496 7.491102 39.042549
v 1.848492 7.491117 11.631992
v 1.840807 4.446653 -10.991397
v 1.840807 5.387578 -7.069904
v 1.840804 4.446671 -39.290524
v 1.840806 7.491119 -10.991397
v 1.848495 5.387559 42.484417
v 5.629201 7.491119 -10.991398
v 5.636886 5.387577 8.116483
v 5.629201 5.387578 -7.069905
v 5.636891 7.491102 39.042549
v 5.636886 7.491117 11.631991
v 5.629196 7.491137 -39.290520
v -1.848488 4.446636 39.042549
v 1.848495 4.446636 39.042549
v 1.840803 7.491137 -39.290524
v -1.840809 4.446654 -10.991397
v 1.840804 4.446671 -39.290524
v -1.848490 4.446651 11.631993
v -1.848488 4.446637 39.042549
v 1.840807 4.446653 -10.991397
v 1.848492 4.446651 11.631992
v -1.840811 4.446671 -39.290524
v 1.848495 4.446636 39.042549
v -1.840808 2.343111 -7.069904
v -1.840809 4.446653 -10.991397
v 1.840807 2.343112 -7.069904
v 1.840807 4.446653 -10.991397
v -1.848490 2.343111 8.116484
v 1.848492 4.446650 11.631992
v -1.848490 4.446651 11.631993
v 1.848492 2.343111 8.116485
v -2.523717 5.387595 -39.290524
v -6.306386 3.510063 -7.499052
v -5.880730 3.485896 -7.463684
v -6.318062 5.080130 -8.879650
v -5.895455 5.186664 -9.109430
v -6.057787 1.584061 -7.327260
v -5.634593 1.584061 -7.327260
v -6.322366 5.387595 -39.290524
v 2.523710 5.387595 -39.290524
v 6.306385 3.510057 -7.499051
v 5.880729 3.485897 -7.463685
v 6.318060 5.080131 -8.879654
v 5.895453 5.186664 -9.109432
v 6.057786 1.584061 -7.327261
v 6.322359 5.387595 -39.290524
v -5.899171 5.387595 -39.290524
v 5.634592 1.584061 -7.327261
v 5.899165 5.387595 -39.290524
v -3.556895 1.135490 7.703228
v 3.556896 0.902970 8.081179
v 3.556896 1.960060 6.661503
v -3.556895 5.565395 7.810504
v 3.556896 5.389060 8.063634
v -2.523717 5.387595 -40.765030
v -1.393713 5.387595 -40.765030
v -1.393713 5.387595 -40.431873
v 1.393706 5.387595 -40.431873
v 2.523710 5.387595 -40.765030
v 2.523710 5.387595 -39.290524
v -0.000004 5.387595 -40.431873
v -0.000003 5.387595 -39.290524
v -2.523717 5.387595 -39.290524
v -0.000003 5.387595 -39.290524
v -0.000004 5.387595 -40.431873
v 1.393706 5.387595 -40.765030
v -5.542109 0.876241 -7.069904
v -3.549213 5.387578 -7.069904
v -3.549213 0.876241 -7.069904
v -3.549213 5.387578 -7.069904
v -1.840808 2.343111 -7.069904
v -3.549213 0.876241 -7.069904
v 1.840807 2.343111 -7.069904
v 1.840807 5.387578 -7.069904
v 3.549212 5.387578 -7.069905
v -1.840808 2.343111 -7.069904
v 1.840807 2.343111 -7.069904
v 3.549212 0.876241 -7.069905
v -5.629202 5.387578 -7.069904
v -1.840808 5.387578 -7.069904
v 5.629201 5.387578 -7.069905
v 5.542108 0.876241 -7.069905
v 3.564578 0.876241 -7.069904
v -3.549213 0.876241 -7.069904
v -5.893130 4.552157 -8.268291
v -5.825025 4.580783 -5.826917
v -5.823140 3.329762 -7.419142
v 5.893128 4.552159 -8.268296
v 5.894856 5.802942 -6.676066
v -5.903448 6.570541 -8.198644
v -5.902936 5.319749 -9.790859
v 5.899543 5.319752 -9.790854
v 6.322359 6.638382 -39.290524
v 6.322359 5.387595 -39.290524
v -5.634593 2.834849 -5.735039
v -5.634593 1.584061 -7.327260
v 5.825023 4.580788 -5.826919
v 5.823139 3.329764 -7.419144
v 5.921627 6.570178 -8.197707
v 5.634592 2.834849 -5.735040
v 5.634592 1.584061 -7.327261
v -5.899171 6.638382 -39.290524
v -5.899171 5.387595 -39.290524
v -5.894857 5.802933 -6.676051
v 5.958550 1.608655 -6.552187
v 5.691753 0.986773 -6.776385
v -5.958551 1.608655 -6.552186
v -5.691754 0.986773 -6.776384
v -6.289290 5.316155 -39.198593
v -5.692300 5.316154 -36.838676
v -6.289290 5.316154 -36.838676
v -5.692300 5.316155 -39.198593
v -5.549790 0.876241 8.116486
v -5.873294 1.221626 8.366735
v -5.805774 5.387561 36.536285
v -5.805773 6.585975 36.536285
v -5.808809 5.357666 10.945746
v -5.808993 6.585994 10.010613
v -5.805927 4.552196 9.314916
v -5.833145 4.987663 7.484222
v -5.820086 3.320422 8.460301
v -3.556895 4.753911 7.320847
v -3.556895 6.585989 10.010614
v -5.549143 1.584061 6.994856
v -3.556103 1.069535 7.839850
v -3.754786 1.055212 43.550449
v -1.848487 1.797969 43.011036
v -1.955105 1.797969 44.081005
v -5.413115 1.054768 42.027348
v -5.500354 5.387859 41.894146
v -1.975897 5.381295 43.502712
v -5.800645 3.645646 38.301937
v -5.868300 4.832523 37.581917
v -3.754786 1.055212 43.011032
v 0.000004 1.797969 43.011032
v -1.875500 1.058767 43.011024
v -3.371750 0.830607 43.011032
v 5.549791 0.876241 8.116484
v 5.805780 6.585975 36.536285
v 5.805781 5.387561 36.536285
v 5.808994 6.585994 10.010612
v 5.808811 5.357665 10.945745
v 5.805929 4.552196 9.314914
v 5.833146 4.987664 7.484222
v 5.820088 3.320421 8.460299
v 3.556896 4.753910 7.320846
v 3.556897 6.585989 10.010614
v 5.549144 1.584061 6.994855
v 5.873296 1.221625 8.366733
v 3.556104 1.069536 7.839850
v 3.754794 1.055212 43.550449
v 1.848495 1.797969 43.011036
v 3.754794 1.055212 43.011032
v 5.500362 5.387859 41.894146
v 5.413122 1.054768 42.027348
v 1.975904 5.381295 43.502712
v 5.868309 4.832522 37.581917
v 5.800652 3.645646 38.301937
v 1.884751 1.039255 43.011028
v 3.371758 0.830607 43.011032
v -5.796690 1.087287 38.688812
v -5.777973 1.429038 38.357021
v -1.955104 0.365745 43.011032
v -3.329187 0.365745 43.011032
v 1.955112 1.797969 44.081005
v 5.796697 1.087287 38.688812
v 5.777980 1.429038 38.357021
v 3.329195 0.365745 43.011032
v 1.955112 0.365745 43.011032
v -5.712906 2.488819 41.643665
v -4.803107 2.488819 41.643703
v -4.803107 1.348353 41.643703
v -5.712906 1.348353 41.643703
v 5.725372 4.736403 1.813347
v 5.725372 4.736403 1.721405
v -5.725372 4.736403 1.813347
v -5.725372 4.736403 1.721405
v -6.262600 5.387566 36.536293
v -6.211754 5.387559 38.512482
v -5.805776 6.585987 11.507545
v -5.805773 6.585975 36.536285
v 0.000003 6.585976 36.536285
v 0.000001 6.585988 11.507545
v -6.241930 5.387568 24.198282
v -6.161977 5.387568 26.739559
v 1.964040 11.064949 43.870667
v 5.805778 6.585987 11.507545
v 0.000003 6.585976 36.536285
v 5.805779 6.585975 36.536285
v 0.000001 6.585988 11.507545
v 1.955112 11.055670 43.836369
v 1.955112 11.360719 43.871929
v -1.955105 11.055670 43.836369
v -1.955105 11.360719 43.871929
v -1.964035 11.064949 43.870667
v -6.242407 5.387564 26.737041
v -6.322361 5.387564 24.195765
v 6.242174 5.387564 26.739561
v 6.242173 5.387564 24.195765
v -6.289290 5.316146 24.287704
v -5.692300 5.316146 26.647621
v -6.289290 5.316146 26.647621
v -5.692300 5.316146 24.287704
v -5.881749 1.348950 40.503204
v -4.943511 1.348791 40.503239
v -4.932949 2.488820 40.503239
v -5.869019 2.488821 40.503242
v -5.709381 1.348353 41.643517
v -4.948818 1.348353 40.503239
v -5.887946 1.348353 40.503185
v -4.800362 1.348353 41.643589
v -6.322362 5.387577 1.976296
v -6.322362 5.387577 1.813347
v -0.000003 5.387595 -39.290524
v -6.322364 5.387569 18.921722
v -6.322363 5.387577 7.775918
v -6.289290 5.387564 26.739561
v -6.289290 5.387564 24.195765
v -5.725372 5.316149 1.721405
v -1.955105 11.055670 43.862648
v 6.289290 5.387564 26.739561
v 6.289290 5.387564 24.195765
v 6.161977 5.387564 26.739561
v 6.161977 5.387564 24.195765
v 5.725372 5.316149 1.721405
v 1.955111 11.055670 43.862648
v -6.161977 5.387564 26.739561
v -6.161977 5.387564 24.195765
v -3.549213 0.876241 -7.069904
v -3.549213 5.387578 -7.069904
v 3.549212 0.876241 -7.069905
v 3.549212 5.387578 -7.069905
v 6.322362 5.387577 1.976296
v 6.322362 5.387577 1.813347
v -1.848490 5.387577 8.116484
v -1.840808 2.343111 -7.069904
v -1.848490 2.343111 8.116485
v -1.840808 5.387578 -7.069904
v -5.636885 5.387577 8.116485
v -5.629202 5.387578 -7.069904
v 1.840807 2.343111 -7.069904
v 1.848492 5.387577 8.116484
v 1.848492 2.343111 8.116485
v 1.840807 5.387578 -7.069904
v 5.636886 5.387577 8.116483
v 5.629201 5.387578 -7.069905
v -1.840808 2.343111 -7.069904
v -1.848490 2.343111 8.116484
v 1.840807 2.343111 -7.069904
v 1.848492 2.343111 8.116485
vt 0.767967 0.339650
vt 0.757992 0.327944
vt 0.767967 0.327944
vt 0.747749 0.327944
vt 0.757830 0.339621
vt 0.747553 0.339618
vt 0.102433 0.853625
vt 0.112402 0.843159
vt 0.112317 0.854960
vt 0.338843 0.791517
vt 0.338125 0.800159
vt 0.338125 0.789915
vt 0.757992 0.339650
vt 0.757993 0.327944
vt 0.102218 0.841782
vt 0.338843 0.801491
vt 0.423470 0.317432
vt 0.413812 0.281349
vt 0.445060 0.281345
vt 0.445060 0.000000
vt 0.423470 0.473309
vt 0.413813 0.513557
vt 0.392223 0.473309
vt 0.445060 0.513557
vt 0.413812 0.804024
vt 0.334192 0.803920
vt 0.334154 0.842805
vt 0.312601 0.803920
vt 0.273716 0.768051
vt 0.312601 0.791818
vt 0.273716 0.791818
vt 0.312601 0.750774
vt 0.312601 0.768051
vt 0.425246 0.804025
vt 0.407409 0.842910
vt 0.407409 0.804025
vt 0.370631 0.486595
vt 0.360974 0.522678
vt 0.339383 0.486595
vt 0.392222 0.804024
vt 0.392222 0.522678
vt 0.360973 0.290466
vt 0.370631 0.330719
vt 0.339382 0.330719
vt 0.360974 0.000000
vt 0.392222 0.290466
vt 0.480072 0.799176
vt 0.445061 0.761229
vt 0.480072 0.761229
vt 0.102218 0.802898
vt 0.123809 0.841783
vt 0.102218 0.841783
vt 0.273637 0.760346
vt 0.234752 0.784113
vt 0.234752 0.760346
vt 0.273637 0.801390
vt 0.273637 0.784113
vt 0.666817 0.742355
vt 0.648981 0.703470
vt 0.666817 0.703470
vt 0.392222 0.317432
vt 0.413813 0.000000
vt 0.445060 0.804024
vt 0.273716 0.750774
vt 0.425246 0.842910
vt 0.360973 0.804024
vt 0.392222 0.000000
vt 0.445061 0.799176
vt 0.123809 0.802898
vt 0.234752 0.801390
vt 0.648981 0.742355
vt 0.425246 0.804025
vt 0.443083 0.804025
vt 0.443083 0.841814
vt 0.425246 0.841814
vt 0.194335 0.808661
vt 0.194335 0.846608
vt 0.177058 0.808661
vt 0.177058 0.846608
vt 0.339382 0.804025
vt 0.360974 0.804025
vt 0.339382 0.841814
vt 0.360974 0.841814
vt 0.078452 0.840845
vt 0.102218 0.802898
vt 0.102218 0.840845
vt 0.078452 0.802898
vt 0.156200 0.868096
vt 0.159469 0.848948
vt 0.160533 0.868397
vt 0.664183 0.685299
vt 0.668527 0.703470
vt 0.664183 0.703470
vt 0.155873 0.834293
vt 0.155125 0.848318
vt 0.633070 0.815766
vt 0.636339 0.834914
vt 0.631995 0.835545
vt 0.387875 0.822196
vt 0.392219 0.804025
vt 0.392219 0.822196
vt 0.632743 0.849569
vt 0.668527 0.685299
vt 0.160271 0.833493
vt 0.637403 0.815465
vt 0.387875 0.804025
vt 0.637141 0.850369
vt 0.638971 0.742447
vt 0.635268 0.815465
vt 0.599256 0.742447
vt 0.667772 0.649736
vt 0.667772 0.638137
vt 0.667982 0.638137
vt 0.667982 0.661335
vt 0.667772 0.649736
vt 0.668702 0.649736
vt 0.508611 0.834249
vt 0.504086 0.761231
vt 0.518023 0.761231
vt 0.599315 0.815465
vt 0.667982 0.623832
vt 0.668702 0.623832
vt 0.668702 0.649736
vt 0.668702 0.675640
vt 0.667982 0.675640
vt 0.667772 0.661335
vt 0.287812 0.847695
vt 0.308267 0.801390
vt 0.308267 0.847695
vt 0.378509 0.850330
vt 0.360974 0.819081
vt 0.378509 0.804025
vt 0.117337 0.771649
vt 0.117337 0.802898
vt 0.099801 0.802898
vt 0.818147 0.365372
vt 0.818147 0.327583
vt 0.833204 0.310047
vt 0.286918 0.801390
vt 0.360974 0.850330
vt 0.078452 0.802898
vt 0.079346 0.756592
vt 0.099644 0.756592
vt 0.833204 0.382907
vt 0.694341 0.423922
vt 0.691008 0.399443
vt 0.705690 0.414153
vt 0.614435 0.698043
vt 0.636233 0.395790
vt 0.648980 0.397308
vt 0.673875 0.425476
vt 0.688553 0.440188
vt 0.708382 0.395791
vt 0.723061 0.410502
vt 0.616887 0.738789
vt 0.620220 0.714308
vt 0.631572 0.724081
vt 0.599753 0.712762
vt 0.634298 0.742447
vt 0.648980 0.727737
vt 0.710312 0.742421
vt 0.723061 0.740905
vt 0.679664 0.409210
vt 0.605538 0.729018
vt 0.816357 0.338133
vt 0.817845 0.332006
vt 0.817845 0.338133
vt 0.816357 0.332006
vt 0.836285 0.261667
vt 0.861383 -0.000000
vt 0.873552 0.001793
vt 0.841658 0.279251
vt 0.821671 0.269352
vt 0.836734 0.294627
vt 0.852752 0.289342
vt 0.481165 0.794419
vt 0.504086 0.814376
vt 0.480928 0.814376
vt 0.867929 0.307446
vt 0.504086 0.791984
vt 0.483636 0.761230
vt 0.504086 0.761230
vt 0.792041 0.388443
vt 0.799798 0.382992
vt 0.799798 0.393970
vt 0.125512 0.694351
vt 0.169981 0.728010
vt 0.125512 0.727841
vt 0.566664 0.799892
vt 0.548773 0.764623
vt 0.560383 0.756779
vt 0.162357 0.693228
vt 0.169981 0.712795
vt 0.162357 0.674254
vt 0.170510 0.692966
vt 0.836962 0.703250
vt 0.811797 0.441587
vt 0.849130 0.701452
vt 0.817166 0.424002
vt 0.797180 0.433908
vt 0.812241 0.408627
vt 0.828263 0.413907
vt 0.312601 0.803920
vt 0.335522 0.783963
vt 0.335758 0.803920
vt 0.843474 0.395791
vt 0.312601 0.781528
vt 0.333050 0.750775
vt 0.799798 0.388447
vt 0.807226 0.393887
vt 0.799804 0.393982
vt 0.223081 0.831386
vt 0.219218 0.855115
vt 0.219284 0.834660
vt 0.125512 0.654158
vt 0.169981 0.620499
vt 0.169981 0.635714
vt 0.785758 0.385663
vt 0.774157 0.377809
vt 0.792025 0.342555
vt 0.162357 0.655281
vt 0.170609 0.655392
vt 0.172472 0.639426
vt 0.873369 0.294093
vt 0.610103 0.858352
vt 0.599315 0.837903
vt 0.613248 0.839664
vt 0.792037 0.382908
vt 0.165640 0.835163
vt 0.165706 0.855618
vt 0.161843 0.831889
vt 0.566667 0.746658
vt 0.522197 0.800145
vt 0.522756 0.768805
vt 0.526128 0.765583
vt 0.172472 0.709083
vt 0.177057 0.694322
vt 0.177057 0.708426
vt 0.848945 0.409138
vt 0.312601 0.750775
vt 0.504090 0.836010
vt 0.518023 0.834249
vt 0.507236 0.854698
vt 0.807226 0.382908
vt 0.125512 0.620668
vt 0.792037 0.395790
vt 0.748146 0.373601
vt 0.747558 0.342258
vt 0.751513 0.376825
vt 0.177057 0.640083
vt 0.177057 0.654187
vt 0.777769 0.327944
vt 0.787107 0.327944
vt 0.787107 0.339650
vt 0.777769 0.339650
vt 0.548309 0.861786
vt 0.564085 0.802194
vt 0.564085 0.861786
vt 0.548309 0.802194
vt 0.839077 0.862368
vt 0.823302 0.802775
vt 0.839077 0.802775
vt 0.823302 0.862368
vt 0.123809 0.816141
vt 0.125297 0.810013
vt 0.125297 0.816141
vt 0.123809 0.810013
vt 0.767967 0.327953
vt 0.777606 0.327950
vt 0.777769 0.339628
vt 0.768161 0.339628
vt 0.433426 0.843064
vt 0.442765 0.853615
vt 0.433212 0.854908
vt 0.442680 0.841814
vt 0.423470 0.317432
vt 0.392223 0.473309
vt 0.392222 0.317432
vt 0.273716 0.791818
vt 0.312522 0.801390
vt 0.273637 0.801390
vt 0.339382 0.330719
vt 0.370631 0.486595
vt 0.339383 0.486595
vt 0.273558 0.750774
vt 0.234752 0.760346
vt 0.234673 0.750774
vt 0.423470 0.473309
vt 0.312601 0.791818
vt 0.370631 0.330719
vt 0.273637 0.760346
vt 0.032009 0.866035
vt 0.022437 0.828167
vt 0.032009 0.828088
vt 0.022437 0.865956
vn 0.0000 0.0000 -1.0000
vn -0.0000 0.0000 1.0000
vn 0.0000 1.0000 0.0000
vn 0.0000 -1.0000 -0.0000
vn -0.8021 -0.5124 0.3066
vn -1.0000 0.0000 0.0000
vn -0.6518 -0.7310 0.2020
vn -0.8793 -0.1290 0.4585
vn -0.8242 -0.4990 -0.2677
vn -0.5600 -0.8187 -0.1270
vn 0.1060 -0.9523 -0.2863
vn 0.0000 -0.8581 0.5135
vn 0.0000 -0.9639 0.2664
vn 0.0325 -0.9995 -0.0044
vn -0.7071 -0.7071 -0.0000
vn 0.8021 -0.5124 0.3066
vn 1.0000 0.0000 -0.0000
vn 0.8793 -0.1290 0.4585
vn 0.6518 -0.7310 0.2020
vn 0.7956 -0.5338 -0.2863
vn 0.6561 -0.7319 -0.1839
vn -0.0000 0.8533 0.5215
vn -0.0000 -0.9699 -0.2437
vn 0.7071 -0.7071 -0.0000
vn 0.0000 -0.8812 -0.4727
vn 0.0102 -0.0725 -0.9973
vn 0.0359 -0.3637 -0.9308
vn 0.0000 -0.0715 -0.9974
vn 0.0022 -1.0000 -0.0067
vn 0.0923 -0.9579 -0.2720
vn -0.0445 -0.8572 -0.5130
vn 0.0516 -0.4186 -0.9067
vn -0.0102 -0.0725 -0.9973
vn -0.0359 -0.3637 -0.9308
vn -0.0516 -0.4186 -0.9067
vn -0.0923 -0.9579 -0.2720
vn -0.0022 -1.0000 -0.0067
vn 0.0445 -0.8572 -0.5130
vn 0.0000 -1.0000 -0.0067
vn 0.1327 0.1009 0.9860
vn 0.0128 0.2754 0.9612
vn 0.0918 -0.1333 0.9868
vn -0.0055 0.8021 0.5972
vn -0.0423 -0.3781 0.9248
vn 0.9997 0.0197 -0.0146
vn 0.9969 0.0622 -0.0477
vn 0.9953 0.0764 -0.0593
vn -0.9996 0.0273 -0.0079
vn -0.9999 0.0009 -0.0143
vn -0.9999 0.0000 -0.0143
vn 1.0000 0.0040 -0.0025
vn 1.0000 0.0018 -0.0011
vn 0.9914 0.1034 -0.0806
vn 0.9914 0.1028 -0.0808
vn -0.9969 0.0622 -0.0477
vn -0.9996 0.0246 -0.0142
vn -0.9953 0.0764 -0.0593
vn -0.9998 0.0192 -0.0066
vn -0.9914 0.1034 -0.0806
vn -0.9914 0.1028 -0.0808
vn 1.0000 0.0000 0.0001
vn 0.9996 0.0236 -0.0175
vn -0.9994 0.0276 -0.0206
vn 1.0000 0.0005 0.0004
vn 1.0000 -0.0000 -0.0001
vn 0.9986 -0.0520 -0.0136
vn 0.9999 0.0027 -0.0108
vn 0.8540 -0.4404 0.2770
vn 0.6367 -0.4241 0.6440
vn 0.9957 0.0285 0.0885
vn -0.0184 -0.8374 0.5464
vn 0.4429 0.4317 0.7857
vn -0.0775 -0.4554 0.8869
vn -0.2045 0.4037 0.8918
vn 0.3656 -0.9307 0.0106
vn 0.0941 -0.2346 -0.9675
vn 0.3719 -0.9275 0.0371
vn 0.3190 0.0029 -0.9477
vn 0.8217 -0.0378 -0.5686
vn 0.8235 -0.0135 -0.5672
vn 0.9961 0.0041 -0.0885
vn 0.9871 -0.1464 -0.0654
vn 0.3776 -0.3904 -0.8396
vn -1.0000 0.0000 -0.0001
vn -1.0000 0.0005 0.0004
vn -0.9986 -0.0520 -0.0136
vn -0.9999 0.0027 -0.0108
vn -0.8540 -0.4404 0.2770
vn -0.6367 -0.4241 0.6440
vn -0.9957 0.0285 0.0885
vn 0.0184 -0.8374 0.5464
vn -0.4429 0.4317 0.7857
vn 0.0775 -0.4554 0.8869
vn -0.3656 -0.9307 0.0106
vn -0.0941 -0.2346 -0.9675
vn -0.3776 -0.3904 -0.8396
vn -0.7398 0.3220 0.5908
vn 0.2045 0.4037 0.8918
vn -0.1659 -0.4720 0.8659
vn -0.3190 0.0029 -0.9477
vn -0.8217 -0.0378 -0.5686
vn -0.9871 -0.1464 -0.0654
vn -0.9961 0.0041 -0.0885
vn -0.8235 -0.0135 -0.5672
vn 0.7398 0.3220 0.5908
vn 0.1659 -0.4720 0.8659
vn 0.9978 -0.0085 -0.0662
vn 0.9976 0.0119 0.0685
vn -0.3719 -0.9275 0.0371
vn -0.9978 -0.0085 -0.0662
vn -0.9976 0.0119 0.0685
vn -0.7070 -0.7072 -0.0004
vn -1.0000 -0.0000 -0.0005
vn -0.7072 -0.7070 -0.0004
vn 1.0000 -0.0000 -0.0005
vn 0.7070 -0.7072 -0.0004
vn 0.7072 -0.7070 -0.0004
usemtl body
s 1
f 1/1/1 2/2/1 3/3/1
f 6/4/2 5/5/2 4/6/2
f 7/7/3 8/8/3 9/9/3
f 10/10/4 11/11/4 12/12/4
f 1/1/1 13/13/1 2/2/1
f 6/4/2 14/14/2 5/5/2
f 7/7/3 15/15/3 8/8/3
f 10/10/4 16/16/4 11/11/4
f 17/17/5 20/18/6 21/19/7
f 20/18/6 22/20/8 21/19/7
f 23/21/9 24/22/6 18/23/6
f 25/24/10 26/25/6 24/22/6
f 23/26/9 28/27/11 25/28/10
f 21/29/7 29/30/12 17/31/5
f 21/29/7 30/32/4 31/33/13
f 25/34/10 32/35/14 33/36/15
f 35/37/16 37/38/17 36/39/17
f 38/40/18 37/38/17 39/41/19
f 40/42/17 41/43/20 34/44/17
f 42/45/17 43/46/21 40/42/17
f 22/47/8 44/48/22 38/49/18
f 45/50/23 41/51/20 43/52/21
f 46/53/12 39/54/19 35/55/16
f 48/56/4 39/54/19 49/57/13
f 43/58/21 50/59/4 45/60/23
f 17/17/5 19/61/6 20/18/6
f 20/18/6 51/62/6 22/20/8
f 23/21/9 25/24/10 24/22/6
f 25/24/10 33/63/15 26/25/6
f 21/29/7 31/33/13 29/30/12
f 21/29/7 22/64/8 30/32/4
f 25/34/10 28/65/11 32/35/14
f 35/37/16 39/41/19 37/38/17
f 38/40/18 52/66/17 37/38/17
f 40/42/17 43/46/21 41/43/20
f 42/45/17 53/67/24 43/46/21
f 22/47/8 27/68/22 44/48/22
f 45/50/23 47/69/25 41/51/20
f 46/53/12 49/57/13 39/54/19
f 48/56/4 38/70/18 39/54/19
f 43/58/21 53/71/24 50/59/4
f 55/72/4 58/73/4 54/74/4
f 54/74/4 60/75/4 55/72/4
f 56/76/4 59/77/4 57/78/4
f 59/77/4 61/79/4 57/78/4
f 62/80/25 63/81/25 64/82/25
f 63/81/25 65/83/25 64/82/25
f 66/84/12 67/85/12 68/86/12
f 69/87/12 67/85/12 66/84/12
f 75/88/26 72/89/27 76/90/28
f 77/91/29 74/92/30 73/93/31
f 73/94/31 72/89/27 71/95/32
f 83/96/33 80/97/34 79/98/35
f 82/99/36 84/100/37 81/101/38
f 80/97/34 81/102/38 79/98/35
f 75/88/26 71/95/32 72/89/27
f 77/91/29 85/103/39 74/92/30
f 73/94/31 74/104/30 72/89/27
f 83/96/33 86/105/28 80/97/34
f 82/99/36 87/106/39 84/100/37
f 80/97/34 82/107/36 81/102/38
f 88/108/40 90/109/41 91/110/42
f 93/111/4 94/112/4 95/113/4
f 96/114/4 97/115/4 98/116/4
f 88/117/40 89/118/43 90/119/41
f 91/110/42 90/109/41 92/120/44
f 95/113/4 99/121/4 100/122/4
f 100/122/4 101/123/4 95/113/4
f 101/123/4 93/111/4 95/113/4
f 98/116/4 102/124/4 96/114/4
f 102/124/4 103/125/4 96/114/4
f 96/114/4 104/126/4 97/115/4
f 105/127/1 106/128/1 107/129/1
f 108/130/1 109/131/1 110/132/1
f 111/133/1 112/134/1 113/135/1
f 114/136/1 115/137/1 116/138/1
f 105/127/1 117/139/1 106/128/1
f 108/130/1 118/140/1 109/131/1
f 113/135/1 119/141/1 120/142/1
f 120/142/1 121/143/1 113/135/1
f 121/143/1 111/133/1 113/135/1
f 116/138/1 122/144/1 114/136/1
f 123/145/45 124/146/46 125/147/47
f 130/148/48 131/149/49 132/150/50
f 128/151/51 123/145/45 129/152/52
f 125/147/47 133/153/53 134/154/54
f 135/155/55 126/156/56 136/157/57
f 126/156/56 137/158/58 130/148/48
f 138/159/59 136/157/57 139/160/60
f 140/161/61 129/152/52 141/162/61
f 123/145/45 142/163/62 124/146/46
f 130/148/48 137/158/58 131/149/49
f 128/151/51 142/163/62 123/145/45
f 125/147/47 124/146/46 133/153/53
f 135/155/55 127/164/63 126/156/56
f 126/156/56 127/164/63 137/158/58
f 138/159/59 135/155/55 136/157/57
f 140/161/61 128/151/51 129/152/52
f 147/165/4 148/166/4 149/167/4
f 147/165/4 150/168/4 148/166/4
f 155/169/64 154/170/65 153/171/66
f 157/172/67 156/173/68 155/169/64
f 158/174/69 157/172/67 159/175/70
f 158/176/69 161/177/71 156/178/68
f 159/175/70 162/179/72 158/174/69
f 160/180/73 162/181/72 163/182/74
f 164/183/75 165/184/76 166/185/77
f 169/186/78 167/187/79 168/188/80
f 168/189/80 170/190/81 171/191/82
f 169/186/78 165/192/76 172/193/83
f 173/194/1 174/195/1 165/192/76
f 177/196/84 180/197/85 178/198/86
f 181/199/87 179/200/88 182/201/89
f 181/199/87 182/201/89 183/202/90
f 185/203/91 182/204/89 179/205/88
f 186/206/92 183/202/90 182/201/89
f 184/207/93 186/208/92 182/204/89
f 189/209/94 190/210/95 191/211/96
f 187/212/97 188/213/98 176/214/99
f 194/215/100 193/216/101 191/217/96
f 195/218/102 196/219/103 192/220/104
f 190/221/95 194/215/100 191/217/96
f 197/222/1 173/194/1 190/221/95
f 197/222/1 190/221/95 198/223/1
f 155/169/64 156/173/68 154/170/65
f 157/172/67 158/174/69 156/173/68
f 158/176/69 160/180/73 161/177/71
f 159/175/70 152/224/105 162/179/72
f 160/180/73 158/176/69 162/181/72
f 163/225/74 162/226/72 152/227/105
f 164/183/75 172/228/83 165/184/76
f 151/229/106 163/230/74 152/231/105
f 169/186/78 172/193/83 167/187/79
f 171/191/82 153/232/66 168/189/80
f 168/189/80 167/233/79 170/190/81
f 167/233/79 199/234/107 170/190/81
f 200/235/108 170/190/81 199/234/107
f 175/236/1 172/193/83 165/192/76
f 201/237/1 202/238/1 174/195/1
f 202/238/1 175/236/1 174/195/1
f 165/192/76 174/195/1 175/236/1
f 177/196/84 179/200/88 180/197/85
f 181/199/87 180/197/85 179/200/88
f 185/203/91 184/207/93 182/204/89
f 186/206/92 187/239/97 183/202/90
f 184/207/93 188/240/98 186/208/92
f 187/241/97 186/242/92 188/243/98
f 189/209/94 203/244/109 190/210/95
f 194/215/100 192/245/104 193/216/101
f 192/220/104 178/246/86 195/218/102
f 204/247/110 193/248/101 196/219/103
f 193/248/101 192/220/104 196/219/103
f 196/219/103 205/249/111 204/247/110
f 197/222/1 174/195/1 173/194/1
f 190/221/95 191/217/96 198/223/1
f 198/223/1 206/250/1 197/222/1
f 206/250/1 207/251/1 197/222/1
f 208/252/1 209/253/1 210/254/1
f 208/252/1 210/254/1 211/255/1
f 218/256/4 220/257/4 219/258/4
f 218/256/4 221/259/4 220/257/4
f 226/260/4 225/261/4 227/262/4
f 226/260/4 228/263/4 225/261/4
f 238/264/4 239/265/4 240/266/4
f 238/264/4 241/267/4 239/265/4
f 242/268/2 243/269/2 244/270/2
f 242/268/2 244/270/2 245/271/2
f 246/272/3 247/273/3 248/274/3
f 246/272/3 249/275/3 247/273/3
f 273/276/112 274/277/113 275/278/113
f 273/279/112 278/280/4 276/281/114
f 279/282/115 280/283/116 281/284/115
f 284/285/4 280/286/116 282/287/117
f 273/276/112 276/288/114 274/277/113
f 273/279/112 277/289/4 278/280/4
f 279/282/115 282/290/117 280/283/116
f 284/285/4 283/291/4 280/286/116
f 286/292/4 287/293/4 288/294/4
f 286/292/4 285/295/4 287/293/4
l 212 213
l 259 260
l 236 237
l 267 268
l 70 252
l 112 119
l 234 235
l 145 146
l 261 262
l 269 270
l 253 254
l 215 257
l 216 217
l 231 258
l 271 272
l 222 223
l 233 232
l 78 252
l 214 215
l 213 263
l 265 266
l 143 144
l 255 256
l 264 229
l 230 224
l 250 251
