# Blender v3.2.2 OBJ File: '2slotcar.blend'
# www.blender.org
mtllib bed.mtl
o Plane
v -0.000006 0.123177 -17.483150
v -5.153560 0.123177 -17.483149
v 0.000000 0.123177 0.000000
v -5.153554 0.123177 0.000002
v -0.000006 0.123177 -17.483150
v -5.153560 0.123177 -17.483149
v -0.000006 0.867810 -17.483150
v -5.153560 0.867810 -17.483149
v -2.730144 -0.675206 -17.483150
v -2.730144 0.123177 -17.483150
v -1.914329 -0.675206 -17.483150
v -1.914329 0.123177 -17.483150
v -5.153560 0.867810 -17.483149
v -5.153560 1.135685 -17.483149
v -4.944821 0.867810 -17.483149
v -4.944821 1.135685 -17.483149
v -0.706120 -0.935100 -17.483150
v -0.706120 0.123177 -17.483150
v -0.000006 -0.935100 -17.483150
v -0.000006 0.123177 -17.483150
v -4.944821 0.867810 -17.483149
v -4.944821 1.135685 -17.483149
v -0.000006 0.867810 -17.483150
v -0.000006 1.135685 -17.483150
v -5.153560 0.123177 -17.483149
v -5.153554 0.123177 0.000002
v -5.153560 0.867810 -17.483149
v -5.153554 0.867810 0.000002
v -5.153560 0.867810 -17.483149
v -5.153560 1.135685 -17.483149
v -5.153554 0.867810 0.000002
v -5.153554 1.135685 0.000002
v -4.944821 1.135685 -17.483149
v -4.944821 1.135685 -17.274408
v -0.000006 1.135685 -17.483150
v -0.000006 1.135685 -17.274410
v -0.000006 0.867810 -17.483150
v -5.153560 0.867810 -17.483149
v 0.000000 0.867810 0.000000
v -5.153554 0.867810 0.000002
v -5.153560 1.135685 -17.483149
v -4.944821 1.135685 -17.483149
v -5.153554 1.135685 0.000002
v -4.944815 1.135685 0.000002
v -2.730144 -0.675206 -17.483150
v -1.914329 -0.675206 -17.483150
v -2.730138 -0.675206 0.000001
v -1.914323 -0.675206 0.000001
v -0.706120 -0.935100 -17.483150
v -0.000006 -0.935100 -17.483150
v -0.706114 -0.935100 0.000000
v 0.000000 -0.935100 0.000000
v -2.730144 -0.675206 -17.483150
v -2.730144 0.123177 -17.483150
v -1.914329 -0.675206 -17.483150
v -1.914329 0.123177 -17.483150
v -2.730138 -0.675206 0.000001
v -2.730138 0.123177 0.000001
v -1.914323 -0.675206 0.000001
v -1.914323 0.123177 0.000001
v -0.706120 -0.935100 -17.483150
v -0.706120 0.123177 -17.483150
v -0.706114 -0.935100 0.000000
v -0.706114 0.123177 0.000000
v -4.944821 0.867810 -17.483149
v -4.944821 1.135685 -17.483149
v -4.944815 0.867810 0.000002
v -4.944815 1.135685 0.000002
v -4.944821 0.867810 -17.274408
v -4.944821 1.135685 -17.274408
v -0.000006 0.867810 -17.274410
v -0.000006 1.135685 -17.274410
v 5.153549 0.123177 -17.483152
v 5.153554 0.123177 -0.000002
v 5.153549 0.123177 -17.483152
v 5.153549 0.867810 -17.483152
v 2.730133 -0.675206 -17.483150
v 2.730133 0.123177 -17.483150
v 1.914317 -0.675206 -17.483150
v 1.914317 0.123177 -17.483150
v 5.153549 0.867810 -17.483152
v 5.153549 1.135685 -17.483152
v 4.944809 0.867810 -17.483152
v 4.944809 1.135685 -17.483152
v 0.706108 -0.935100 -17.483150
v 0.706108 0.123177 -17.483150
v 4.944809 0.867810 -17.483152
v 4.944809 1.135685 -17.483152
v 5.153549 0.123177 -17.483152
v 5.153554 0.123177 -0.000002
v 5.153549 0.867810 -17.483152
v 5.153554 0.867810 -0.000002
v 5.153549 0.867810 -17.483152
v 5.153549 1.135685 -17.483152
v 5.153554 0.867810 -0.000002
v 5.153554 1.135685 -0.000002
v 4.944809 1.135685 -17.483152
v 4.944809 1.135685 -17.274412
v 5.153549 0.867810 -17.483152
v 5.153554 0.867810 -0.000002
v 5.153549 1.135685 -17.483152
v 4.944809 1.135685 -17.483152
v 5.153554 1.135685 -0.000002
v 4.944815 1.135685 -0.000002
v 2.730133 -0.675206 -17.483150
v 1.914317 -0.675206 -17.483150
v 2.730138 -0.675206 -0.000001
v 1.914323 -0.675206 -0.000001
v 0.706108 -0.935100 -17.483150
v 0.706114 -0.935100 -0.000000
v 2.730133 -0.675206 -17.483150
v 2.730133 0.123177 -17.483150
v 1.914317 -0.675206 -17.483150
v 1.914317 0.123177 -17.483150
v 2.730138 -0.675206 -0.000001
v 2.730138 0.123177 -0.000001
v 1.914323 -0.675206 -0.000001
v 1.914323 0.123177 -0.000001
v 0.706108 -0.935100 -17.483150
v 0.706108 0.123177 -17.483150
v 0.706114 -0.935100 -0.000000
v 0.706114 0.123177 -0.000000
v 4.944809 0.867810 -17.483152
v 4.944809 1.135685 -17.483152
v 4.944815 0.867810 -0.000002
v 4.944815 1.135685 -0.000002
v 4.944809 0.867810 -17.274412
v 4.944809 1.135685 -17.274412
v 0.000006 0.123177 17.483150
v -5.153549 0.123177 17.483152
v 0.000006 0.123177 17.483150
v -5.153549 0.123177 17.483152
v 0.000006 0.867810 17.483150
v -5.153549 0.867810 17.483152
v -2.730133 -0.675206 17.483150
v -2.730133 0.123177 17.483150
v -1.914317 -0.675206 17.483150
v -1.914317 0.123177 17.483150
v -5.153549 0.867810 17.483152
v -5.153549 1.135685 17.483152
v -4.944809 0.867810 17.483152
v -4.944809 1.135685 17.483152
v -0.706108 -0.935100 17.483150
v -0.706108 0.123177 17.483150
v 0.000006 -0.935100 17.483150
v 0.000006 0.123177 17.483150
v -4.944809 0.867810 17.483152
v -4.944809 1.135685 17.483152
v 0.000006 0.867810 17.483150
v 0.000006 1.135685 17.483150
v -5.153549 0.123177 17.483152
v -5.153549 0.867810 17.483152
v -5.153549 0.867810 17.483152
v -5.153549 1.135685 17.483152
v -4.944809 1.135685 17.483152
v -4.944809 1.135685 17.274412
v 0.000006 1.135685 17.483150
v 0.000006 1.135685 17.274410
v 0.000006 0.867810 17.483150
v -5.153549 0.867810 17.483152
v -5.153549 1.135685 17.483152
v -4.944809 1.135685 17.483152
v -2.730133 -0.675206 17.483150
v -1.914317 -0.675206 17.483150
v -0.706108 -0.935100 17.483150
v 0.000006 -0.935100 17.483150
v -2.730133 -0.675206 17.483150
v -2.730133 0.123177 17.483150
v -1.914317 -0.675206 17.483150
v -1.914317 0.123177 17.483150
v -0.706108 -0.935100 17.483150
v -0.706108 0.123177 17.483150
v -4.944809 0.867810 17.483152
v -4.944809 1.135685 17.483152
v -4.944809 0.867810 17.274412
v -4.944809 1.135685 17.274412
v 0.000006 0.867810 17.274410
v 0.000006 1.135685 17.274410
v 5.153560 0.123177 17.483149
v 5.153560 0.123177 17.483149
v 5.153560 0.867810 17.483149
v 2.730144 -0.675206 17.483150
v 2.730144 0.123177 17.483150
v 1.914329 -0.675206 17.483150
v 1.914329 0.123177 17.483150
v 5.153560 0.867810 17.483149
v 5.153560 1.135685 17.483149
v 4.944821 0.867810 17.483149
v 4.944821 1.135685 17.483149
v 0.706120 -0.935100 17.483150
v 0.706120 0.123177 17.483150
v 4.944821 0.867810 17.483149
v 4.944821 1.135685 17.483149
v 5.153560 0.123177 17.483149
v 5.153560 0.867810 17.483149
v 5.153560 0.867810 17.483149
v 5.153560 1.135685 17.483149
v 4.944821 1.135685 17.483149
v 4.944821 1.135685 17.274408
v 5.153560 0.867810 17.483149
v 5.153560 1.135685 17.483149
v 4.944821 1.135685 17.483149
v 2.730144 -0.675206 17.483150
v 1.914329 -0.675206 17.483150
v 0.706120 -0.935100 17.483150
v 2.730144 -0.675206 17.483150
v 2.730144 0.123177 17.483150
v 1.914329 -0.675206 17.483150
v 1.914329 0.123177 17.483150
v 0.706120 -0.935100 17.483150
v 0.706120 0.123177 17.483150
v 4.944821 0.867810 17.483149
v 4.944821 1.135685 17.483149
v 4.944821 0.867810 17.274408
v 4.944821 1.135685 17.274408
vt 0.016317 0.653491
vt 0.137276 0.532532
vt 0.016317 0.532532
vt 0.137276 0.532532
vt 0.016317 0.532532
vt 0.016317 0.532532
vt 0.016317 0.532532
vt 0.016317 0.532532
vt 0.016317 0.532532
vt 0.016317 0.532532
vt 0.016317 0.532532
vt 0.016317 0.532532
vt 0.016317 0.532532
vt 0.016317 0.532532
vt 0.016317 0.532532
vt 0.016317 0.532532
vt 0.016317 0.532532
vt 0.016317 0.532532
vt 0.137276 0.653491
vt 0.137276 0.532532
vt 0.137276 0.532532
vt 0.016317 0.532532
vt 0.016317 0.532532
vt 0.016317 0.532532
vt 0.016317 0.532532
vt 0.016317 0.532532
vt 0.016317 0.532532
vt 0.137276 0.532532
vt 0.016317 0.653491
vt 0.016317 0.532532
vt 0.016317 0.532532
vt 0.016317 0.532532
vt 0.016317 0.532532
vt 0.016317 0.532532
vt 0.016317 0.532532
vt 0.016317 0.532532
vt 0.016317 0.532532
vt 0.016317 0.532532
vt 0.016317 0.532532
vt 0.016317 0.532532
vt 0.016317 0.532532
vt 0.016317 0.532532
vt 0.016317 0.532532
vt 0.016317 0.532532
vt 0.016317 0.532532
vt 0.016317 0.532532
vt 0.016317 0.532532
vt 0.016317 0.532532
vt 0.016317 0.532532
vt 0.016317 0.532532
vt 0.016317 0.532532
vt 0.016317 0.532532
vt 0.016317 0.532532
vt 0.016317 0.532532
vt 0.137276 0.532532
vt 0.137276 0.532532
vt 0.016317 0.532532
vt 0.016317 0.532532
vt 0.016317 0.532532
vt 0.016317 0.532532
vt 0.016317 0.532532
vt 0.016317 0.532532
vt 0.016317 0.532532
vt 0.016317 0.532532
vt 0.016317 0.532532
vt 0.016317 0.532532
vt 0.137276 0.532532
vt 0.137276 0.653491
vt 0.137276 0.532532
vt 0.016317 0.532532
vt 0.016317 0.532532
vt 0.016317 0.532532
vt 0.016317 0.532532
vt 0.016317 0.532532
vt 0.137276 0.532532
vt 0.016317 0.532532
vt 0.016317 0.532532
vt 0.016317 0.532532
vt 0.016317 0.532532
vt 0.016317 0.532532
vt 0.016317 0.532532
vt 0.016317 0.532532
vt 0.016317 0.532532
vt 0.016317 0.532532
vt 0.016317 0.532532
vt 0.016317 0.532532
vt 0.016317 0.532532
vt 0.016317 0.532532
vt 0.016317 0.532532
vt 0.016317 0.532532
vt 0.016317 0.532532
vt 0.016317 0.532532
vt 0.016317 0.532532
vt 0.016317 0.532532
vt 0.016317 0.532532
vt 0.016317 0.532532
vt 0.137276 0.532532
vt 0.016317 0.532532
vt 0.016317 0.532532
vt 0.137276 0.532532
vt 0.016317 0.532532
vt 0.016317 0.532532
vt 0.016317 0.532532
vt 0.016317 0.532532
vt 0.016317 0.532532
vt 0.016317 0.532532
vt 0.016317 0.532532
vt 0.016317 0.532532
vt 0.016317 0.532532
vt 0.016317 0.532532
vt 0.016317 0.532532
vt 0.016317 0.532532
vt 0.016317 0.532532
vt 0.137276 0.532532
vt 0.137276 0.532532
vt 0.016317 0.532532
vt 0.016317 0.532532
vt 0.016317 0.532532
vt 0.016317 0.532532
vt 0.016317 0.532532
vt 0.137276 0.532532
vt 0.016317 0.532532
vt 0.016317 0.532532
vt 0.016317 0.532532
vt 0.016317 0.532532
vt 0.016317 0.532532
vt 0.016317 0.532532
vt 0.016317 0.532532
vt 0.016317 0.532532
vt 0.016317 0.532532
vt 0.016317 0.532532
vt 0.016317 0.532532
vt 0.016317 0.532532
vt 0.016317 0.532532
vt 0.016317 0.532532
vt 0.016317 0.532532
vt 0.016317 0.532532
vt 0.016317 0.532532
vt 0.016317 0.532532
vt 0.137276 0.532532
vt 0.137276 0.532532
vt 0.016317 0.532532
vt 0.016317 0.532532
vt 0.016317 0.532532
vt 0.016317 0.532532
vt 0.016317 0.532532
vt 0.016317 0.532532
vt 0.016317 0.532532
vt 0.016317 0.532532
vt 0.016317 0.532532
vt 0.016317 0.532532
vt 0.137276 0.532532
vt 0.137276 0.532532
vt 0.016317 0.532532
vt 0.016317 0.532532
vt 0.016317 0.532532
vt 0.016317 0.532532
vt 0.137276 0.532532
vt 0.016317 0.532532
vt 0.016317 0.532532
vt 0.016317 0.532532
vt 0.016317 0.532532
vt 0.016317 0.532532
vt 0.016317 0.532532
vt 0.016317 0.532532
vt 0.016317 0.532532
vt 0.016317 0.532532
vt 0.016317 0.532532
vt 0.016317 0.532532
vt 0.016317 0.532532
vt 0.016317 0.532532
vt 0.016317 0.532532
vt 0.016317 0.532532
vt 0.137276 0.653491
vt 0.137276 0.532532
vt 0.016317 0.532532
vt 0.016317 0.532532
vt 0.016317 0.532532
vt 0.016317 0.532532
vt 0.137276 0.653491
vt 0.016317 0.532532
vt 0.016317 0.532532
vt 0.137276 0.653491
vt 0.016317 0.532532
vt 0.016317 0.532532
vt 0.016317 0.532532
vt 0.016317 0.532532
vt 0.016317 0.532532
vt 0.016317 0.532532
vt 0.016317 0.532532
vt 0.016317 0.532532
vt 0.137276 0.653491
vt 0.137276 0.532532
vt 0.016317 0.532532
vt 0.016317 0.532532
vt 0.137276 0.653491
vt 0.016317 0.532532
vt 0.137276 0.653491
vt 0.016317 0.532532
vt 0.016317 0.532532
vt 0.016317 0.532532
vt 0.016317 0.532532
vt 0.016317 0.532532
vt 0.016317 0.532532
vt 0.016317 0.532532
vt 0.137276 0.532532
vt 0.016317 0.532532
vt 0.016317 0.532532
vt 0.016317 0.532532
vt 0.016317 0.532532
vt 0.016317 0.532532
vt 0.016317 0.532532
vt 0.137276 0.532532
vt 0.016317 0.532532
vt 0.016317 0.532532
vn 0.0000 -1.0000 0.0000
vn -0.0000 0.0000 -1.0000
vn -1.0000 0.0000 0.0000
vn 0.0000 1.0000 0.0000
vn 1.0000 0.0000 -0.0000
vn 0.0000 0.0000 1.0000
usemtl METAL.001
s 1
f 3/1/1 2/2/1 1/3/1
f 6/4/2 7/5/2 5/6/2
f 12/7/2 9/8/2 10/9/2
f 16/10/2 13/11/2 14/12/2
f 20/13/2 17/14/2 18/15/2
f 22/16/2 23/17/2 21/18/2
f 26/19/3 27/20/3 25/21/3
f 31/22/3 30/23/3 29/24/3
f 34/25/4 35/26/4 33/27/4
f 38/28/4 39/29/4 37/30/4
f 43/31/4 42/32/4 41/33/4
f 46/34/1 47/35/1 45/36/1
f 52/37/1 49/38/1 50/39/1
f 56/40/5 59/41/5 55/42/5
f 53/43/3 58/44/3 54/45/3
f 63/46/3 62/47/3 61/48/3
f 68/49/5 65/50/5 66/51/5
f 69/52/6 72/53/6 70/54/6
f 73/55/1 3/1/1 1/3/1
f 7/5/2 75/56/2 5/6/2
f 77/57/2 80/58/2 78/59/2
f 81/60/2 84/61/2 82/62/2
f 85/63/2 20/13/2 86/64/2
f 23/17/2 88/65/2 87/66/2
f 91/67/5 90/68/5 89/69/5
f 94/70/5 95/71/5 93/72/5
f 35/26/4 98/73/4 97/74/4
f 39/29/4 99/75/4 37/30/4
f 102/76/4 103/77/4 101/78/4
f 107/79/1 106/80/1 105/81/1
f 109/82/1 52/37/1 50/39/1
f 117/83/3 114/84/3 113/85/3
f 116/86/5 111/87/5 112/88/5
f 120/89/5 121/90/5 119/91/5
f 123/92/3 126/93/3 124/94/3
f 72/53/6 127/95/6 128/96/6
f 130/97/1 3/1/1 129/98/1
f 133/99/6 132/100/6 131/101/6
f 135/102/6 138/103/6 136/104/6
f 139/105/6 142/106/6 140/107/6
f 143/108/6 146/109/6 144/110/6
f 149/111/6 148/112/6 147/113/6
f 152/114/3 26/19/3 151/115/3
f 154/116/3 31/22/3 153/117/3
f 157/118/4 156/119/4 155/120/4
f 39/29/4 160/121/4 159/122/4
f 162/123/4 43/31/4 161/124/4
f 47/35/1 164/125/1 163/126/1
f 165/127/1 52/37/1 166/128/1
f 59/41/5 170/129/5 169/130/5
f 58/44/3 167/131/3 168/132/3
f 172/133/3 63/46/3 171/134/3
f 173/135/5 68/49/5 174/136/5
f 178/137/2 175/138/2 176/139/2
f 3/1/1 179/140/1 129/98/1
f 180/141/6 133/99/6 131/101/6
f 185/142/6 182/143/6 183/144/6
f 189/145/6 186/146/6 187/147/6
f 146/109/6 190/148/6 191/149/6
f 193/150/6 149/111/6 192/151/6
f 90/68/5 195/152/5 194/153/5
f 95/71/5 197/154/5 196/155/5
f 199/156/4 157/118/4 198/157/4
f 200/158/4 39/29/4 159/122/4
f 103/77/4 202/159/4 201/160/4
f 204/161/1 107/79/1 203/162/1
f 52/37/1 205/163/1 166/128/1
f 209/164/3 117/83/3 208/165/3
f 206/166/5 116/86/5 207/167/5
f 121/90/5 211/168/5 210/169/5
f 126/93/3 212/170/3 213/171/3
f 214/172/2 178/137/2 215/173/2
f 3/1/1 4/174/1 2/2/1
f 6/4/2 8/175/2 7/5/2
f 12/7/2 11/176/2 9/8/2
f 16/10/2 15/177/2 13/11/2
f 20/13/2 19/178/2 17/14/2
f 22/16/2 24/179/2 23/17/2
f 26/19/3 28/180/3 27/20/3
f 31/22/3 32/181/3 30/23/3
f 34/25/4 36/182/4 35/26/4
f 38/28/4 40/183/4 39/29/4
f 43/31/4 44/184/4 42/32/4
f 46/34/1 48/185/1 47/35/1
f 52/37/1 51/186/1 49/38/1
f 56/40/5 60/187/5 59/41/5
f 53/43/3 57/188/3 58/44/3
f 63/46/3 64/189/3 62/47/3
f 68/49/5 67/190/5 65/50/5
f 69/52/6 71/191/6 72/53/6
f 73/55/1 74/192/1 3/1/1
f 7/5/2 76/193/2 75/56/2
f 77/57/2 79/194/2 80/58/2
f 81/60/2 83/195/2 84/61/2
f 85/63/2 19/178/2 20/13/2
f 23/17/2 24/179/2 88/65/2
f 91/67/5 92/196/5 90/68/5
f 94/70/5 96/197/5 95/71/5
f 35/26/4 36/182/4 98/73/4
f 39/29/4 100/198/4 99/75/4
f 102/76/4 104/199/4 103/77/4
f 107/79/1 108/200/1 106/80/1
f 109/82/1 110/201/1 52/37/1
f 117/83/3 118/202/3 114/84/3
f 116/86/5 115/203/5 111/87/5
f 120/89/5 122/204/5 121/90/5
f 123/92/3 125/205/3 126/93/3
f 72/53/6 71/191/6 127/95/6
f 130/97/1 4/174/1 3/1/1
f 133/99/6 134/206/6 132/100/6
f 135/102/6 137/207/6 138/103/6
f 139/105/6 141/208/6 142/106/6
f 143/108/6 145/209/6 146/109/6
f 149/111/6 150/210/6 148/112/6
f 152/114/3 28/180/3 26/19/3
f 154/116/3 32/181/3 31/22/3
f 157/118/4 158/211/4 156/119/4
f 39/29/4 40/183/4 160/121/4
f 162/123/4 44/184/4 43/31/4
f 47/35/1 48/185/1 164/125/1
f 165/127/1 51/186/1 52/37/1
f 59/41/5 60/187/5 170/129/5
f 58/44/3 57/188/3 167/131/3
f 172/133/3 64/189/3 63/46/3
f 173/135/5 67/190/5 68/49/5
f 178/137/2 177/212/2 175/138/2
f 3/1/1 74/192/1 179/140/1
f 180/141/6 181/213/6 133/99/6
f 185/142/6 184/214/6 182/143/6
f 189/145/6 188/215/6 186/146/6
f 146/109/6 145/209/6 190/148/6
f 193/150/6 150/210/6 149/111/6
f 90/68/5 92/196/5 195/152/5
f 95/71/5 96/197/5 197/154/5
f 199/156/4 158/211/4 157/118/4
f 200/158/4 100/198/4 39/29/4
f 103/77/4 104/199/4 202/159/4
f 204/161/1 108/200/1 107/79/1
f 52/37/1 110/201/1 205/163/1
f 209/164/3 118/202/3 117/83/3
f 206/166/5 115/203/5 116/86/5
f 121/90/5 122/204/5 211/168/5
f 126/93/3 125/205/3 212/170/3
f 214/172/2 177/212/2 178/137/2
