# Blender v3.2.2 OBJ File: ''
# www.blender.org
mtllib trackC.mtl
o Cube.007
v -5.209396 -0.797514 4.527327
v 5.209394 -1.367351 4.527334
v -5.209396 -1.367351 4.527327
v 5.209393 -0.797514 5.811874
v -5.209397 -1.367351 5.811868
v 5.209393 -1.367351 5.811874
v 5.209394 -1.367351 4.527334
v -5.209397 -1.367351 5.811868
v -5.209396 -1.367351 4.527327
v -5.209396 -0.797514 4.527327
v 5.209393 -0.797514 5.811874
v 5.209394 -0.797514 4.527334
v -5.209397 -0.797514 5.811868
v -5.209396 -1.367351 4.527327
v -5.209397 -1.367351 5.811868
v 5.209394 -0.797514 4.527334
v 5.209393 -1.367351 5.811874
v 5.209394 -1.367351 4.527334
v 5.209394 -0.797514 4.527334
v -5.209397 -0.797514 5.811868
v 5.209393 -1.367351 5.811874
v -5.209397 -0.797514 5.811868
v -5.209396 -0.797514 4.527327
v 5.209393 -0.797514 5.811874
v -5.209396 -0.797514 -0.610851
v 5.209394 -1.367351 -0.610844
v -5.209396 -1.367351 -0.610851
v 5.209393 -0.797514 0.673697
v -5.209397 -1.367351 0.673690
v 5.209393 -1.367351 0.673697
v 5.209394 -1.367351 -0.610844
v -5.209397 -1.367351 0.673690
v -5.209396 -1.367351 -0.610851
v -5.209396 -0.797514 -0.610851
v 5.209393 -0.797514 0.673697
v 5.209394 -0.797514 -0.610844
v -5.209397 -0.797514 0.673690
v -5.209396 -1.367351 -0.610851
v -5.209397 -1.367351 0.673690
v 5.209394 -0.797514 -0.610844
v 5.209393 -1.367351 0.673697
v 5.209394 -1.367351 -0.610844
v 5.209394 -0.797514 -0.610844
v -5.209397 -0.797514 0.673690
v 5.209393 -1.367351 0.673697
v -5.209397 -0.797514 0.673690
v -5.209396 -0.797514 -0.610851
v 5.209393 -0.797514 0.673697
v -5.209396 -0.797514 -3.148416
v 5.209394 -1.367351 -3.148409
v -5.209396 -1.367351 -3.148416
v 5.209393 -0.797514 -1.863869
v -5.209397 -1.367351 -1.863876
v 5.209393 -1.367351 -1.863869
v 5.209394 -1.367351 -3.148409
v -5.209397 -1.367351 -1.863876
v -5.209396 -1.367351 -3.148416
v -5.209396 -0.797514 -3.148416
v 5.209393 -0.797514 -1.863869
v 5.209394 -0.797514 -3.148409
v -5.209397 -0.797514 -1.863875
v -5.209396 -1.367351 -3.148416
v -5.209397 -1.367351 -1.863876
v 5.209394 -0.797514 -3.148409
v 5.209393 -1.367351 -1.863869
v 5.209394 -1.367351 -3.148409
v 5.209394 -0.797514 -3.148409
v -5.209397 -0.797514 -1.863875
v 5.209393 -1.367351 -1.863869
v -5.209397 -0.797514 -1.863875
v -5.209396 -0.797514 -3.148416
v 5.209393 -0.797514 -1.863869
v 5.209396 -0.797514 -4.432782
v -5.209394 -1.367351 -4.432786
v 5.209396 -1.367351 -4.432782
v -5.209393 -0.797514 -5.717326
v 5.209397 -1.367351 -5.717323
v -5.209393 -1.367351 -5.717326
v -5.209394 -1.367351 -4.432786
v 5.209397 -1.367351 -5.717323
v 5.209396 -1.367351 -4.432782
v 5.209396 -0.797514 -4.432782
v -5.209393 -0.797514 -5.717326
v -5.209394 -0.797514 -4.432786
v 5.209397 -0.797514 -5.717323
v 5.209396 -1.367351 -4.432782
v 5.209397 -1.367351 -5.717323
v -5.209394 -0.797514 -4.432786
v -5.209393 -1.367351 -5.717326
v -5.209394 -1.367351 -4.432786
v -5.209394 -0.797514 -4.432786
v 5.209397 -0.797514 -5.717323
v -5.209393 -1.367351 -5.717326
v 5.209397 -0.797514 -5.717323
v 5.209396 -0.797514 -4.432782
v -5.209393 -0.797514 -5.717326
v -3.424152 -0.108634 -7.001868
v -3.352306 -0.108634 -7.001867
v -3.352336 0.082298 7.096417
v -3.702994 0.082296 -7.001868
v -3.703025 0.082298 7.096416
v -3.352336 -0.631519 7.096417
v -3.702994 -0.631521 -7.001868
v -3.703025 -0.631519 7.096416
v -3.352305 0.082296 -7.001869
v -3.352336 -0.108634 7.096417
v -3.352305 -0.108636 -7.001869
v -3.703025 0.082298 7.096416
v -3.702994 -0.108636 -7.001868
v -3.703025 -0.108634 7.096416
v -3.631148 -0.108636 -7.001867
v -3.631179 -0.629764 7.096417
v -3.631179 -0.108634 7.096417
v -3.424182 -0.108634 7.096417
v -3.424151 -0.629766 -7.001867
v -3.424151 -0.108636 -7.001867
v -3.352305 -0.631521 -7.001868
v -3.352336 -0.797514 7.096417
v -3.352305 -0.797517 -7.001868
v -3.703025 -0.631519 7.096416
v -3.702994 -0.797517 -7.001868
v -3.703025 -0.797514 7.096417
v -3.352305 0.082296 -7.001869
v -3.352305 -0.631521 -7.001868
v -3.352336 0.082298 7.096417
v -3.702994 0.082296 -7.001868
v -3.631148 -0.629766 -7.001867
v -3.424182 -0.629764 7.096417
v -3.352336 -0.631519 7.096417
v -3.702994 -0.631521 -7.001868
v -3.631148 -0.108636 -7.001867
v -3.631179 -0.108634 7.096417
v -3.424182 -0.108634 7.096417
v -3.424151 -0.108636 -7.001867
v -3.703025 -0.108634 7.096416
v -3.352336 -0.108634 7.096417
v -3.352305 -0.108636 -7.001869
v -3.702994 -0.108636 -7.001868
v 3.631060 -0.108634 -7.001870
v 3.702906 -0.108634 -7.001870
v 3.702876 0.082298 7.096415
v 3.352218 0.082296 -7.001871
v 3.352187 0.082298 7.096414
v 3.702876 -0.631519 7.096415
v 3.352218 -0.631521 -7.001871
v 3.352187 -0.631519 7.096414
v 3.702907 0.082296 -7.001871
v 3.702876 -0.108634 7.096415
v 3.702907 -0.108636 -7.001871
v 3.352187 0.082298 7.096414
v 3.352218 -0.108636 -7.001871
v 3.352187 -0.108634 7.096414
v 3.424064 -0.108636 -7.001869
v 3.424033 -0.629764 7.096414
v 3.424033 -0.108634 7.096414
v 3.631030 -0.108634 7.096414
v 3.631061 -0.629766 -7.001869
v 3.631061 -0.108636 -7.001869
v 3.702907 -0.631521 -7.001871
v 3.702876 -0.797514 7.096415
v 3.702907 -0.797517 -7.001871
v 3.352187 -0.631519 7.096414
v 3.352218 -0.797517 -7.001871
v 3.352187 -0.797514 7.096415
v 3.702907 0.082296 -7.001871
v 3.702907 -0.631521 -7.001871
v 3.702876 0.082298 7.096415
v 3.352218 0.082296 -7.001871
v 3.424064 -0.629766 -7.001869
v 3.631030 -0.629764 7.096414
v 3.702876 -0.631519 7.096415
v 3.352218 -0.631521 -7.001871
v 3.424064 -0.108636 -7.001869
v 3.424033 -0.108634 7.096414
v 3.631030 -0.108634 7.096414
v 3.631061 -0.108636 -7.001869
v 3.352187 -0.108634 7.096414
v 3.702876 -0.108634 7.096415
v 3.702907 -0.108636 -7.001871
v 3.352218 -0.108636 -7.001871
v -5.209396 -0.797514 1.958238
v 5.209394 -1.367351 1.958245
v -5.209396 -1.367351 1.958238
v 5.209393 -0.797514 3.242785
v -5.209397 -1.367351 3.242779
v 5.209393 -1.367351 3.242785
v 5.209394 -1.367351 1.958245
v -5.209397 -1.367351 3.242779
v -5.209396 -1.367351 1.958238
v -5.209396 -0.797514 1.958238
v 5.209393 -0.797514 3.242785
v 5.209394 -0.797514 1.958245
v -5.209397 -0.797514 3.242779
v -5.209396 -1.367351 1.958238
v -5.209397 -1.367351 3.242779
v 5.209394 -0.797514 1.958245
v 5.209393 -1.367351 3.242785
v 5.209394 -1.367351 1.958245
v 5.209394 -0.797514 1.958245
v -5.209397 -0.797514 3.242779
v 5.209393 -1.367351 3.242785
v -5.209397 -0.797514 3.242779
v -5.209396 -0.797514 1.958238
v 5.209393 -0.797514 3.242785
vt 0.092105 0.559295
vt 0.058388 0.593012
vt 0.058388 0.559295
vt 0.092105 0.626728
vt 0.058388 0.660445
vt 0.058388 0.626728
vt 0.125821 0.593012
vt 0.092105 0.626728
vt 0.092105 0.593012
vt 0.092105 0.525579
vt 0.058388 0.559295
vt 0.058388 0.525579
vt 0.092105 0.593012
vt 0.058388 0.626728
vt 0.058388 0.593012
vt 0.092105 0.593012
vt 0.092105 0.660445
vt 0.125821 0.626728
vt 0.092105 0.559295
vt 0.092105 0.626728
vt 0.092105 0.559295
vt 0.058388 0.593012
vt 0.058388 0.559295
vt 0.092105 0.626728
vt 0.058388 0.660445
vt 0.058388 0.626728
vt 0.125821 0.593012
vt 0.092105 0.626728
vt 0.092105 0.593012
vt 0.092105 0.525579
vt 0.058388 0.559295
vt 0.058388 0.525579
vt 0.092105 0.593012
vt 0.058388 0.626728
vt 0.058388 0.593012
vt 0.092105 0.593012
vt 0.092105 0.660445
vt 0.125821 0.626728
vt 0.092105 0.559295
vt 0.092105 0.626728
vt 0.092105 0.559295
vt 0.058388 0.593012
vt 0.058388 0.559295
vt 0.092105 0.626728
vt 0.058388 0.660445
vt 0.058388 0.626728
vt 0.125821 0.593012
vt 0.092105 0.626728
vt 0.092105 0.593012
vt 0.092105 0.525579
vt 0.058388 0.559295
vt 0.058388 0.525579
vt 0.092105 0.593012
vt 0.058388 0.626728
vt 0.058388 0.593012
vt 0.092105 0.593012
vt 0.092105 0.660445
vt 0.125821 0.626728
vt 0.092105 0.559295
vt 0.092105 0.626728
vt 0.092105 0.559295
vt 0.058388 0.593012
vt 0.058388 0.559295
vt 0.092105 0.626728
vt 0.058388 0.660445
vt 0.058388 0.626728
vt 0.125821 0.593012
vt 0.092105 0.626728
vt 0.092105 0.593012
vt 0.092105 0.525579
vt 0.058388 0.559295
vt 0.058388 0.525579
vt 0.092105 0.593012
vt 0.058388 0.626728
vt 0.058388 0.593012
vt 0.092105 0.593012
vt 0.092105 0.660445
vt 0.125821 0.626728
vt 0.092105 0.559295
vt 0.092105 0.626728
vt 0.067315 0.033230
vt 0.890836 0.047603
vt 0.067166 0.047603
vt 0.001096 0.059068
vt 0.824616 0.073442
vt 0.000946 0.073441
vt 0.009206 0.023440
vt 0.616852 0.034046
vt 0.009062 0.034046
vt 0.734500 0.048922
vt 0.126854 0.038316
vt 0.734644 0.038316
vt -1.539095 0.073112
vt 2.538258 0.001941
vt 2.538652 0.073111
vt 2.623069 0.000229
vt -1.570479 0.073428
vt -1.570884 0.000230
vt 0.009206 0.044990
vt 0.616852 0.055596
vt 0.009062 0.055596
vt 0.009206 0.034215
vt 0.616852 0.044821
vt 0.009062 0.044821
vt 0.890985 0.033229
vt 0.824766 0.059068
vt 0.616997 0.023440
vt 0.126710 0.048922
vt -1.539489 0.001941
vt 2.623474 0.073428
vt 0.616997 0.044990
vt 0.616997 0.034215
vt 0.000000 0.000000
vt -1.539095 0.073112
vt 2.538652 0.073111
vt 0.000000 0.000000
vt 0.000000 0.000000
vt 0.000000 0.000000
vt 0.000000 0.000000
vt 2.623069 0.000229
vt 0.067315 0.033230
vt 0.890836 0.047603
vt 0.067166 0.047603
vt 0.001096 0.059068
vt 0.824616 0.073442
vt 0.000946 0.073441
vt 0.009206 0.023440
vt 0.616852 0.034046
vt 0.009062 0.034046
vt 0.734500 0.048922
vt 0.126854 0.038316
vt 0.734644 0.038316
vt -1.539095 0.073112
vt 2.538258 0.001941
vt 2.538652 0.073111
vt 2.623069 0.000229
vt -1.570479 0.073428
vt -1.570884 0.000230
vt 0.009206 0.044990
vt 0.616852 0.055596
vt 0.009062 0.055596
vt 0.009206 0.034215
vt 0.616852 0.044821
vt 0.009062 0.044821
vt 0.890985 0.033229
vt 0.824766 0.059068
vt 0.616997 0.023440
vt 0.126710 0.048922
vt -1.539489 0.001941
vt 2.623474 0.073428
vt 0.616997 0.044990
vt 0.616997 0.034215
vt 0.000000 0.000000
vt -1.539095 0.073112
vt 2.538652 0.073111
vt 0.000000 0.000000
vt 0.000000 0.000000
vt 0.000000 0.000000
vt 0.000000 0.000000
vt 2.623069 0.000229
vt 0.092105 0.559295
vt 0.058388 0.593012
vt 0.058388 0.559295
vt 0.092105 0.626728
vt 0.058388 0.660445
vt 0.058388 0.626728
vt 0.125821 0.593012
vt 0.092105 0.626728
vt 0.092105 0.593012
vt 0.092105 0.525579
vt 0.058388 0.559295
vt 0.058388 0.525579
vt 0.092105 0.593012
vt 0.058388 0.626728
vt 0.058388 0.593012
vt 0.092105 0.593012
vt 0.092105 0.660445
vt 0.125821 0.626728
vt 0.092105 0.559295
vt 0.092105 0.626728
vn 0.0000 0.0000 -1.0000
vn -0.0000 0.0000 1.0000
vn -0.0000 1.0000 -0.0000
vn -1.0000 0.0000 -0.0000
vn 1.0000 0.0000 0.0000
vn -0.0000 -1.0000 0.0000
usemtl METAL.003
s 1
f 1/1/1 2/2/1 3/3/1
f 4/4/2 5/5/2 6/6/2
f 10/7/3 11/8/3 12/9/3
f 13/10/4 14/11/4 15/12/4
f 16/13/5 17/14/5 18/15/5
f 1/1/1 19/16/1 2/2/1
f 4/4/2 20/17/2 5/5/2
f 10/7/3 22/18/3 11/8/3
f 13/10/4 23/19/4 14/11/4
f 16/13/5 24/20/5 17/14/5
f 25/21/1 26/22/1 27/23/1
f 28/24/2 29/25/2 30/26/2
f 34/27/3 35/28/3 36/29/3
f 37/30/4 38/31/4 39/32/4
f 40/33/5 41/34/5 42/35/5
f 25/21/1 43/36/1 26/22/1
f 28/24/2 44/37/2 29/25/2
f 34/27/3 46/38/3 35/28/3
f 37/30/4 47/39/4 38/31/4
f 40/33/5 48/40/5 41/34/5
f 49/41/1 50/42/1 51/43/1
f 52/44/2 53/45/2 54/46/2
f 58/47/3 59/48/3 60/49/3
f 61/50/4 62/51/4 63/52/4
f 64/53/5 65/54/5 66/55/5
f 49/41/1 67/56/1 50/42/1
f 52/44/2 68/57/2 53/45/2
f 58/47/3 70/58/3 59/48/3
f 61/50/4 71/59/4 62/51/4
f 64/53/5 72/60/5 65/54/5
f 73/61/2 74/62/2 75/63/2
f 76/64/1 77/65/1 78/66/1
f 82/67/3 83/68/3 84/69/3
f 85/70/5 86/71/5 87/72/5
f 88/73/4 89/74/4 90/75/4
f 73/61/2 91/76/2 74/62/2
f 76/64/1 92/77/1 77/65/1
f 82/67/3 94/78/3 83/68/3
f 85/70/5 95/79/5 86/71/5
f 88/73/4 96/80/4 89/74/4
f 99/81/3 100/82/3 101/83/3
f 102/84/3 103/85/3 104/86/3
f 105/87/5 106/88/5 107/89/5
f 108/90/4 109/91/4 110/92/4
f 111/93/4 112/94/4 113/95/4
f 114/96/5 115/97/5 116/98/5
f 117/99/5 118/100/5 119/101/5
f 120/102/4 121/103/4 122/104/4
f 99/81/3 123/105/3 100/82/3
f 102/84/3 124/106/3 103/85/3
f 105/87/5 125/107/5 106/88/5
f 108/90/4 126/108/4 109/91/4
f 111/93/4 127/109/4 112/94/4
f 114/96/5 128/110/5 115/97/5
f 117/99/5 129/111/5 118/100/5
f 120/102/4 130/112/4 121/103/4
f 135/113/6 131/114/6 132/115/6
f 131/114/6 135/113/6 138/116/6
f 137/117/6 136/118/6 134/119/6
f 136/118/6 133/120/6 134/119/6
f 141/121/3 142/122/3 143/123/3
f 144/124/3 145/125/3 146/126/3
f 147/127/5 148/128/5 149/129/5
f 150/130/4 151/131/4 152/132/4
f 153/133/4 154/134/4 155/135/4
f 156/136/5 157/137/5 158/138/5
f 159/139/5 160/140/5 161/141/5
f 162/142/4 163/143/4 164/144/4
f 141/121/3 165/145/3 142/122/3
f 144/124/3 166/146/3 145/125/3
f 147/127/5 167/147/5 148/128/5
f 150/130/4 168/148/4 151/131/4
f 153/133/4 169/149/4 154/134/4
f 156/136/5 170/150/5 157/137/5
f 159/139/5 171/151/5 160/140/5
f 162/142/4 172/152/4 163/143/4
f 177/153/6 173/154/6 174/155/6
f 173/154/6 177/153/6 180/156/6
f 179/157/6 178/158/6 176/159/6
f 178/158/6 175/160/6 176/159/6
f 181/161/1 182/162/1 183/163/1
f 184/164/2 185/165/2 186/166/2
f 190/167/3 191/168/3 192/169/3
f 193/170/4 194/171/4 195/172/4
f 196/173/5 197/174/5 198/175/5
f 181/161/1 199/176/1 182/162/1
f 184/164/2 200/177/2 185/165/2
f 190/167/3 202/178/3 191/168/3
f 193/170/4 203/179/4 194/171/4
f 196/173/5 204/180/5 197/174/5
l 7 9
l 7 21
l 8 9
l 8 21
l 31 33
l 31 45
l 32 33
l 32 45
l 55 57
l 55 69
l 56 57
l 56 69
l 79 81
l 79 93
l 80 81
l 80 93
l 187 189
l 187 201
l 188 189
l 188 201
