# Blender v3.2.2 OBJ File: 'train1mkIIl.blend'
# www.blender.org
mtllib track.mtl
o Cube.001
v -5.209394 -1.342411 -1.274408
v -5.209394 -0.772574 -1.274408
v 5.209396 -0.772574 -1.274401
v 5.209396 -1.342411 -1.274401
v 5.209395 -1.342411 0.010140
v 5.209395 -0.772574 0.010140
v -5.209395 -0.772574 0.010133
v -5.209395 -1.342411 0.010133
v -5.209394 -1.342411 -1.274408
v 5.209396 -1.342411 -1.274401
v 5.209395 -1.342411 0.010140
v -5.209395 -1.342411 0.010133
v 5.209396 -0.772574 -1.274401
v -5.209394 -0.772574 -1.274408
v -5.209395 -0.772574 0.010133
v 5.209395 -0.772574 0.010140
v -5.209395 -1.342411 0.010133
v -5.209395 -0.772574 0.010133
v -5.209394 -0.772574 -1.274408
v -5.209394 -1.342411 -1.274408
v 5.209396 -1.342411 -1.274401
v 5.209396 -0.772574 -1.274401
v 5.209395 -0.772574 0.010140
v 5.209395 -1.342411 0.010140
v -5.209393 -1.342411 -3.843487
v -5.209393 -0.772574 -3.843487
v 5.209397 -0.772574 -3.843480
v 5.209397 -1.342411 -3.843480
v 5.209396 -1.342411 -2.558941
v 5.209396 -0.772574 -2.558941
v -5.209394 -0.772574 -2.558948
v -5.209394 -1.342411 -2.558948
v -5.209393 -1.342411 -3.843487
v 5.209397 -1.342411 -3.843480
v 5.209396 -1.342411 -2.558941
v -5.209394 -1.342411 -2.558948
v 5.209397 -0.772574 -3.843480
v -5.209393 -0.772574 -3.843487
v -5.209394 -0.772574 -2.558948
v 5.209396 -0.772574 -2.558941
v -5.209394 -1.342411 -2.558948
v -5.209394 -0.772574 -2.558948
v -5.209393 -0.772574 -3.843487
v -5.209393 -1.342411 -3.843487
v 5.209397 -1.342411 -3.843480
v 5.209397 -0.772574 -3.843480
v 5.209396 -0.772574 -2.558941
v 5.209396 -1.342411 -2.558941
v -5.209391 -1.342411 -6.412568
v -5.209391 -0.772574 -6.412568
v 5.209399 -0.772574 -6.412561
v 5.209399 -1.342411 -6.412561
v 5.209398 -1.342411 -5.128021
v 5.209398 -0.772574 -5.128021
v -5.209392 -0.772574 -5.128027
v -5.209392 -1.342411 -5.128027
v -5.209391 -1.342411 -6.412568
v 5.209399 -1.342411 -6.412561
v 5.209398 -1.342411 -5.128021
v -5.209392 -1.342411 -5.128027
v 5.209399 -0.772574 -6.412561
v -5.209391 -0.772574 -6.412568
v -5.209392 -0.772574 -5.128027
v 5.209398 -0.772574 -5.128021
v -5.209392 -1.342411 -5.128027
v -5.209392 -0.772574 -5.128027
v -5.209391 -0.772574 -6.412568
v -5.209391 -1.342411 -6.412568
v 5.209399 -1.342411 -6.412561
v 5.209399 -0.772574 -6.412561
v 5.209398 -0.772574 -5.128021
v 5.209398 -1.342411 -5.128021
v -5.209389 -1.342411 -8.981649
v -5.209389 -0.772574 -8.981649
v 5.209401 -0.772574 -8.981642
v 5.209401 -1.342411 -8.981643
v 5.209400 -1.342411 -7.697101
v 5.209400 -0.772574 -7.697101
v -5.209390 -0.772574 -7.697107
v -5.209390 -1.342411 -7.697107
v -5.209389 -1.342411 -8.981649
v 5.209401 -1.342411 -8.981643
v 5.209400 -1.342411 -7.697101
v -5.209390 -1.342411 -7.697107
v 5.209401 -0.772574 -8.981642
v -5.209389 -0.772574 -8.981649
v -5.209390 -0.772574 -7.697107
v 5.209400 -0.772574 -7.697101
v -5.209390 -1.342411 -7.697107
v -5.209390 -0.772574 -7.697107
v -5.209389 -0.772574 -8.981649
v -5.209389 -1.342411 -8.981649
v 5.209401 -1.342411 -8.981643
v 5.209401 -0.772574 -8.981642
v 5.209400 -0.772574 -7.697101
v 5.209400 -1.342411 -7.697101
v -5.209387 -1.342411 -11.550728
v -5.209387 -0.772574 -11.550728
v 5.209403 -0.772574 -11.550720
v 5.209403 -1.342411 -11.550721
v 5.209402 -1.342411 -10.266182
v 5.209402 -0.772574 -10.266181
v -5.209388 -0.772574 -10.266189
v -5.209388 -1.342411 -10.266189
v -5.209387 -1.342411 -11.550728
v 5.209403 -1.342411 -11.550721
v 5.209402 -1.342411 -10.266182
v -5.209388 -1.342411 -10.266189
v 5.209403 -0.772574 -11.550720
v -5.209387 -0.772574 -11.550728
v -5.209388 -0.772574 -10.266189
v 5.209402 -0.772574 -10.266181
v -5.209388 -1.342411 -10.266189
v -5.209388 -0.772574 -10.266189
v -5.209387 -0.772574 -11.550728
v -5.209387 -1.342411 -11.550728
v 5.209403 -1.342411 -11.550721
v 5.209403 -0.772574 -11.550720
v 5.209402 -0.772574 -10.266181
v 5.209402 -1.342411 -10.266182
v 3.702998 0.107238 -13.211442
v 3.352310 0.107238 -13.211443
v 3.352278 0.107236 1.671870
v 3.702965 0.107236 1.671870
v 3.631120 -0.083696 1.460496
v 3.424123 -0.083696 1.460496
v 3.424123 -0.604826 1.460496
v 3.631120 -0.604826 1.460496
v 3.424156 -0.083694 -13.000070
v 3.631153 -0.083694 -13.000070
v 3.631153 -0.604824 -13.000070
v 3.424156 -0.604824 -13.000070
v 3.702998 -0.606579 -13.211442
v 3.352310 -0.606579 -13.211443
v 3.352278 -0.606581 1.671870
v 3.702965 -0.606581 1.671870
v 3.352278 -0.083696 1.671870
v 3.352278 0.107236 1.671870
v 3.352310 0.107238 -13.211443
v 3.352310 -0.083694 -13.211443
v 3.702998 -0.083694 -13.211442
v 3.702998 0.107238 -13.211442
v 3.702965 0.107236 1.671870
v 3.702965 -0.083696 1.671870
v 3.631153 -0.083694 -13.000070
v 3.631120 -0.083696 1.460496
v 3.631120 -0.604826 1.460496
v 3.631153 -0.604824 -13.000070
v 3.424123 -0.083696 1.460496
v 3.424156 -0.083694 -13.000070
v 3.424156 -0.604824 -13.000070
v 3.424123 -0.604826 1.460496
v 3.352278 -0.797514 1.671870
v 3.352278 -0.606581 1.671870
v 3.352310 -0.606579 -13.211443
v 3.352310 -0.797512 -13.211443
v 3.702998 -0.797512 -13.211443
v 3.702998 -0.606579 -13.211442
v 3.702965 -0.606581 1.671870
v 3.702965 -0.797514 1.671870
v 3.352310 -0.083694 -13.211443
v 3.352310 0.107238 -13.211443
v 3.702998 0.107238 -13.211442
v 3.702998 -0.083694 -13.211442
v 3.702965 -0.083696 1.671870
v 3.702965 0.107236 1.671870
v 3.352278 0.107236 1.671870
v 3.352278 -0.083696 1.671870
v 3.352310 -0.797512 -13.211443
v 3.352310 -0.606579 -13.211443
v 3.702998 -0.606579 -13.211442
v 3.702998 -0.797512 -13.211443
v 3.702965 -0.797514 1.671870
v 3.702965 -0.606581 1.671870
v 3.352278 -0.606581 1.671870
v 3.352278 -0.797514 1.671870
v -3.702935 0.107238 -13.211448
v -3.702967 0.107236 1.671865
v -3.352280 0.107236 1.671866
v -3.352247 0.107238 -13.211447
v -3.631122 -0.083696 1.460491
v -3.631122 -0.604826 1.460491
v -3.424125 -0.604826 1.460491
v -3.424125 -0.083696 1.460491
v -3.424093 -0.083694 -13.000073
v -3.424093 -0.604824 -13.000073
v -3.631090 -0.604824 -13.000074
v -3.631090 -0.083694 -13.000073
v -3.702935 -0.606579 -13.211448
v -3.702967 -0.606581 1.671865
v -3.352280 -0.606581 1.671866
v -3.352247 -0.606579 -13.211447
v -3.352280 -0.083696 1.671866
v -3.352247 -0.083694 -13.211447
v -3.352247 0.107238 -13.211447
v -3.352280 0.107236 1.671866
v -3.702935 -0.083694 -13.211448
v -3.702967 -0.083696 1.671865
v -3.702967 0.107236 1.671865
v -3.702935 0.107238 -13.211448
v -3.631090 -0.083694 -13.000073
v -3.631090 -0.604824 -13.000074
v -3.631122 -0.604826 1.460491
v -3.631122 -0.083696 1.460491
v -3.424125 -0.083696 1.460491
v -3.424125 -0.604826 1.460491
v -3.424093 -0.604824 -13.000073
v -3.424093 -0.083694 -13.000073
v -3.352280 -0.797514 1.671866
v -3.352247 -0.797512 -13.211447
v -3.352247 -0.606579 -13.211447
v -3.352280 -0.606581 1.671866
v -3.702935 -0.797512 -13.211448
v -3.702967 -0.797514 1.671865
v -3.702967 -0.606581 1.671865
v -3.702935 -0.606579 -13.211448
v -3.352247 -0.083694 -13.211447
v -3.702935 -0.083694 -13.211448
v -3.702935 0.107238 -13.211448
v -3.352247 0.107238 -13.211447
v -3.702967 -0.083696 1.671865
v -3.352280 -0.083696 1.671866
v -3.352280 0.107236 1.671866
v -3.702967 0.107236 1.671865
v -3.352247 -0.797512 -13.211447
v -3.702935 -0.797512 -13.211448
v -3.702935 -0.606579 -13.211448
v -3.352247 -0.606579 -13.211447
v -3.702967 -0.797514 1.671865
v -3.352280 -0.797514 1.671866
v -3.352280 -0.606581 1.671866
v -3.702967 -0.606581 1.671865
vt 0.092105 0.559295
vt 0.058388 0.593012
vt 0.058388 0.559295
vt 0.092105 0.626728
vt 0.058388 0.660445
vt 0.058388 0.626728
vt 0.058388 0.593012
vt 0.024671 0.626728
vt 0.024671 0.593012
vt 0.125821 0.593012
vt 0.092105 0.626728
vt 0.092105 0.593012
vt 0.092105 0.525579
vt 0.058388 0.559295
vt 0.058388 0.525579
vt 0.092105 0.593012
vt 0.058388 0.626728
vt 0.058388 0.593012
vt 0.092105 0.559295
vt 0.058388 0.593012
vt 0.058388 0.559295
vt 0.092105 0.626728
vt 0.058388 0.660445
vt 0.058388 0.626728
vt 0.058388 0.593012
vt 0.024671 0.626728
vt 0.024671 0.593012
vt 0.125821 0.593012
vt 0.092105 0.626728
vt 0.092105 0.593012
vt 0.092105 0.525579
vt 0.058388 0.559295
vt 0.058388 0.525579
vt 0.092105 0.593012
vt 0.058388 0.626728
vt 0.058388 0.593012
vt 0.092105 0.559295
vt 0.058388 0.593012
vt 0.058388 0.559295
vt 0.092105 0.626728
vt 0.058388 0.660445
vt 0.058388 0.626728
vt 0.058388 0.593012
vt 0.024671 0.626728
vt 0.024671 0.593012
vt 0.125821 0.593012
vt 0.092105 0.626728
vt 0.092105 0.593012
vt 0.092105 0.525579
vt 0.058388 0.559295
vt 0.058388 0.525579
vt 0.092105 0.593012
vt 0.058388 0.626728
vt 0.058388 0.593012
vt 0.092105 0.559295
vt 0.058388 0.593012
vt 0.058388 0.559295
vt 0.092105 0.626728
vt 0.058388 0.660445
vt 0.058388 0.626728
vt 0.058388 0.593012
vt 0.024671 0.626728
vt 0.024671 0.593012
vt 0.125821 0.593012
vt 0.092105 0.626728
vt 0.092105 0.593012
vt 0.092105 0.525579
vt 0.058388 0.559295
vt 0.058388 0.525579
vt 0.092105 0.593012
vt 0.058388 0.626728
vt 0.058388 0.593012
vt 0.092105 0.559295
vt 0.058388 0.593012
vt 0.058388 0.559295
vt 0.092105 0.626728
vt 0.058388 0.660445
vt 0.058388 0.626728
vt 0.058388 0.593012
vt 0.024671 0.626728
vt 0.024671 0.593012
vt 0.125821 0.593012
vt 0.092105 0.626728
vt 0.092105 0.593012
vt 0.092105 0.525579
vt 0.058388 0.559295
vt 0.058388 0.525579
vt 0.092105 0.593012
vt 0.058388 0.626728
vt 0.058388 0.593012
vt 0.067315 0.033230
vt 0.890836 0.047603
vt 0.067166 0.047603
vt 0.160451 0.036258
vt 0.146880 0.030868
vt 0.160451 0.030868
vt 0.175179 0.028384
vt 0.188750 0.033774
vt 0.175179 0.033774
vt 0.001096 0.059068
vt 0.824616 0.073442
vt 0.000946 0.073441
vt 0.009206 0.023440
vt 0.616852 0.034046
vt 0.009062 0.034046
vt 0.734500 0.048922
vt 0.126854 0.038316
vt 0.734644 0.038316
vt -1.539095 0.073112
vt 2.538258 0.001941
vt 2.538652 0.073111
vt 2.623069 0.000229
vt -1.570479 0.073428
vt -1.570884 0.000230
vt 0.009206 0.044990
vt 0.616852 0.055596
vt 0.009062 0.055596
vt 0.009206 0.034215
vt 0.616852 0.044821
vt 0.009062 0.044821
vt 0.116640 0.026461
vt 0.107507 0.021488
vt 0.116640 0.021488
vt 0.107507 0.016347
vt 0.116640 0.021319
vt 0.107507 0.021319
vt 0.116640 0.016177
vt 0.107507 0.011205
vt 0.116640 0.011205
vt 0.112480 0.026630
vt 0.107507 0.035763
vt 0.107507 0.026630
vt 0.890836 0.047603
vt 0.067315 0.033230
vt 0.067166 0.047603
vt 0.146880 0.030868
vt 0.160451 0.036258
vt 0.160451 0.030868
vt 0.188750 0.033774
vt 0.175179 0.028384
vt 0.175179 0.033774
vt 0.824616 0.073442
vt 0.001096 0.059068
vt 0.000946 0.073441
vt 0.616852 0.034046
vt 0.009206 0.023440
vt 0.009062 0.034046
vt 0.126854 0.038316
vt 0.734500 0.048922
vt 0.734644 0.038316
vt 2.538258 0.001941
vt -1.539095 0.073112
vt 2.538652 0.073111
vt -1.570479 0.073428
vt 2.623069 0.000229
vt -1.570884 0.000230
vt 0.616852 0.055596
vt 0.009206 0.044990
vt 0.009062 0.055596
vt 0.616852 0.044821
vt 0.009206 0.034215
vt 0.009062 0.044821
vt 0.107507 0.021488
vt 0.116640 0.026461
vt 0.116640 0.021488
vt 0.116640 0.021319
vt 0.107507 0.016347
vt 0.107507 0.021319
vt 0.107507 0.011205
vt 0.116640 0.016177
vt 0.116640 0.011205
vt 0.107507 0.035763
vt 0.112480 0.026630
vt 0.107507 0.026630
vt 0.092105 0.593012
vt 0.092105 0.660445
vt 0.058388 0.626728
vt 0.125821 0.626728
vt 0.092105 0.559295
vt 0.092105 0.626728
vt 0.092105 0.593012
vt 0.092105 0.660445
vt 0.058388 0.626728
vt 0.125821 0.626728
vt 0.092105 0.559295
vt 0.092105 0.626728
vt 0.092105 0.593012
vt 0.092105 0.660445
vt 0.058388 0.626728
vt 0.125821 0.626728
vt 0.092105 0.559295
vt 0.092105 0.626728
vt 0.092105 0.593012
vt 0.092105 0.660445
vt 0.058388 0.626728
vt 0.125821 0.626728
vt 0.092105 0.559295
vt 0.092105 0.626728
vt 0.092105 0.593012
vt 0.092105 0.660445
vt 0.058388 0.626728
vt 0.125821 0.626728
vt 0.092105 0.559295
vt 0.092105 0.626728
vt 0.890985 0.033229
vt 0.146880 0.036258
vt 0.188750 0.028384
vt 0.824766 0.059068
vt 0.616997 0.023440
vt 0.126710 0.048922
vt -1.539489 0.001941
vt 2.623474 0.073428
vt 0.616997 0.044990
vt 0.616997 0.034215
vt 0.107507 0.026461
vt 0.116640 0.016347
vt 0.107507 0.016177
vt 0.112480 0.035763
vt 0.890985 0.033229
vt 0.146880 0.036258
vt 0.188750 0.028384
vt 0.824766 0.059068
vt 0.616997 0.023440
vt 0.126710 0.048922
vt -1.539489 0.001941
vt 2.623474 0.073428
vt 0.616997 0.044990
vt 0.616997 0.034215
vt 0.107507 0.026461
vt 0.116640 0.016347
vt 0.107507 0.016177
vt 0.112480 0.035763
vn 0.0000 0.0000 -1.0000
vn -0.0000 -0.0000 1.0000
vn 0.0000 -1.0000 0.0000
vn -0.0000 1.0000 -0.0000
vn -1.0000 0.0000 -0.0000
vn 1.0000 0.0000 0.0000
usemtl METAL.003
s 1
f 2/1/1 4/2/1 1/3/1
f 6/4/2 8/5/2 5/6/2
f 10/7/3 12/8/3 9/9/3
f 14/10/4 16/11/4 13/12/4
f 18/13/5 20/14/5 17/15/5
f 22/16/6 24/17/6 21/18/6
f 26/19/1 28/20/1 25/21/1
f 30/22/2 32/23/2 29/24/2
f 34/25/3 36/26/3 33/27/3
f 38/28/4 40/29/4 37/30/4
f 42/31/5 44/32/5 41/33/5
f 46/34/6 48/35/6 45/36/6
f 50/37/1 52/38/1 49/39/1
f 54/40/2 56/41/2 53/42/2
f 58/43/3 60/44/3 57/45/3
f 62/46/4 64/47/4 61/48/4
f 66/49/5 68/50/5 65/51/5
f 70/52/6 72/53/6 69/54/6
f 74/55/1 76/56/1 73/57/1
f 78/58/2 80/59/2 77/60/2
f 82/61/3 84/62/3 81/63/3
f 86/64/4 88/65/4 85/66/4
f 90/67/5 92/68/5 89/69/5
f 94/70/6 96/71/6 93/72/6
f 98/73/1 100/74/1 97/75/1
f 102/76/2 104/77/2 101/78/2
f 106/79/3 108/80/3 105/81/3
f 110/82/4 112/83/4 109/84/4
f 114/85/5 116/86/5 113/87/5
f 118/88/6 120/89/6 117/90/6
f 122/91/4 124/92/4 121/93/4
f 126/94/2 128/95/2 125/96/2
f 130/97/1 132/98/1 129/99/1
f 134/100/4 136/101/4 133/102/4
f 138/103/5 140/104/5 137/105/5
f 142/106/6 144/107/6 141/108/6
f 146/109/6 148/110/6 145/111/6
f 150/112/5 152/113/5 149/114/5
f 154/115/5 156/116/5 153/117/5
f 158/118/6 160/119/6 157/120/6
f 162/121/1 164/122/1 161/123/1
f 166/124/2 168/125/2 165/126/2
f 170/127/1 172/128/1 169/129/1
f 174/130/2 176/131/2 173/132/2
f 178/133/4 180/134/4 177/135/4
f 182/136/2 184/137/2 181/138/2
f 186/139/1 188/140/1 185/141/1
f 190/142/4 192/143/4 189/144/4
f 194/145/6 196/146/6 193/147/6
f 198/148/5 200/149/5 197/150/5
f 202/151/5 204/152/5 201/153/5
f 206/154/6 208/155/6 205/156/6
f 210/157/6 212/158/6 209/159/6
f 214/160/5 216/161/5 213/162/5
f 218/163/1 220/164/1 217/165/1
f 222/166/2 224/167/2 221/168/2
f 226/169/1 228/170/1 225/171/1
f 230/172/2 232/173/2 229/174/2
f 2/1/1 3/175/1 4/2/1
f 6/4/2 7/176/2 8/5/2
f 10/7/3 11/177/3 12/8/3
f 14/10/4 15/178/4 16/11/4
f 18/13/5 19/179/5 20/14/5
f 22/16/6 23/180/6 24/17/6
f 26/19/1 27/181/1 28/20/1
f 30/22/2 31/182/2 32/23/2
f 34/25/3 35/183/3 36/26/3
f 38/28/4 39/184/4 40/29/4
f 42/31/5 43/185/5 44/32/5
f 46/34/6 47/186/6 48/35/6
f 50/37/1 51/187/1 52/38/1
f 54/40/2 55/188/2 56/41/2
f 58/43/3 59/189/3 60/44/3
f 62/46/4 63/190/4 64/47/4
f 66/49/5 67/191/5 68/50/5
f 70/52/6 71/192/6 72/53/6
f 74/55/1 75/193/1 76/56/1
f 78/58/2 79/194/2 80/59/2
f 82/61/3 83/195/3 84/62/3
f 86/64/4 87/196/4 88/65/4
f 90/67/5 91/197/5 92/68/5
f 94/70/6 95/198/6 96/71/6
f 98/73/1 99/199/1 100/74/1
f 102/76/2 103/200/2 104/77/2
f 106/79/3 107/201/3 108/80/3
f 110/82/4 111/202/4 112/83/4
f 114/85/5 115/203/5 116/86/5
f 118/88/6 119/204/6 120/89/6
f 122/91/4 123/205/4 124/92/4
f 126/94/2 127/206/2 128/95/2
f 130/97/1 131/207/1 132/98/1
f 134/100/4 135/208/4 136/101/4
f 138/103/5 139/209/5 140/104/5
f 142/106/6 143/210/6 144/107/6
f 146/109/6 147/211/6 148/110/6
f 150/112/5 151/212/5 152/113/5
f 154/115/5 155/213/5 156/116/5
f 158/118/6 159/214/6 160/119/6
f 162/121/1 163/215/1 164/122/1
f 166/124/2 167/216/2 168/125/2
f 170/127/1 171/217/1 172/128/1
f 174/130/2 175/218/2 176/131/2
f 178/133/4 179/219/4 180/134/4
f 182/136/2 183/220/2 184/137/2
f 186/139/1 187/221/1 188/140/1
f 190/142/4 191/222/4 192/143/4
f 194/145/6 195/223/6 196/146/6
f 198/148/5 199/224/5 200/149/5
f 202/151/5 203/225/5 204/152/5
f 206/154/6 207/226/6 208/155/6
f 210/157/6 211/227/6 212/158/6
f 214/160/5 215/228/5 216/161/5
f 218/163/1 219/229/1 220/164/1
f 222/166/2 223/230/2 224/167/2
f 226/169/1 227/231/1 228/170/1
f 230/172/2 231/232/2 232/173/2
