# Blender v3.2.2 OBJ File: ''
# www.blender.org
mtllib trackCRight5D.mtl
o Cube.001
v -5.210667 -0.797514 4.436536
v 5.206536 -1.367351 4.618376
v -5.210667 -1.367351 4.436536
v 5.184117 -0.797514 5.902720
v -5.233086 -1.367351 5.720881
v 5.184117 -1.367351 5.902720
v -5.210667 -0.797514 4.436536
v 5.184117 -0.797514 5.902720
v 5.206536 -0.797514 4.618376
v -5.233086 -0.797514 5.720881
v -5.210667 -1.367351 4.436536
v -5.233086 -1.367351 5.720881
v 5.206536 -0.797514 4.618376
v 5.184117 -1.367351 5.902720
v 5.206536 -1.367351 4.618376
v 5.206536 -0.797514 4.618376
v -5.233086 -0.797514 5.720881
v -5.233086 -0.797514 5.720881
v -5.210667 -0.797514 4.436536
v 5.184117 -0.797514 5.902720
v -5.209396 -0.797514 -0.610851
v 5.209394 -1.367351 -0.610844
v -5.209396 -1.367351 -0.610851
v 5.209393 -0.797514 0.673697
v -5.209397 -1.367351 0.673690
v 5.209393 -1.367351 0.673697
v -5.209396 -0.797514 -0.610851
v 5.209393 -0.797514 0.673697
v 5.209394 -0.797514 -0.610844
v -5.209397 -0.797514 0.673690
v -5.209396 -1.367351 -0.610851
v -5.209397 -1.367351 0.673690
v 5.209394 -0.797514 -0.610844
v 5.209393 -1.367351 0.673697
v 5.209394 -1.367351 -0.610844
v 5.209394 -0.797514 -0.610844
v -5.209397 -0.797514 0.673690
v -5.209397 -0.797514 0.673690
v -5.209396 -0.797514 -0.610851
v 5.209393 -0.797514 0.673697
v -5.209396 -0.797514 -3.148416
v 5.209394 -1.367351 -3.148409
v -5.209396 -1.367351 -3.148416
v 5.209393 -0.797514 -1.863869
v -5.209397 -1.367351 -1.863876
v 5.209393 -1.367351 -1.863869
v -5.209396 -0.797514 -3.148416
v 5.209393 -0.797514 -1.863869
v 5.209394 -0.797514 -3.148409
v -5.209397 -0.797514 -1.863875
v -5.209396 -1.367351 -3.148416
v -5.209397 -1.367351 -1.863876
v 5.209394 -0.797514 -3.148409
v 5.209393 -1.367351 -1.863869
v 5.209394 -1.367351 -3.148409
v 5.209394 -0.797514 -3.148409
v -5.209397 -0.797514 -1.863875
v -5.209397 -0.797514 -1.863875
v -5.209396 -0.797514 -3.148416
v 5.209393 -0.797514 -1.863869
v 5.209396 -0.797514 -4.432782
v -5.209394 -1.367351 -4.432786
v 5.209396 -1.367351 -4.432782
v -5.209393 -0.797514 -5.717326
v 5.209397 -1.367351 -5.717323
v -5.209393 -1.367351 -5.717326
v 5.209396 -0.797514 -4.432782
v -5.209393 -0.797514 -5.717326
v -5.209394 -0.797514 -4.432786
v 5.209397 -0.797514 -5.717323
v 5.209396 -1.367351 -4.432782
v 5.209397 -1.367351 -5.717323
v -5.209394 -0.797514 -4.432786
v -5.209393 -1.367351 -5.717326
v -5.209394 -1.367351 -4.432786
v -5.209394 -0.797514 -4.432786
v 5.209397 -0.797514 -5.717323
v 5.209397 -0.797514 -5.717323
v 5.209396 -0.797514 -4.432782
v -5.209393 -0.797514 -5.717326
v -3.398727 0.082298 7.037644
v -3.702994 0.082296 -7.001868
v -3.749362 0.082298 7.031523
v -3.398727 -0.631519 7.037644
v -3.702994 -0.631521 -7.001868
v -3.749362 -0.631519 7.031523
v -3.352305 0.082296 -7.001869
v -3.398727 -0.108634 7.037644
v -3.352305 -0.108636 -7.001869
v -3.749362 0.082298 7.031523
v -3.702994 -0.108636 -7.001868
v -3.749362 -0.108634 7.031523
v -3.631148 -0.108636 -7.001867
v -3.677527 -0.629764 7.032778
v -3.677527 -0.108634 7.032778
v -3.470562 -0.108634 7.036390
v -3.424151 -0.629766 -7.001867
v -3.424151 -0.108636 -7.001867
v -3.352305 -0.631521 -7.001868
v -3.398727 -0.797514 7.037644
v -3.352305 -0.797517 -7.001868
v -3.749362 -0.631519 7.031523
v -3.702994 -0.797517 -7.001868
v -3.749362 -0.797514 7.031524
v -3.352305 0.082296 -7.001869
v -3.352305 -0.631521 -7.001868
v -3.398727 0.082298 7.037644
v -3.702994 0.082296 -7.001868
v -3.631148 -0.629766 -7.001867
v -3.470562 -0.629764 7.036390
v -3.398727 -0.631519 7.037644
v -3.702994 -0.631521 -7.001868
v -3.749362 -0.108634 7.031523
v -3.631148 -0.108636 -7.001867
v -3.677527 -0.108634 7.032778
v -3.702994 -0.108636 -7.001868
v -3.352305 -0.108636 -7.001869
v -3.398727 -0.108634 7.037644
v -3.424151 -0.108636 -7.001867
v -3.470562 -0.108634 7.036390
v 3.655411 0.082298 7.160773
v 3.352218 0.082296 -7.001871
v 3.304775 0.082298 7.154652
v 3.655411 -0.631519 7.160773
v 3.352218 -0.631521 -7.001871
v 3.304775 -0.631519 7.154652
v 3.702907 0.082296 -7.001871
v 3.655411 -0.108634 7.160773
v 3.702907 -0.108636 -7.001871
v 3.304775 0.082298 7.154652
v 3.352218 -0.108636 -7.001871
v 3.304775 -0.108634 7.154652
v 3.424064 -0.108636 -7.001869
v 3.376610 -0.629764 7.155906
v 3.376610 -0.108634 7.155906
v 3.583576 -0.108634 7.159518
v 3.631061 -0.629766 -7.001869
v 3.631061 -0.108636 -7.001869
v 3.702907 -0.631521 -7.001871
v 3.655411 -0.797514 7.160773
v 3.702907 -0.797517 -7.001871
v 3.304775 -0.631519 7.154652
v 3.352218 -0.797517 -7.001871
v 3.304775 -0.797514 7.154653
v 3.702907 0.082296 -7.001871
v 3.702907 -0.631521 -7.001871
v 3.655411 0.082298 7.160773
v 3.352218 0.082296 -7.001871
v 3.424064 -0.629766 -7.001869
v 3.583576 -0.629764 7.159518
v 3.655411 -0.631519 7.160773
v 3.352218 -0.631521 -7.001871
v 3.304775 -0.108634 7.154652
v 3.424064 -0.108636 -7.001869
v 3.376610 -0.108634 7.155906
v 3.352218 -0.108636 -7.001871
v 3.702907 -0.108636 -7.001871
v 3.655411 -0.108634 7.160773
v 3.631061 -0.108636 -7.001869
v 3.583576 -0.108634 7.159518
v -5.165830 -0.797514 1.867838
v 5.251373 -1.367351 2.049678
v -5.165830 -1.367351 1.867838
v 5.228953 -0.797514 3.334022
v -5.188250 -1.367351 3.152183
v 5.228953 -1.367351 3.334022
v -5.165830 -0.797514 1.867838
v 5.228953 -0.797514 3.334022
v 5.251373 -0.797514 2.049678
v -5.188250 -0.797514 3.152183
v -5.165830 -1.367351 1.867838
v -5.188250 -1.367351 3.152183
v 5.251373 -0.797514 2.049678
v 5.228953 -1.367351 3.334022
v 5.251373 -1.367351 2.049678
v 5.251373 -0.797514 2.049678
v -5.188250 -0.797514 3.152183
v -5.188250 -0.797514 3.152183
v -5.165830 -0.797514 1.867838
v 5.228953 -0.797514 3.334022
v 5.206536 -1.367351 4.618376
v -5.210667 -1.367351 4.436536
v 5.184117 -1.367351 5.902720
v -5.233086 -1.367351 5.720881
v 5.209394 -1.367351 -0.610844
v -5.209396 -1.367351 -0.610851
v 5.209393 -1.367351 0.673697
v -5.209397 -1.367351 0.673690
v 5.209394 -1.367351 -3.148409
v -5.209396 -1.367351 -3.148416
v 5.209393 -1.367351 -1.863869
v -5.209397 -1.367351 -1.863876
v -5.209394 -1.367351 -4.432786
v 5.209396 -1.367351 -4.432782
v -5.209393 -1.367351 -5.717326
v 5.209397 -1.367351 -5.717323
v 5.251373 -1.367351 2.049678
v -5.165830 -1.367351 1.867838
v 5.228953 -1.367351 3.334022
v -5.188250 -1.367351 3.152183
v -3.527665 0.082297 0.047275
v -3.703010 -0.631520 0.047274
v -3.352320 -0.013169 0.047274
v -3.703010 -0.108635 0.047274
v -3.631164 -0.369200 0.047275
v -3.631164 -0.108635 0.047275
v -3.352320 -0.714517 0.047275
v -3.703010 -0.797516 0.047275
v -3.352320 0.082297 0.047274
v -3.352320 0.082297 0.047274
v -3.424166 -0.629765 0.047275
v -3.352320 -0.631520 0.047275
v -3.667087 -0.108635 0.047275
v -3.703010 -0.108635 0.047274
v -3.352320 -0.108635 0.047274
v -3.424166 -0.108635 0.047275
v 3.527547 0.082297 0.047272
v 3.352202 -0.631520 0.047272
v 3.702892 -0.013169 0.047272
v 3.352202 -0.108635 0.047272
v 3.424048 -0.369200 0.047273
v 3.424048 -0.108635 0.047273
v 3.702892 -0.714517 0.047272
v 3.352202 -0.797516 0.047272
v 3.702892 0.082297 0.047272
v 3.702892 0.082297 0.047272
v 3.631046 -0.629765 0.047273
v 3.702892 -0.631520 0.047272
v 3.388125 -0.108635 0.047272
v 3.352202 -0.108635 0.047271
v 3.702892 -0.108635 0.047272
v 3.631046 -0.108635 0.047273
v -3.703010 0.082297 0.047274
v -3.527665 -0.631520 0.047275
v -3.352320 -0.108635 0.047274
v -3.703010 -0.013169 0.047274
v -3.424166 -0.369200 0.047275
v -3.424166 -0.108635 0.047275
v -3.352320 -0.797516 0.047275
v -3.703010 -0.714518 0.047274
v -3.352320 -0.631520 0.047275
v -3.703010 0.082297 0.047274
v -3.631164 -0.629765 0.047275
v -3.703010 -0.631520 0.047274
v -3.631164 -0.108635 0.047275
v -3.388243 -0.108635 0.047275
v 3.352202 0.082297 0.047272
v 3.527547 -0.631520 0.047272
v 3.702892 -0.108635 0.047272
v 3.352202 -0.013169 0.047271
v 3.631046 -0.369200 0.047272
v 3.631046 -0.108635 0.047272
v 3.702892 -0.797516 0.047272
v 3.352202 -0.714518 0.047271
v 3.702892 -0.631520 0.047272
v 3.352202 0.082297 0.047271
v 3.424048 -0.629765 0.047272
v 3.352202 -0.631520 0.047271
v 3.424048 -0.108635 0.047273
v 3.666969 -0.108635 0.047273
vt 0.092105 0.559295
vt 0.058388 0.593012
vt 0.058388 0.559295
vt 0.092105 0.626728
vt 0.058388 0.660445
vt 0.058388 0.626728
vt 0.125821 0.593012
vt 0.092105 0.626728
vt 0.092105 0.593012
vt 0.092105 0.525579
vt 0.058388 0.559295
vt 0.058388 0.525579
vt 0.092105 0.593012
vt 0.058388 0.626728
vt 0.058388 0.593012
vt 0.092105 0.593012
vt 0.092105 0.660445
vt 0.125821 0.626728
vt 0.092105 0.559295
vt 0.092105 0.626728
vt 0.092105 0.559295
vt 0.058388 0.593012
vt 0.058388 0.559295
vt 0.092105 0.626728
vt 0.058388 0.660445
vt 0.058388 0.626728
vt 0.125821 0.593012
vt 0.092105 0.626728
vt 0.092105 0.593012
vt 0.092105 0.525579
vt 0.058388 0.559295
vt 0.058388 0.525579
vt 0.092105 0.593012
vt 0.058388 0.626728
vt 0.058388 0.593012
vt 0.092105 0.593012
vt 0.092105 0.660445
vt 0.125821 0.626728
vt 0.092105 0.559295
vt 0.092105 0.626728
vt 0.092105 0.559295
vt 0.058388 0.593012
vt 0.058388 0.559295
vt 0.092105 0.626728
vt 0.058388 0.660445
vt 0.058388 0.626728
vt 0.125821 0.593012
vt 0.092105 0.626728
vt 0.092105 0.593012
vt 0.092105 0.525579
vt 0.058388 0.559295
vt 0.058388 0.525579
vt 0.092105 0.593012
vt 0.058388 0.626728
vt 0.058388 0.593012
vt 0.092105 0.593012
vt 0.092105 0.660445
vt 0.125821 0.626728
vt 0.092105 0.559295
vt 0.092105 0.626728
vt 0.092105 0.559295
vt 0.058388 0.593012
vt 0.058388 0.559295
vt 0.092105 0.626728
vt 0.058388 0.660445
vt 0.058388 0.626728
vt 0.125821 0.593012
vt 0.092105 0.626728
vt 0.092105 0.593012
vt 0.092105 0.525579
vt 0.058388 0.559295
vt 0.058388 0.525579
vt 0.092105 0.593012
vt 0.058388 0.626728
vt 0.058388 0.593012
vt 0.092105 0.593012
vt 0.092105 0.660445
vt 0.125821 0.626728
vt 0.092105 0.559295
vt 0.092105 0.626728
vt 0.479075 0.040417
vt 0.890836 0.047603
vt 0.479001 0.047603
vt 0.412856 0.066255
vt 0.824616 0.073442
vt 0.412781 0.073441
vt 0.313029 0.028743
vt 0.616852 0.034046
vt 0.312957 0.034046
vt 0.430677 0.043619
vt 0.126854 0.038316
vt 0.430749 0.038316
vt 0.499582 0.037527
vt 2.538652 0.073111
vt 0.499778 0.073112
vt 0.526295 0.036828
vt -1.570884 0.000230
vt 0.526093 0.000230
vt 0.313029 0.050293
vt 0.616852 0.055596
vt 0.312957 0.055596
vt 0.313029 0.039518
vt 0.616852 0.044821
vt 0.312957 0.044821
vt 0.890985 0.033229
vt 0.479150 0.033230
vt 0.824766 0.059068
vt 0.412931 0.059068
vt 0.616997 0.023440
vt 0.313102 0.023440
vt 0.126710 0.048922
vt 0.430605 0.048922
vt 0.499385 0.001941
vt 2.538258 0.001941
vt 0.526497 0.073428
vt -1.570479 0.073428
vt 0.616997 0.044990
vt 0.313102 0.044990
vt 0.616997 0.034215
vt 0.313102 0.034215
vt -0.769548 0.036556
vt 0.499778 0.073112
vt 2.538652 0.073111
vt 0.000000 0.000000
vt 0.000000 0.000000
vt 0.000000 0.000000
vt 0.000000 0.000000
vt 0.000000 0.000000
vt 2.623069 0.000229
vt 1.311535 0.000114
vt 0.479075 0.040417
vt 0.890836 0.047603
vt 0.479001 0.047603
vt 0.412856 0.066255
vt 0.824616 0.073442
vt 0.412781 0.073441
vt 0.313029 0.028743
vt 0.616852 0.034046
vt 0.312957 0.034046
vt 0.430677 0.043619
vt 0.126854 0.038316
vt 0.430749 0.038316
vt 0.499582 0.037527
vt 2.538652 0.073111
vt 0.499778 0.073112
vt 0.526295 0.036828
vt -1.570884 0.000230
vt 0.526093 0.000230
vt 0.313029 0.050293
vt 0.616852 0.055596
vt 0.312957 0.055596
vt 0.313029 0.039518
vt 0.616852 0.044821
vt 0.312957 0.044821
vt 0.890985 0.033229
vt 0.479150 0.033230
vt 0.824766 0.059068
vt 0.412931 0.059068
vt 0.616997 0.023440
vt 0.313102 0.023440
vt 0.126710 0.048922
vt 0.430605 0.048922
vt 0.499385 0.001941
vt 2.538258 0.001941
vt 0.526497 0.073428
vt -1.570479 0.073428
vt 0.616997 0.044990
vt 0.313102 0.044990
vt 0.616997 0.034215
vt 0.313102 0.034215
vt -0.769548 0.036556
vt 0.499778 0.073112
vt 2.538652 0.073111
vt 0.000000 0.000000
vt 0.000000 0.000000
vt 0.000000 0.000000
vt 0.000000 0.000000
vt 0.000000 0.000000
vt 2.623069 0.000229
vt 1.311535 0.000114
vt 0.092105 0.559295
vt 0.058388 0.593012
vt 0.058388 0.559295
vt 0.092105 0.626728
vt 0.058388 0.660445
vt 0.058388 0.626728
vt 0.125821 0.593012
vt 0.092105 0.626728
vt 0.092105 0.593012
vt 0.092105 0.525579
vt 0.058388 0.559295
vt 0.058388 0.525579
vt 0.092105 0.593012
vt 0.058388 0.626728
vt 0.058388 0.593012
vt 0.092105 0.593012
vt 0.092105 0.660445
vt 0.125821 0.626728
vt 0.092105 0.559295
vt 0.092105 0.626728
vt 0.009206 0.034215
vt 0.009206 0.044990
vt 2.623474 0.073428
vt 2.623069 0.000229
vt -1.539489 0.001941
vt -1.539095 0.073112
vt 0.734500 0.048922
vt 0.009206 0.023440
vt 0.001096 0.059068
vt 0.067315 0.033230
vt 0.009062 0.044821
vt 0.009062 0.055596
vt 0.734644 0.038316
vt 0.009062 0.034046
vt 0.000946 0.073441
vt 0.067166 0.047603
vt 0.009206 0.034215
vt 0.009206 0.044990
vt 2.623474 0.073428
vt 2.623069 0.000229
vt -1.539489 0.001941
vt -1.539095 0.073112
vt 0.734500 0.048922
vt 0.009206 0.023440
vt 0.001096 0.059068
vt 0.067315 0.033230
vt 0.009062 0.044821
vt 0.009062 0.055596
vt 0.734644 0.038316
vt 0.009062 0.034046
vt 0.000946 0.073441
vt 0.067166 0.047603
vt 0.000000 0.000000
vt -1.539095 0.073112
vt 0.000000 0.000000
vt 0.000000 0.000000
vt 0.000000 0.000000
vt -1.539095 0.073112
vt 0.000000 0.000000
vt 0.000000 0.000000
vn 0.0175 0.0000 -0.9998
vn -0.0175 0.0000 0.9998
vn -0.0000 1.0000 0.0000
vn -0.9998 0.0000 -0.0175
vn 0.9998 0.0000 0.0175
vn 0.0000 0.0000 -1.0000
vn -0.0000 0.0000 1.0000
vn -1.0000 0.0000 -0.0000
vn 1.0000 0.0000 0.0000
vn 1.0000 0.0000 0.0033
vn 1.0000 0.0000 0.0066
vn -1.0000 -0.0000 -0.0033
vn -1.0000 0.0000 -0.0066
vn -0.0000 -1.0000 0.0000
vn 1.0000 0.0000 0.0067
vn -1.0000 0.0000 -0.0067
usemtl METAL.001
s 1
f 1/1/1 2/2/1 3/3/1
f 4/4/2 5/5/2 6/6/2
f 7/7/3 8/8/3 9/9/3
f 10/10/4 11/11/4 12/12/4
f 13/13/5 14/14/5 15/15/5
f 1/1/1 16/16/1 2/2/1
f 4/4/2 17/17/2 5/5/2
f 7/7/3 18/18/3 8/8/3
f 10/10/4 19/19/4 11/11/4
f 13/13/5 20/20/5 14/14/5
f 21/21/6 22/22/6 23/23/6
f 24/24/7 25/25/7 26/26/7
f 27/27/3 28/28/3 29/29/3
f 30/30/8 31/31/8 32/32/8
f 33/33/9 34/34/9 35/35/9
f 21/21/6 36/36/6 22/22/6
f 24/24/7 37/37/7 25/25/7
f 27/27/3 38/38/3 28/28/3
f 30/30/8 39/39/8 31/31/8
f 33/33/9 40/40/9 34/34/9
f 41/41/6 42/42/6 43/43/6
f 44/44/7 45/45/7 46/46/7
f 47/47/3 48/48/3 49/49/3
f 50/50/8 51/51/8 52/52/8
f 53/53/9 54/54/9 55/55/9
f 41/41/6 56/56/6 42/42/6
f 44/44/7 57/57/7 45/45/7
f 47/47/3 58/58/3 48/48/3
f 50/50/8 59/59/8 51/51/8
f 53/53/9 60/60/9 54/54/9
f 61/61/7 62/62/7 63/63/7
f 64/64/6 65/65/6 66/66/6
f 67/67/3 68/68/3 69/69/3
f 70/70/9 71/71/9 72/72/9
f 73/73/8 74/74/8 75/75/8
f 61/61/7 76/76/7 62/62/7
f 64/64/6 77/77/6 65/65/6
f 67/67/3 78/78/3 68/68/3
f 70/70/9 79/79/9 71/71/9
f 73/73/8 80/80/8 74/74/8
f 201/81/3 82/82/3 233/83/3
f 234/84/3 85/85/3 202/86/3
f 203/87/10 88/88/11 235/89/10
f 236/90/12 91/91/8 204/92/12
f 205/93/12 95/94/13 206/95/12
f 237/96/10 98/97/9 238/98/10
f 207/99/10 100/100/11 239/101/10
f 240/102/12 103/103/8 208/104/12
f 105/105/3 201/81/3 209/106/3
f 106/107/3 234/84/3 241/108/3
f 107/109/11 203/87/10 210/110/10
f 108/111/8 236/90/12 242/112/12
f 205/93/12 243/113/12 94/114/13
f 237/96/10 211/115/10 97/116/9
f 111/117/11 207/99/10 212/118/10
f 112/119/8 240/102/12 244/120/12
f 213/121/14 245/122/14 115/123/14
f 213/121/14 214/124/14 116/125/14
f 215/126/14 118/127/14 246/128/14
f 120/129/14 216/130/14 246/128/14
f 217/131/3 122/132/3 247/133/3
f 248/134/3 125/135/3 218/136/3
f 219/137/10 128/138/15 249/139/10
f 250/140/12 131/141/8 220/142/12
f 221/143/12 135/144/16 222/145/12
f 251/146/10 138/147/9 252/148/10
f 223/149/10 140/150/15 253/151/10
f 254/152/12 143/153/8 224/154/12
f 145/155/3 217/131/3 225/156/3
f 146/157/3 248/134/3 255/158/3
f 147/159/15 219/137/10 226/160/10
f 148/161/8 250/140/12 256/162/12
f 221/143/12 257/163/12 134/164/16
f 251/146/10 227/165/10 137/166/9
f 151/167/15 223/149/10 228/168/10
f 152/169/8 254/152/12 258/170/12
f 229/171/14 259/172/14 155/173/14
f 229/171/14 230/174/14 156/175/14
f 231/176/14 158/177/14 260/178/14
f 160/179/14 232/180/14 260/178/14
f 161/181/1 162/182/1 163/183/1
f 164/184/2 165/185/2 166/186/2
f 167/187/3 168/188/3 169/189/3
f 170/190/4 171/191/4 172/192/4
f 173/193/5 174/194/5 175/195/5
f 161/181/1 176/196/1 162/182/1
f 164/184/2 177/197/2 165/185/2
f 167/187/3 178/198/3 168/188/3
f 170/190/4 179/199/4 171/191/4
f 173/193/5 180/200/5 174/194/5
f 142/201/16 258/170/12 254/152/12
f 139/202/9 228/168/10 223/149/10
f 150/203/15 251/146/10 136/204/15
f 149/205/8 221/143/12 133/206/8
f 130/207/16 256/162/12 250/140/12
f 127/208/9 226/160/10 219/137/10
f 124/209/3 255/158/3 248/134/3
f 121/210/3 225/156/3 217/131/3
f 254/152/12 144/211/16 142/201/16
f 223/149/10 141/212/9 139/202/9
f 136/204/15 251/146/10 252/148/10
f 133/206/8 221/143/12 222/145/12
f 250/140/12 132/213/16 130/207/16
f 219/137/10 129/214/9 127/208/9
f 248/134/3 126/215/3 124/209/3
f 217/131/3 123/216/3 121/210/3
f 102/217/13 244/120/12 240/102/12
f 99/218/9 212/118/10 207/99/10
f 110/219/11 237/96/10 96/220/11
f 109/221/8 205/93/12 93/222/8
f 90/223/13 242/112/12 236/90/12
f 87/224/9 210/110/10 203/87/10
f 84/225/3 241/108/3 234/84/3
f 81/226/3 209/106/3 201/81/3
f 240/102/12 104/227/13 102/217/13
f 207/99/10 101/228/9 99/218/9
f 96/220/11 237/96/10 238/98/10
f 93/222/8 205/93/12 206/95/12
f 236/90/12 92/229/13 90/223/13
f 203/87/10 89/230/9 87/224/9
f 234/84/3 86/231/3 84/225/3
f 201/81/3 83/232/3 81/226/3
f 205/93/12 94/114/13 95/94/13
f 237/96/10 97/116/9 98/97/9
f 105/105/3 82/82/3 201/81/3
f 106/107/3 85/85/3 234/84/3
f 107/109/11 88/88/11 203/87/10
f 108/111/8 91/91/8 236/90/12
f 111/117/11 100/100/11 207/99/10
f 112/119/8 103/103/8 240/102/12
f 115/123/14 113/233/14 213/121/14
f 213/121/14 114/234/14 245/122/14
f 116/125/14 114/234/14 213/121/14
f 213/121/14 113/233/14 214/124/14
f 119/235/14 117/236/14 246/128/14
f 117/236/14 215/126/14 246/128/14
f 246/128/14 118/127/14 120/129/14
f 216/130/14 119/235/14 246/128/14
f 221/143/12 134/164/16 135/144/16
f 251/146/10 137/166/9 138/147/9
f 145/155/3 122/132/3 217/131/3
f 146/157/3 125/135/3 248/134/3
f 147/159/15 128/138/15 219/137/10
f 148/161/8 131/141/8 250/140/12
f 151/167/15 140/150/15 223/149/10
f 152/169/8 143/153/8 254/152/12
f 155/173/14 153/237/14 229/171/14
f 229/171/14 154/238/14 259/172/14
f 156/175/14 154/238/14 229/171/14
f 229/171/14 153/237/14 230/174/14
f 159/239/14 157/240/14 260/178/14
f 157/240/14 231/176/14 260/178/14
f 260/178/14 158/177/14 160/179/14
f 232/180/14 159/239/14 260/178/14
f 150/203/15 227/165/10 251/146/10
f 149/205/8 257/163/12 221/143/12
f 254/152/12 224/154/12 144/211/16
f 223/149/10 253/151/10 141/212/9
f 250/140/12 220/142/12 132/213/16
f 219/137/10 249/139/10 129/214/9
f 248/134/3 218/136/3 126/215/3
f 217/131/3 247/133/3 123/216/3
f 110/219/11 211/115/10 237/96/10
f 109/221/8 243/113/12 205/93/12
f 240/102/12 208/104/12 104/227/13
f 207/99/10 239/101/10 101/228/9
f 236/90/12 204/92/12 92/229/13
f 203/87/10 235/89/10 89/230/9
f 234/84/3 202/86/3 86/231/3
f 201/81/3 233/83/3 83/232/3
l 181 182
l 181 183
l 184 183
l 185 186
l 185 187
l 188 187
l 189 190
l 189 191
l 192 191
l 193 194
l 193 195
l 196 195
l 197 198
l 197 199
l 200 199
l 184 182
l 188 186
l 192 190
l 196 194
l 200 198
