# Blender v3.4.1 OBJ File: ''
# www.blender.org
mtllib cabindetail.mtl
o Cube_Cube.002
v -2.431661 14.531827 31.177645
v -1.665787 14.531827 29.604212
v -2.497829 14.531827 31.144560
v -2.431661 13.197722 31.177645
v -1.665787 13.197722 29.604212
v -1.599618 13.197722 29.637297
v -1.599618 14.531827 29.637297
v -2.497829 13.197722 31.144560
v -1.665787 13.197722 29.604212
v -1.665787 14.531827 29.604212
v -1.599618 14.531827 29.637297
v -2.431661 13.197722 31.177645
v -2.431661 14.531827 31.177645
v -2.497829 14.531827 31.144560
v -1.599618 13.197722 29.637297
v -2.497829 13.197722 31.144560
v -2.497829 13.197722 31.144560
v -1.665787 14.531827 29.604212
v -1.665787 13.197722 29.604212
v -2.497829 14.531827 31.144560
v -2.325056 14.232853 30.768145
v -1.765819 14.277907 29.715769
v -1.794478 14.239820 29.652733
v -2.266671 14.277907 30.145641
v -2.300049 14.244581 30.634869
v -1.715586 14.362335 29.640774
v -2.265675 14.103345 30.728539
v -2.264665 14.363364 30.726597
v -1.716585 14.102342 29.642715
v -1.656377 14.233064 29.601486
v -1.758415 14.195149 29.727654
v -1.752061 14.239820 29.731089
v -2.247907 14.239820 30.625528
v -2.241554 14.195149 30.628965
v -1.761592 14.142172 29.725937
v -2.281483 14.142172 30.415459
v -2.224870 14.142172 30.137697
v -2.281483 14.180259 30.415459
v -2.247907 14.180259 30.625528
v -2.016811 14.180259 29.850677
v -1.761592 14.239820 29.725937
v -2.281483 14.239820 30.415459
v -2.224870 14.239820 30.137697
v -2.281483 14.277907 30.415459
v -2.247907 14.277907 30.625528
v -2.016811 14.277907 29.850677
v -2.485999 13.640142 31.065723
v -1.952356 13.858653 30.078617
v -2.472248 13.858653 30.768135
v -2.389862 13.858653 30.423344
v -2.295329 14.103638 30.713247
v -1.761592 14.142172 29.725937
v -1.761592 14.277907 29.725937
v -1.715926 14.103638 29.641460
v -1.715926 14.362067 29.641460
v -1.876652 14.073686 30.008701
v -1.906351 14.075026 29.993456
v -2.456440 13.638876 31.081221
v -2.455431 14.076054 31.079277
v -2.486952 14.072667 31.067553
v -1.907348 13.637874 29.995394
v -1.875794 13.641300 30.007065
v -1.949179 13.843762 30.080334
v -2.432318 13.843763 30.981644
v -2.438672 13.799091 30.978209
v -1.942826 13.799091 30.083769
v -2.457436 13.896740 30.498322
v -1.956583 13.896740 30.068449
v -2.347028 13.858653 30.340527
v -2.465267 13.865001 30.983143
v -1.954983 13.858653 30.072298
v -1.906677 14.074757 29.994148
v -1.952356 13.896740 30.078617
v -1.952356 13.761004 30.078617
v -1.906678 13.639168 29.994148
v -2.486094 13.639168 31.065928
v -2.486083 14.074757 31.065935
v -2.438672 13.896740 30.978209
v -1.956583 13.799091 30.068449
v -1.954983 13.761004 30.072298
v -2.465267 13.767352 30.983143
v -2.457436 13.799091 30.498322
v -2.347028 13.761004 30.340527
v -2.472248 13.896741 30.768135
v -2.438672 13.896740 30.978209
v -2.146496 13.896741 30.165573
v -2.472248 13.799092 30.768135
v -2.438672 13.799091 30.978209
v -2.146496 13.799092 30.165573
v -1.952356 13.761004 30.078617
v -2.472248 13.761004 30.768135
v -2.389862 13.761004 30.423344
v -2.295326 14.362067 30.713249
v -2.247907 14.277907 30.625528
v -1.765819 14.180259 29.715769
v -1.794478 14.142172 29.652733
v -2.300049 14.146933 30.634869
v -2.266671 14.180259 30.145641
v -2.016811 14.142172 29.850677
v -2.247907 14.142172 30.625528
v -1.761592 14.180259 29.725937
v -2.224870 14.180259 30.137697
v -2.016811 14.239820 29.850677
v -2.247907 14.239820 30.625528
v -1.761592 14.277907 29.725937
v -2.224870 14.277907 30.137697
v -2.146496 13.858653 30.165573
v -2.438672 13.858653 30.978209
v -2.438672 13.761004 30.978209
v -1.952356 13.896740 30.078617
v -2.389862 13.896741 30.423344
v -1.952356 13.799091 30.078617
v -2.389862 13.799092 30.423344
v -2.146496 13.761004 30.165573
v -2.438672 13.761004 30.978209
v -2.247906 14.142172 30.625528
v -1.752061 14.239820 29.731089
v -2.238377 14.210040 30.630682
v -1.942826 13.828873 30.083769
v -2.429141 13.799091 30.983362
v -2.429141 13.858653 30.983362
v -1.752061 14.180259 29.731089
v -3.712905 12.916624 31.367325
v -3.713485 14.192287 31.322443
v -3.713485 12.914377 31.276360
v -2.672213 14.192287 31.322443
v -2.671633 12.916624 31.367325
v -2.672213 12.914377 31.276360
v -2.749676 13.198100 31.299570
v -2.749676 14.116017 31.334225
v -3.636022 13.198100 31.299570
v -3.636022 14.116017 31.334225
v -2.749673 13.198101 31.299572
v -3.636024 13.198101 31.299570
v -3.636024 14.116016 31.334227
v -2.749674 14.116017 31.334227
v -3.644790 13.189023 31.284565
v -3.713485 14.192287 31.322443
v -3.644790 14.125095 31.319906
v -2.740908 13.189023 31.284565
v -3.713485 12.914377 31.276360
v -2.672213 14.192287 31.322443
v -2.740908 14.125095 31.319906
v -2.672213 12.914377 31.276360
v -2.672213 12.914377 31.276360
v -3.712905 12.916624 31.367325
v -3.713485 12.914377 31.276360
v -3.713485 14.192287 31.322443
v -2.672213 14.192287 31.412033
v -2.672213 14.192287 31.322443
v -3.713485 14.192287 31.412033
v -2.672213 14.192287 31.412033
v -2.671633 12.916624 31.367325
v -3.713485 14.192287 31.412033
v -3.631827 13.203336 31.294123
v -3.628874 14.108794 31.341825
v -2.756684 13.205687 31.307133
v -2.756756 14.108878 31.341530
vt 0.931106 0.369669
vt 0.909769 0.874174
vt 0.909769 0.368994
vt 0.931106 0.369669
vt 0.952442 0.874174
vt 0.931106 0.874849
vt 0.931106 0.874849
vt 0.952442 0.368994
vt 0.363620 0.890149
vt 0.363620 0.505181
vt 0.384967 0.505181
vt 0.978653 0.753963
vt 0.978653 0.368995
vt 1.000000 0.368995
vt 0.384967 0.890149
vt 1.000000 0.753963
vt 0.000000 0.000000
vt 0.384968 0.505180
vt 0.000000 0.505180
vt 0.384968 0.000000
vt 0.978653 0.370562
vt 0.952816 0.737987
vt 0.952442 0.368995
vt 0.507570 0.630937
vt 0.533407 0.998360
vt 0.507196 0.999928
vt 0.404799 0.289707
vt 0.384968 0.000001
vt 0.404793 0.019404
vt 0.665615 0.289708
vt 0.384972 0.368995
vt 0.685444 0.000000
vt 0.665621 0.019403
vt 0.685444 0.368995
vt 0.904461 0.300470
vt 0.878204 0.000167
vt 0.904461 0.000000
vt 0.930313 0.300468
vt 0.904461 0.000000
vt 0.930313 0.000000
vt 0.978653 0.738892
vt 0.533407 0.630031
vt 0.878204 0.300637
vt 0.904461 0.300468
vt 0.963285 0.327213
vt 0.952295 0.328392
vt 0.963285 0.135590
vt 0.016852 0.867469
vt 0.007674 0.514612
vt 0.049611 0.522581
vt 0.092348 0.518049
vt 0.083963 0.870226
vt 0.050482 0.877249
vt 0.557471 0.634802
vt 0.560586 0.903732
vt 0.540439 0.900065
vt 0.878205 0.000000
vt 0.842614 0.245432
vt 0.819095 0.167899
vt 0.205543 0.554837
vt 0.241134 0.505180
vt 0.198416 0.731669
vt 0.909769 0.368994
vt 0.874178 0.614426
vt 0.850659 0.536893
vt 0.266658 0.554837
vt 0.302249 0.505180
vt 0.259531 0.731669
vt 0.507196 0.630030
vt 0.471606 0.875461
vt 0.448750 0.777701
vt 0.113589 0.832020
vt 0.152757 0.832020
vt 0.104622 0.857576
vt 0.644578 0.378230
vt 0.771389 0.389206
vt 0.652119 0.384866
vt 0.655441 0.733563
vt 0.780332 0.383553
vt 0.772021 0.737158
vt 0.649585 0.742504
vt 0.566304 0.899506
vt 0.560587 0.631710
vt 0.579937 0.901226
vt 0.930314 0.000019
vt 0.941304 0.137218
vt 0.930314 0.191643
vt 0.811961 0.352397
vt 0.762745 0.031752
vt 0.811961 0.005129
vt 0.941305 0.000019
vt 0.952295 0.137218
vt 0.941305 0.191643
vt 0.327773 0.554839
vt 0.363364 0.505180
vt 0.327775 0.750614
vt 0.813062 0.418652
vt 0.848654 0.368994
vt 0.813064 0.614428
vt 0.446082 0.630030
vt 0.410491 0.875461
vt 0.387636 0.777701
vt 0.174889 0.857576
vt 0.152757 0.536930
vt 0.174889 0.510309
vt 0.636967 0.957243
vt 0.625977 0.958422
vt 0.636967 0.765620
vt 0.953400 -0.000880
vt 0.543941 0.632273
vt 0.878205 0.295088
vt 0.835487 0.068599
vt 0.241134 0.800268
vt 0.182023 0.632369
vt 0.909769 0.664082
vt 0.867051 0.437592
vt 0.302249 0.800268
vt 0.243139 0.632369
vt 0.507196 0.925117
vt 0.471608 0.679684
vt 0.113589 0.536930
vt 0.104622 0.510309
vt 0.778575 0.744905
vt 0.580679 0.632890
vt 0.939692 0.327469
vt 0.941304 0.000012
vt 0.723578 0.326839
vt 0.762745 0.326839
vt 0.690573 0.352396
vt 0.723577 0.031752
vt 0.690573 0.005131
vt 0.952295 0.000012
vt 0.950683 0.327469
vt 0.363364 0.800268
vt 0.304917 0.652598
vt 0.848654 0.664082
vt 0.790207 0.516411
vt 0.446082 0.925117
vt 0.410494 0.679685
vt 0.627082 0.629150
vt 0.613546 0.630030
vt 0.622140 0.925117
vt 0.604953 0.925117
vt 0.604953 0.925117
vt 0.587766 0.925117
vt 0.596360 0.630030
vt 0.637837 0.368071
vt 0.637241 0.630305
vt 0.384681 0.630320
vt 0.384751 0.368691
vn 0.0000 1.0000 0.0000
vn 0.0000 -1.0000 0.0000
vn 0.4473 0.0000 -0.8944
vn 0.4472 0.0000 -0.8944
vn -0.4472 0.0000 0.8944
vn -0.4473 0.0000 0.8944
vn -0.8798 0.0000 -0.4753
vn -1.0000 -0.0002 0.0061
vn -1.0000 -0.0004 0.0003
vn -1.0000 -0.0002 0.0064
vn 1.0000 0.0004 -0.0003
vn 1.0000 0.0002 -0.0061
vn 1.0000 0.0002 -0.0064
vn -0.0148 0.0337 -0.9993
vn -0.0011 0.0377 -0.9993
vn -0.0000 0.0377 -0.9993
vn 0.0148 0.0337 -0.9993
vn -0.0038 0.0308 -0.9995
vn 0.0011 0.0377 -0.9993
vn 0.0038 0.0308 -0.9995
vn 0.0000 -0.9997 0.0247
vn -1.0000 -0.0005 0.0000
vn 1.0000 0.0005 0.0000
vn -0.3237 0.8677 -0.3772
vn -0.4381 0.7610 -0.4785
vn -0.1821 -0.9783 -0.0989
vn 0.8921 -0.3608 0.2720
vn -0.8924 -0.3638 -0.2670
vn -0.5548 0.0039 0.8320
vn -0.8918 0.3618 -0.2717
vn 0.8924 0.3640 0.2667
vn 0.5567 -0.0033 -0.8307
vn 0.8621 0.1686 0.4779
vn -0.9555 0.0894 0.2812
vn -0.9487 0.1437 0.2817
vn -0.8797 0.0000 -0.4756
vn -0.8797 -0.0000 -0.4755
vn -0.3412 -0.7191 0.6054
vn -0.3287 0.6531 0.6822
vn -0.3563 -0.6965 0.6228
vn 0.2946 -0.7610 -0.5780
vn -0.2951 0.7604 0.5786
vn 0.3367 0.7213 -0.6053
vn 0.3280 -0.6524 -0.6832
vn 0.8621 -0.1686 0.4779
vn -0.9554 -0.0895 0.2813
vn 0.8634 -0.1596 0.4786
vn -0.5689 -0.0363 -0.8216
vn -0.5227 0.6602 -0.5394
vn -0.4890 -0.8619 -0.1341
vn -0.8797 0.0001 -0.4756
vn -0.8797 0.0001 -0.4755
vn -0.3237 0.8677 -0.3771
vn -0.1608 -0.9839 -0.0780
vn 0.8634 0.1596 0.4786
vn 0.3534 0.6939 -0.6274
vn -0.9486 -0.1438 0.2818
vn -0.4086 -0.9103 -0.0662
vn -0.5614 -0.1065 -0.8206
vn -0.8796 0.0000 -0.4756
vn -0.8797 -0.0001 -0.4756
vn 0.0074 0.0452 -0.9990
vn -0.0003 0.0526 -0.9986
vn 0.0070 0.0455 -0.9989
vn 0.0148 0.0381 -0.9992
usemtl black_plasitc
s 1
f 1/1/1 2/2/1 3/3/1
f 4/4/2 5/5/2 6/6/2
f 1/1/1 7/7/1 2/2/1
f 4/4/2 8/8/2 5/5/2
f 9/9/3 10/10/4 11/11/4
f 12/12/5 13/13/6 14/14/6
f 9/9/3 11/11/4 15/15/3
f 12/12/5 14/14/6 16/16/5
f 17/17/7 18/18/7 19/19/7
f 17/17/7 20/20/7 18/18/7
f 123/21/8 124/22/9 125/23/10
f 126/24/11 127/25/12 128/26/13
f 137/27/14 138/28/15 139/29/16
f 140/30/17 141/31/18 137/27/14
f 139/29/16 142/32/19 143/33/16
f 140/30/17 142/32/19 144/34/20
f 145/35/21 146/36/21 147/37/21
f 148/38/1 149/39/1 150/40/1
f 123/21/8 151/41/22 124/22/9
f 126/24/11 152/42/23 127/25/12
f 137/27/14 141/31/18 138/28/15
f 140/30/17 144/34/20 141/31/18
f 139/29/16 138/28/15 142/32/19
f 140/30/17 143/33/16 142/32/19
f 145/35/21 153/43/21 146/36/21
f 148/38/1 154/44/1 149/39/1
usemtl panel_metalic
f 22/45/24 23/46/25 24/47/26
f 29/48/27 27/49/28 21/50/29
f 28/51/30 26/52/31 21/50/29
f 26/52/31 30/53/32 29/48/27
f 33/54/33 32/55/34 31/56/35
f 35/57/2 36/58/2 37/59/2
f 38/60/1 39/61/1 40/62/1
f 41/63/2 42/64/2 43/65/2
f 44/66/1 45/67/1 46/68/1
f 48/69/2 49/70/2 50/71/2
f 52/72/36 53/73/37 54/74/37
f 58/75/38 60/76/39 47/77/40
f 61/78/41 58/75/38 47/77/40
f 59/79/42 57/80/43 60/76/39
f 57/80/43 62/81/44 61/78/41
f 65/82/45 66/83/46 64/84/47
f 68/85/48 69/86/49 67/87/50
f 72/88/51 78/89/37 77/90/52
f 79/91/48 83/92/49 82/93/50
f 84/94/1 85/95/1 86/96/1
f 87/97/1 88/98/1 89/99/1
f 90/100/2 91/101/2 92/102/2
f 55/103/36 94/104/37 93/105/37
f 95/106/53 96/107/25 98/108/26
f 24/47/26 23/46/25 25/109/54
f 27/49/28 28/51/30 21/50/29
f 29/48/27 30/53/32 27/49/28
f 28/51/30 30/53/32 26/52/31
f 33/54/33 34/110/55 32/55/34
f 35/57/2 100/111/2 36/58/2
f 99/112/2 35/57/2 37/59/2
f 101/113/1 40/62/1 39/61/1
f 102/114/1 38/60/1 40/62/1
f 41/63/2 104/115/2 42/64/2
f 103/116/2 41/63/2 43/65/2
f 105/117/1 46/68/1 45/67/1
f 106/118/1 44/66/1 46/68/1
f 48/69/2 108/119/2 49/70/2
f 107/120/2 48/69/2 50/71/2
f 116/121/36 52/72/36 54/74/37
f 54/74/37 51/122/36 116/121/36
f 55/103/36 54/74/37 53/73/37
f 58/75/38 59/79/42 60/76/39
f 61/78/41 62/81/44 58/75/38
f 59/79/42 56/123/56 57/80/43
f 57/80/43 56/123/56 62/81/44
f 65/82/45 63/124/57 66/83/46
f 67/87/50 69/86/49 70/125/58
f 68/85/48 71/126/59 69/86/49
f 74/127/36 73/128/60 72/88/51
f 72/88/51 75/129/61 74/127/36
f 109/130/36 74/127/36 75/129/61
f 75/129/61 76/131/36 109/130/36
f 78/89/37 109/130/36 76/131/36
f 76/131/36 77/90/52 78/89/37
f 72/88/51 73/128/60 78/89/37
f 79/91/48 80/132/59 83/92/49
f 82/93/50 83/92/49 81/133/58
f 110/134/1 86/96/1 85/95/1
f 111/135/1 84/94/1 86/96/1
f 112/136/1 89/99/1 88/98/1
f 113/137/1 87/97/1 89/99/1
f 90/100/2 115/138/2 91/101/2
f 114/139/2 90/100/2 92/102/2
f 94/104/37 116/121/36 93/105/37
f 51/122/36 93/105/37 116/121/36
f 55/103/36 53/73/37 94/104/37
f 98/108/26 96/107/25 97/140/54
f 119/141/36 120/142/36 121/143/36
f 117/144/36 122/145/36 118/146/36
usemtl reflective
f 155/147/62 156/148/63 158/149/64
f 155/147/62 158/149/64 157/150/65
l 133 134
l 63 64
l 129 130
l 135 136
l 31 34
l 131 132
