# Blender v3.4.1 OBJ File: 'alco pa1 retextured.blend'
# www.blender.org
mtllib frame.mtl
o model.004_Plane.006_Plane.008
v 5.774859 1.348353 41.643703
v 4.803113 2.488819 41.643703
v 5.774859 2.488819 41.643703
v 5.943658 1.348985 40.503242
v 4.943516 1.348791 40.503242
v 5.930970 2.488820 40.503239
v 5.771571 1.348353 41.643539
v 4.948824 1.348353 40.503239
v 4.800368 1.348353 41.643589
v 5.774859 2.488819 41.643703
v 4.932955 2.488820 40.503239
v 5.930970 2.488820 40.503239
v 4.803113 1.348353 41.643703
v 4.932955 2.488820 40.503239
v 5.950049 1.348353 40.503239
v 4.803113 2.488819 41.643703
v -1.848490 5.596872 8.065201
v -1.840808 2.343111 -7.069904
v -1.848490 2.343111 8.116485
v -1.848490 4.446651 11.631993
v -1.848489 7.491102 39.042549
v -1.840808 5.627724 -7.015491
v -1.840809 4.446653 -10.991397
v -1.840811 4.476814 -39.290524
v -1.848487 5.387559 42.484417
v -5.629202 5.823080 -6.845242
v -5.636885 5.805708 7.876376
v -5.636884 7.491102 39.042549
v -5.629203 7.491137 -39.290520
v 1.840807 2.343111 -7.069904
v 1.848492 5.596874 8.065201
v 1.848492 2.343111 8.116485
v 1.848492 4.446651 11.631993
v 1.848496 7.491102 39.042549
v 1.840807 4.446653 -10.991397
v 1.840807 5.627724 -7.015491
v 1.840804 4.476814 -39.290524
v 1.848495 5.387559 42.484417
v 5.629201 5.823080 -6.845243
v 5.636886 5.805709 7.876375
v 5.636891 7.491102 39.042549
v 5.629196 7.491137 -39.290520
v -1.848488 4.446636 39.042549
v 1.848495 4.446636 39.042549
v -1.840809 4.446654 -10.991397
v 1.840804 4.446671 -39.290524
v -1.848490 4.446651 11.631993
v -1.848488 4.446637 39.042549
v 1.840807 4.446653 -10.991397
v 1.848492 4.446651 11.631992
v -1.840811 4.446671 -39.290524
v 1.848495 4.446636 39.042549
v -1.840808 2.343111 -7.069904
v -1.840809 4.446653 -10.991397
v 1.840807 2.343112 -7.069904
v 1.840807 4.446653 -10.991397
v -1.848490 2.343111 8.116484
v 1.848492 4.446650 11.631992
v -1.848490 4.446651 11.631993
v 1.848492 2.343111 8.116485
v -2.523717 5.387595 -39.290524
v -5.913732 4.392920 -7.755462
v -6.334639 4.309781 -7.753100
v -5.846190 1.584061 -7.327260
v -6.110769 5.387595 -39.290524
v 2.523710 5.387595 -39.290524
v 6.334638 4.309779 -7.753101
v 5.913731 4.392919 -7.755462
v 5.846189 1.584061 -7.327261
v 6.110762 5.387595 -39.290524
v -3.556895 1.135490 7.703228
v 3.556896 1.507043 7.102336
v -3.556895 5.565395 7.810504
v 3.556896 5.389060 8.063634
v -2.523717 5.387595 -40.765030
v -1.393713 5.387595 -40.598450
v 1.393706 5.387595 -40.598450
v 2.523710 5.387595 -40.765030
v 2.523710 5.387595 -39.290524
v -0.000004 5.387595 -40.431873
v -0.000003 5.387595 -39.290524
v -2.523717 5.387595 -39.290524
v -0.000003 5.387595 -39.290524
v -0.000004 5.387595 -40.431873
v -5.542109 0.876241 -7.069904
v -3.549213 5.387578 -7.069904
v -3.549213 0.876241 -7.069904
v -3.549213 5.387578 -7.069904
v -1.840808 2.343111 -7.069904
v -3.549213 0.876241 -7.069904
v 1.840807 2.343111 -7.069904
v 1.840807 5.387578 -7.069904
v 3.549212 5.387578 -7.069905
v -1.840808 2.343111 -7.069904
v 1.840807 2.343111 -7.069904
v 3.549212 0.876241 -7.069905
v -5.629202 5.387578 -7.069904
v -1.840808 5.387578 -7.069904
v 5.629201 5.387578 -7.069905
v 5.542108 0.876241 -7.069905
v 3.564578 0.876241 -7.069904
v -3.549213 0.876241 -7.069904
v -5.893130 4.552157 -8.268291
v -5.825025 4.580783 -5.826917
v -5.823140 3.329762 -7.419142
v 5.893128 4.552159 -8.268296
v 5.894856 5.802942 -6.676066
v -5.903448 6.570541 -8.198644
v -5.902936 5.319749 -9.790859
v 5.899543 5.319752 -9.790854
v 6.322359 6.638382 -39.290524
v 6.322359 5.387595 -39.290524
v -5.634593 2.834849 -5.735039
v -5.634593 1.584061 -7.327260
v 5.825023 4.580788 -5.826919
v 5.823139 3.329764 -7.419144
v 5.921627 6.570178 -8.197707
v 5.634592 2.834849 -5.735040
v 5.634592 1.584061 -7.327261
v -5.899171 6.638382 -39.290524
v -5.899171 5.387595 -39.290524
v -5.894857 5.802933 -6.676051
v 5.958550 1.608655 -6.552187
v 5.691753 0.986773 -6.776385
v -5.958551 1.608655 -6.552186
v -5.691754 0.986773 -6.776384
v -6.289290 5.316155 -39.198593
v -5.692300 5.316154 -36.838676
v -6.289290 5.316154 -36.838676
v -5.692300 5.316155 -39.198593
v -5.763645 1.063314 8.349205
v -5.805774 5.387561 36.536285
v -5.805773 6.585975 36.536285
v -5.808809 5.357666 10.945746
v -5.808993 6.585994 10.010613
v -5.805927 4.552196 9.314916
v -5.833145 4.987663 7.484222
v -5.820086 3.320422 8.460301
v -3.556895 4.753911 7.320847
v -3.556895 6.585989 10.010614
v -3.556103 1.069535 7.839850
v -3.754786 1.055212 43.550449
v -1.848487 1.797969 43.011036
v -1.955105 1.797969 44.081005
v -5.413115 1.054768 42.027348
v -5.500354 5.387859 41.894146
v -1.975897 5.381295 43.502712
v -5.800645 3.645646 38.301937
v -5.868300 4.832523 37.581917
v -3.754786 1.055212 43.011032
v 0.000004 1.797969 43.011032
v -1.875500 1.058767 43.011024
v -3.262997 0.596610 43.011040
v 5.763647 1.063313 8.349203
v 5.805780 6.585975 36.536285
v 5.805781 5.387561 36.536285
v 5.808994 6.585994 10.010612
v 5.808811 5.357665 10.945745
v 5.805929 4.552196 9.314914
v 5.833146 4.987664 7.484222
v 5.820088 3.320421 8.460299
v 3.556896 4.753910 7.320846
v 3.556897 6.585989 10.010614
v 3.556104 1.069536 7.839850
v 3.754794 1.055212 43.550449
v 1.848495 1.797969 43.011036
v 3.754794 1.055212 43.011032
v 5.500362 5.387859 41.894146
v 5.413122 1.054768 42.027348
v 1.975904 5.381295 43.502712
v 5.868309 4.832522 37.581917
v 5.800652 3.645646 38.301937
v 1.884751 1.039255 43.011028
v 3.263005 0.596610 43.011040
v -5.815193 1.178334 38.464325
v -1.955104 0.365745 43.011032
v 1.955112 1.797969 44.081005
v 5.815200 1.178334 38.464325
v 1.955112 0.365745 43.011032
v -5.712906 2.488819 41.643665
v -4.803107 2.488819 41.643703
v -4.803107 1.348353 41.643703
v -5.712906 1.348353 41.643703
v 5.725372 4.736403 1.813347
v 5.725372 4.736403 1.721405
v -5.725372 4.736403 1.813347
v -5.725372 4.736403 1.721405
v -6.262600 5.387566 36.536293
v -6.211754 5.387559 38.512482
v -5.805776 6.585987 11.507545
v -5.805773 6.585975 36.536285
v 0.000003 6.585976 36.536285
v 0.000001 6.585988 11.507545
v -6.241930 5.387568 24.198282
v -6.161977 5.387568 26.739559
v 1.964040 11.064949 43.870667
v 5.805778 6.585987 11.507545
v 0.000003 6.585976 36.536285
v 5.805779 6.585975 36.536285
v 0.000001 6.585988 11.507545
v 1.955112 11.055670 43.836369
v 1.955112 11.360719 43.871929
v -1.955105 11.055670 43.836369
v -1.955105 11.360719 43.871929
v -1.964035 11.064949 43.870667
v -6.242407 5.387564 26.737041
v -6.322361 5.387564 24.195765
v 6.242174 5.387564 26.739561
v 6.242173 5.387564 24.195765
v -6.289290 5.316146 24.287704
v -5.692300 5.316146 26.647621
v -6.289290 5.316146 26.647621
v -5.692300 5.316146 24.287704
v -5.881749 1.348950 40.503204
v -4.943511 1.348791 40.503239
v -4.932949 2.488820 40.503239
v -5.869019 2.488821 40.503242
v -5.709381 1.348353 41.643517
v -4.948818 1.348353 40.503239
v -5.887946 1.348353 40.503185
v -4.800362 1.348353 41.643589
v -6.322362 5.387577 1.976296
v -6.322362 5.387577 1.813347
v -0.000003 5.387595 -39.290524
v -6.322364 5.387569 18.921722
v -6.322363 5.387577 7.775918
v -6.289290 5.387564 26.739561
v -6.289290 5.387564 24.195765
v -5.725372 5.316149 1.721405
v -1.955105 11.055670 43.862648
v 6.289290 5.387564 26.739561
v 6.289290 5.387564 24.195765
v 6.161977 5.387564 26.739561
v 6.161977 5.387564 24.195765
v 5.725372 5.316149 1.721405
v 1.955111 11.055670 43.862648
v -6.161977 5.387564 26.739561
v -6.161977 5.387564 24.195765
v -3.549213 0.876241 -7.069904
v -3.549213 5.387578 -7.069904
v 3.549212 0.876241 -7.069905
v 3.549212 5.387578 -7.069905
v 6.322362 5.387577 1.976296
v 6.322362 5.387577 1.813347
v -1.848490 5.387577 8.116484
v -1.840808 2.373255 -7.069904
v -1.848490 2.343111 8.116485
v -5.636885 5.387577 8.116485
v -5.629202 5.387578 -7.069904
v 1.840807 2.373255 -7.069904
v 1.848492 5.387577 8.116484
v 1.848492 2.343111 8.116485
v 5.636886 5.387577 8.116483
v 5.629201 5.387578 -7.069905
v -1.840808 2.343111 -7.069904
v -1.848490 2.343111 8.116484
v 1.840807 2.343111 -7.069904
v 1.848492 2.343111 8.116485
vt 0.767967 0.339650
vt 0.757992 0.327944
vt 0.767967 0.327944
vt 0.747749 0.327944
vt 0.757830 0.339621
vt 0.747553 0.339618
vt 0.102433 0.853625
vt 0.112402 0.843159
vt 0.112317 0.854960
vt 0.338843 0.791517
vt 0.338125 0.800159
vt 0.338125 0.789915
vt 0.757992 0.339650
vt 0.757993 0.327944
vt 0.102218 0.841782
vt 0.338843 0.801491
vt 0.413812 0.281349
vt 0.445060 0.000000
vt 0.423804 0.316873
vt 0.423788 0.473902
vt 0.413813 0.513557
vt 0.392223 0.473309
vt 0.414122 0.804024
vt 0.273716 0.791450
vt 0.312601 0.750774
vt 0.312601 0.791767
vt 0.425246 0.804025
vt 0.407409 0.842910
vt 0.407409 0.804025
vt 0.370966 0.487154
vt 0.360974 0.522678
vt 0.339383 0.486595
vt 0.392222 0.804024
vt 0.360973 0.290466
vt 0.370949 0.330126
vt 0.339382 0.330719
vt 0.361283 0.000000
vt 0.480072 0.799176
vt 0.445061 0.761229
vt 0.480072 0.761229
vt 0.273637 0.801390
vt 0.234752 0.760715
vt 0.273637 0.760397
vt 0.666817 0.742355
vt 0.648981 0.703470
vt 0.666817 0.703470
vt 0.392222 0.317432
vt 0.413813 0.000000
vt 0.273716 0.750774
vt 0.425246 0.842910
vt 0.360973 0.804024
vt 0.445061 0.799176
vt 0.234752 0.801390
vt 0.648981 0.742355
vt 0.425246 0.804025
vt 0.443083 0.804025
vt 0.443083 0.841814
vt 0.425246 0.841814
vt 0.194335 0.808661
vt 0.194335 0.846608
vt 0.177058 0.808661
vt 0.177058 0.846608
vt 0.339382 0.804025
vt 0.360974 0.804025
vt 0.339382 0.841814
vt 0.360974 0.841814
vt 0.078452 0.840845
vt 0.102218 0.802898
vt 0.102218 0.840845
vt 0.078452 0.802898
vt 0.666355 0.685299
vt 0.668527 0.703470
vt 0.664183 0.703470
vt 0.635237 0.815615
vt 0.636629 0.840497
vt 0.632270 0.840699
vt 0.387875 0.822196
vt 0.390047 0.804025
vt 0.392219 0.822196
vt 0.158366 0.868247
vt 0.155400 0.843163
vt 0.159759 0.843366
vt 0.638971 0.742447
vt 0.635268 0.815465
vt 0.599256 0.742447
vt 0.667877 0.661335
vt 0.667772 0.649736
vt 0.668702 0.649736
vt 0.599315 0.815465
vt 0.667877 0.638137
vt 0.667982 0.623832
vt 0.668702 0.623832
vt 0.668702 0.649736
vt 0.667772 0.649736
vt 0.668702 0.675640
vt 0.667982 0.675640
vt 0.287812 0.847695
vt 0.308267 0.801390
vt 0.308267 0.847695
vt 0.378509 0.850330
vt 0.360974 0.819081
vt 0.378509 0.804025
vt 0.117337 0.771649
vt 0.117337 0.802898
vt 0.099801 0.802898
vt 0.818147 0.365372
vt 0.818147 0.327583
vt 0.833204 0.310047
vt 0.286918 0.801390
vt 0.360974 0.850330
vt 0.078452 0.802898
vt 0.079346 0.756592
vt 0.099644 0.756592
vt 0.833204 0.382907
vt 0.694341 0.423922
vt 0.691008 0.399443
vt 0.705690 0.414153
vt 0.614435 0.698043
vt 0.636233 0.395790
vt 0.648980 0.397308
vt 0.673875 0.425476
vt 0.688553 0.440188
vt 0.708382 0.395791
vt 0.723061 0.410502
vt 0.616887 0.738789
vt 0.620220 0.714308
vt 0.631572 0.724081
vt 0.599753 0.712762
vt 0.634298 0.742447
vt 0.648980 0.727737
vt 0.710312 0.742421
vt 0.723061 0.740905
vt 0.679664 0.409210
vt 0.605538 0.729018
vt 0.816357 0.338133
vt 0.817845 0.332006
vt 0.817845 0.338133
vt 0.816357 0.332006
vt 0.836285 0.261667
vt 0.861383 -0.000000
vt 0.873552 0.001793
vt 0.841658 0.279251
vt 0.821671 0.269352
vt 0.836734 0.294627
vt 0.852752 0.289342
vt 0.481165 0.794419
vt 0.504086 0.814376
vt 0.480928 0.814376
vt 0.873317 0.294219
vt 0.504086 0.791984
vt 0.483636 0.761230
vt 0.504086 0.761230
vt 0.792041 0.388443
vt 0.799798 0.382992
vt 0.799798 0.393970
vt 0.125512 0.694351
vt 0.169981 0.728010
vt 0.125512 0.727841
vt 0.566664 0.799892
vt 0.548773 0.764623
vt 0.560383 0.756779
vt 0.162357 0.693228
vt 0.169981 0.712795
vt 0.162357 0.674254
vt 0.170510 0.692966
vt 0.836962 0.703250
vt 0.811797 0.441587
vt 0.849130 0.701452
vt 0.817166 0.424002
vt 0.797180 0.433908
vt 0.812241 0.408627
vt 0.828263 0.413907
vt 0.312601 0.803920
vt 0.335522 0.783963
vt 0.335758 0.803920
vt 0.848893 0.409011
vt 0.312601 0.781528
vt 0.333050 0.750775
vt 0.799798 0.388447
vt 0.807226 0.393887
vt 0.799804 0.393982
vt 0.125512 0.654158
vt 0.169981 0.620499
vt 0.169981 0.635714
vt 0.785758 0.385663
vt 0.774157 0.377809
vt 0.792025 0.342555
vt 0.162357 0.655281
vt 0.170609 0.655392
vt 0.174858 0.639768
vt 0.792037 0.382908
vt 0.566667 0.746658
vt 0.522197 0.800145
vt 0.524318 0.767313
vt 0.174858 0.708741
vt 0.177057 0.694322
vt 0.312601 0.750775
vt 0.807226 0.382908
vt 0.125512 0.620668
vt 0.792037 0.395790
vt 0.749705 0.375094
vt 0.747558 0.342258
vt 0.177057 0.654187
vt 0.777769 0.327944
vt 0.787107 0.327944
vt 0.787107 0.339650
vt 0.777769 0.339650
vt 0.548309 0.861786
vt 0.564085 0.802194
vt 0.564085 0.861786
vt 0.548309 0.802194
vt 0.839077 0.862368
vt 0.823302 0.802775
vt 0.839077 0.802775
vt 0.823302 0.862368
vt 0.123809 0.816141
vt 0.125297 0.810013
vt 0.125297 0.816141
vt 0.123809 0.810013
vt 0.767967 0.327953
vt 0.777606 0.327950
vt 0.777769 0.339628
vt 0.768161 0.339628
vt 0.433426 0.843064
vt 0.442765 0.853615
vt 0.433212 0.854908
vt 0.442680 0.841814
vt 0.423470 0.317432
vt 0.392532 0.473309
vt 0.392222 0.317432
vt 0.273716 0.791818
vt 0.312522 0.801390
vt 0.273637 0.801390
vt 0.339692 0.330719
vt 0.370631 0.486595
vt 0.339383 0.486595
vt 0.273558 0.750774
vt 0.234752 0.760346
vt 0.234673 0.750774
vt 0.312601 0.791818
vt 0.273637 0.760346
vt 0.032009 0.866035
vt 0.022437 0.828167
vt 0.032009 0.828088
vt 0.022437 0.865956
vn 0.0000 0.0000 -1.0000
vn -0.0000 0.0000 1.0000
vn 0.0000 1.0000 0.0000
vn 0.0000 -1.0000 -0.0000
vn -1.0000 -0.0000 0.0000
vn -0.8482 -0.1278 0.5141
vn -0.7255 -0.6872 0.0375
vn -0.7243 -0.6887 -0.0311
vn -0.6366 -0.7707 0.0275
vn -0.0045 -0.9982 0.0605
vn -0.0576 -0.9969 0.0539
vn -0.5875 -0.8089 0.0223
vn 0.7255 -0.6872 0.0375
vn 1.0000 0.0000 -0.0000
vn 0.8482 -0.1278 0.5141
vn 0.7243 -0.6887 -0.0311
vn 0.6366 -0.7707 0.0275
vn -0.0000 0.8533 0.5215
vn 0.0045 -0.9982 0.0605
vn 0.0576 -0.9969 0.0539
vn 0.5875 -0.8089 0.0223
vn 0.0537 -0.9972 -0.0513
vn -0.0537 -0.9972 -0.0513
vn 0.0000 -0.8812 -0.4727
vn -0.0000 -0.8581 0.5135
vn 0.1935 -0.9806 -0.0321
vn 0.1477 -0.7658 -0.6259
vn 0.1401 -0.7284 -0.6707
vn -0.0241 -0.1501 -0.9884
vn -0.1477 -0.7657 -0.6259
vn -0.1401 -0.7284 -0.6707
vn -0.1935 -0.9806 -0.0321
vn 0.0241 -0.1501 -0.9884
vn 0.0854 -0.0241 0.9961
vn 0.0038 -0.1654 0.9862
vn 0.0447 -0.0951 0.9945
vn -0.0405 -0.2402 0.9699
vn 0.9997 0.0197 -0.0146
vn 0.9969 0.0622 -0.0477
vn 0.9953 0.0764 -0.0593
vn -0.9996 0.0273 -0.0079
vn -0.9999 0.0009 -0.0143
vn -0.9999 0.0000 -0.0143
vn 1.0000 0.0040 -0.0025
vn 1.0000 0.0018 -0.0011
vn 0.9914 0.1034 -0.0806
vn 0.9914 0.1028 -0.0808
vn -0.9969 0.0622 -0.0477
vn -0.9996 0.0246 -0.0142
vn -0.9953 0.0764 -0.0593
vn -0.9998 0.0192 -0.0066
vn -0.9914 0.1034 -0.0806
vn -0.9914 0.1028 -0.0808
vn 1.0000 0.0000 0.0001
vn 0.9996 0.0236 -0.0175
vn -0.9994 0.0276 -0.0206
vn 1.0000 0.0005 0.0004
vn 1.0000 -0.0000 -0.0001
vn 0.9986 -0.0520 -0.0136
vn 0.9999 0.0027 -0.0108
vn 0.8540 -0.4404 0.2770
vn 0.6150 -0.3278 0.7171
vn 0.9998 0.0161 0.0141
vn -0.0184 -0.8374 0.5464
vn 0.3334 0.1607 0.9290
vn 0.0612 -0.3405 0.9383
vn 0.2224 0.1360 0.9654
vn 0.3656 -0.9307 0.0106
vn 0.0941 -0.2346 -0.9675
vn 0.3719 -0.9275 0.0371
vn 0.3190 0.0029 -0.9477
vn 0.8195 -0.0374 -0.5719
vn 0.8235 -0.0135 -0.5672
vn 0.9956 0.0039 -0.0941
vn 0.9871 -0.1464 -0.0654
vn 0.3609 -0.3731 -0.8547
vn -1.0000 0.0000 -0.0001
vn -1.0000 0.0005 0.0004
vn -0.9986 -0.0520 -0.0136
vn -0.9999 0.0027 -0.0108
vn -0.8540 -0.4404 0.2770
vn -0.6150 -0.3278 0.7171
vn -0.9998 0.0161 0.0141
vn 0.0184 -0.8374 0.5464
vn -0.3334 0.1607 0.9290
vn -0.0612 -0.3405 0.9383
vn -0.3656 -0.9307 0.0106
vn -0.0941 -0.2346 -0.9675
vn -0.3609 -0.3731 -0.8547
vn -0.3190 0.0029 -0.9477
vn -0.8195 -0.0374 -0.5719
vn -0.9871 -0.1464 -0.0654
vn -0.9956 0.0039 -0.0941
vn -0.8235 -0.0135 -0.5672
vn 0.9936 -0.0133 -0.1126
vn -0.2224 0.1360 0.9654
vn -0.3719 -0.9275 0.0371
vn -0.9936 -0.0133 -0.1126
vn -0.7067 -0.7072 0.0212
vn -0.6902 -0.7098 0.1405
vn -1.0000 -0.0000 -0.0005
vn -0.5386 -0.8319 0.1341
vn 0.6902 -0.7098 0.1405
vn 0.7067 -0.7072 0.0212
vn 1.0000 -0.0000 -0.0005
vn 0.5385 -0.8319 0.1341
usemtl body
s 1
f 1/1/1 2/2/1 3/3/1
f 6/4/2 5/5/2 4/6/2
f 7/7/3 8/8/3 9/9/3
f 10/10/4 11/11/4 12/12/4
f 1/1/1 13/13/1 2/2/1
f 6/4/2 14/14/2 5/5/2
f 7/7/3 15/15/3 8/8/3
f 10/10/4 16/16/4 11/11/4
f 20/17/5 21/18/6 17/19/7
f 22/20/8 23/21/5 18/22/5
f 22/20/8 24/23/9 23/21/5
f 17/24/7 28/25/10 27/26/11
f 22/27/8 29/28/12 24/29/9
f 31/30/13 33/31/14 32/32/14
f 34/33/15 33/31/14 31/30/13
f 35/34/14 36/35/16 30/36/14
f 37/37/17 36/35/16 35/34/14
f 21/38/6 38/39/18 34/40/15
f 41/41/19 31/42/13 40/43/20
f 36/44/16 42/45/21 39/46/22
f 17/19/7 19/47/5 20/17/5
f 20/17/5 43/48/5 21/18/6
f 17/24/7 21/49/6 28/25/10
f 22/27/8 26/50/23 29/28/12
f 34/33/15 44/51/14 33/31/14
f 21/38/6 25/52/18 38/39/18
f 41/41/19 34/53/15 31/42/13
f 36/44/16 37/54/17 42/45/21
f 46/55/4 49/56/4 45/57/4
f 45/57/4 51/58/4 46/55/4
f 47/59/4 50/60/4 48/61/4
f 50/60/4 52/62/4 48/61/4
f 53/63/24 54/64/24 55/65/24
f 54/64/24 56/66/24 55/65/24
f 57/67/25 58/68/25 59/69/25
f 60/70/25 58/68/25 57/67/25
f 65/71/26 62/72/27 63/73/28
f 69/74/29 68/75/30 67/76/31
f 68/77/30 70/78/32 67/79/31
f 64/80/33 63/81/28 62/82/27
f 71/83/34 72/84/35 73/85/36
f 77/86/4 78/87/4 79/88/4
f 73/85/36 72/84/35 74/89/37
f 76/90/4 80/91/4 81/92/4
f 81/92/4 82/93/4 76/90/4
f 82/93/4 75/94/4 76/90/4
f 79/88/4 83/95/4 77/86/4
f 83/95/4 84/96/4 77/86/4
f 85/97/1 86/98/1 87/99/1
f 88/100/1 89/101/1 90/102/1
f 91/103/1 92/104/1 93/105/1
f 94/106/1 95/107/1 96/108/1
f 85/97/1 97/109/1 86/98/1
f 88/100/1 98/110/1 89/101/1
f 93/105/1 99/111/1 100/112/1
f 100/112/1 101/113/1 93/105/1
f 101/113/1 91/103/1 93/105/1
f 96/108/1 102/114/1 94/106/1
f 103/115/38 104/116/39 105/117/40
f 110/118/41 111/119/42 112/120/43
f 108/121/44 103/115/38 109/122/45
f 105/117/40 113/123/46 114/124/47
f 115/125/48 106/126/49 116/127/50
f 106/126/49 117/128/51 110/118/41
f 118/129/52 116/127/50 119/130/53
f 120/131/54 109/122/45 121/132/54
f 103/115/38 122/133/55 104/116/39
f 110/118/41 117/128/51 111/119/42
f 108/121/44 122/133/55 103/115/38
f 105/117/40 104/116/39 113/123/46
f 115/125/48 107/134/56 106/126/49
f 106/126/49 107/134/56 117/128/51
f 118/129/52 115/125/48 116/127/50
f 120/131/54 108/121/44 109/122/45
f 127/135/4 128/136/4 129/137/4
f 127/135/4 130/138/4 128/136/4
f 134/139/57 133/140/58 132/141/59
f 136/142/60 135/143/61 134/139/57
f 137/144/62 136/142/60 138/145/63
f 137/146/62 140/147/64 135/148/61
f 138/145/63 131/149/65 137/144/62
f 139/150/66 131/151/65 141/152/67
f 142/153/68 143/154/69 144/155/70
f 147/156/71 145/157/72 146/158/73
f 146/159/73 148/160/74 149/161/75
f 147/156/71 143/162/69 150/163/76
f 151/164/1 152/165/1 143/162/69
f 155/166/77 158/167/78 156/168/79
f 159/169/80 157/170/81 160/171/82
f 159/169/80 160/171/82 161/172/83
f 163/173/84 160/174/82 157/175/81
f 154/176/85 161/172/83 160/171/82
f 162/177/86 154/178/85 160/174/82
f 165/179/87 166/180/88 167/181/89
f 170/182/90 169/183/91 167/184/89
f 171/185/92 172/186/93 168/187/94
f 166/188/88 170/182/90 167/184/89
f 173/189/1 151/164/1 166/188/88
f 173/189/1 166/188/88 174/190/1
f 134/139/57 135/143/61 133/140/58
f 136/142/60 137/144/62 135/143/61
f 137/146/62 139/150/66 140/147/64
f 139/150/66 137/146/62 131/151/65
f 142/153/68 150/191/76 143/154/69
f 147/156/71 150/163/76 145/157/72
f 149/161/75 132/192/59 146/159/73
f 146/159/73 145/193/72 148/160/74
f 145/193/72 175/194/95 148/160/74
f 153/195/1 150/163/76 143/162/69
f 176/196/1 153/195/1 152/165/1
f 143/162/69 152/165/1 153/195/1
f 155/166/77 157/170/81 158/167/78
f 159/169/80 158/167/78 157/170/81
f 163/173/84 162/177/86 160/174/82
f 162/177/86 164/197/96 154/178/85
f 165/179/87 177/198/97 166/180/88
f 170/182/90 168/199/94 169/183/91
f 168/187/94 156/200/79 171/185/92
f 178/201/98 169/202/91 172/186/93
f 169/202/91 168/187/94 172/186/93
f 173/189/1 152/165/1 151/164/1
f 166/188/88 167/184/89 174/190/1
f 174/190/1 179/203/1 173/189/1
f 180/204/1 181/205/1 182/206/1
f 180/204/1 182/206/1 183/207/1
f 190/208/4 192/209/4 191/210/4
f 190/208/4 193/211/4 192/209/4
f 198/212/4 197/213/4 199/214/4
f 198/212/4 200/215/4 197/213/4
f 210/216/4 211/217/4 212/218/4
f 210/216/4 213/219/4 211/217/4
f 214/220/2 215/221/2 216/222/2
f 214/220/2 216/222/2 217/223/2
f 218/224/3 219/225/3 220/226/3
f 218/224/3 221/227/3 219/225/3
f 245/228/99 246/229/100 247/230/101
f 245/231/99 249/232/102 246/233/100
f 250/234/103 251/235/104 252/236/105
f 254/237/106 251/238/104 250/239/103
f 245/231/99 248/240/4 249/232/102
f 254/237/106 253/241/4 251/238/104
f 256/242/4 257/243/4 258/244/4
f 256/242/4 255/245/4 257/243/4
l 184 185
l 231 232
l 208 209
l 239 240
l 61 224
l 92 99
l 206 207
l 125 126
l 233 234
l 241 242
l 225 226
l 187 229
l 188 189
l 203 230
l 243 244
l 194 195
l 205 204
l 66 224
l 186 187
l 185 235
l 237 238
l 123 124
l 227 228
l 236 201
l 202 196
l 222 223
